<?xml version="1.0" encoding="UTF-8" standalone="no"?>
<!DOCTYPE svg PUBLIC "-//W3C//DTD SVG 1.1//EN" "http://www.w3.org/Graphics/SVG/1.1/DTD/svg11.dtd">
<svg width="100%" height="100%" viewBox="0 0 1000 775" version="1.1" xmlns="http://www.w3.org/2000/svg" xmlns:xlink="http://www.w3.org/1999/xlink" xml:space="preserve" xmlns:serif="http://www.serif.com/" style="fill-rule:evenodd;clip-rule:evenodd;stroke-miterlimit:10;">
    <g transform="matrix(1,0,0,1,0,10)">
        <g>
            <g>
                <path d="M873.683,561.607C884.942,575.524 888.684,591.162 882.041,596.535L977.568,519.257C984.21,513.883 980.468,498.246 969.209,484.329C957.951,470.412 943.44,463.487 936.798,468.86L841.271,546.139C847.913,540.765 862.424,547.691 873.683,561.607Z" style="fill:none;fill-rule:nonzero;stroke:rgb(158,159,159);stroke-width:6px;"/>
                <g transform="matrix(-0.6289,-0.7775,0.7775,-0.6289,959.403,1600.57)">
                    <ellipse cx="861.656" cy="571.337" rx="32.412" ry="15.469" style="fill:none;stroke:rgb(158,159,159);stroke-width:6px;"/>
                </g>
            </g>
            <g>
                <path d="M32.716,338.299L-8.092,288.432L15.617,221.808L56.425,271.676L32.716,338.299Z" style="fill:none;fill-rule:nonzero;stroke:rgb(158,159,159);stroke-width:6px;stroke-linejoin:bevel;"/>
                <path d="M119.562,258.798L56.425,271.676L32.716,338.299L95.852,325.422L119.562,258.798Z" style="fill:none;fill-rule:nonzero;stroke:rgb(158,159,159);stroke-width:6px;stroke-linejoin:bevel;"/>
                <path d="M78.754,208.931L15.619,221.808L56.425,271.676L119.562,258.798L78.754,208.931Z" style="fill:none;fill-rule:nonzero;stroke:rgb(158,159,159);stroke-width:6px;stroke-linejoin:bevel;"/>
            </g>
            <g>
                <path d="M928.565,120.203L882.041,18.617L986.61,57.98" style="fill:none;fill-rule:nonzero;stroke:rgb(158,159,159);stroke-width:6px;"/>
                <g transform="matrix(0.6821,-0.7312,0.7312,0.6821,239.238,728.532)">
                    <ellipse cx="957.588" cy="89.092" rx="42.547" ry="12.954" style="fill:none;stroke:rgb(158,159,159);stroke-width:6px;"/>
                </g>
            </g>
            <g>
                <path d="M858.519,279.115C873.632,276.285 876.676,292.543 891.789,289.713C906.903,286.883 903.859,270.626 918.972,267.796C934.085,264.966 937.129,281.224 952.242,278.394C967.357,275.564 964.313,259.306 979.429,256.476C994.544,253.646 997.588,269.903 1012.7,267.073" style="fill:none;fill-rule:nonzero;stroke:rgb(158,159,159);stroke-width:6px;"/>
            </g>
            <g>
                <path d="M-10.623,647.834C4.291,651.572 0.27,667.616 15.184,671.354C30.099,675.092 34.12,659.049 49.035,662.787C63.95,666.525 59.928,682.569 74.843,686.307C89.76,690.046 93.781,674.002 108.697,677.741C123.614,681.48 119.592,697.523 134.509,701.262" style="fill:none;fill-rule:nonzero;stroke:rgb(158,159,159);stroke-width:6px;"/>
            </g>
            <path d="M148.194,512.41L188.484,535.671L148.194,558.932L148.194,512.41Z" style="fill:none;fill-rule:nonzero;stroke:rgb(158,159,159);stroke-width:6px;"/>
            <path d="M685.502,40.333L729,40.333L729,88.725" style="fill:none;fill-rule:nonzero;stroke:rgb(158,159,159);stroke-width:6px;"/>
            <g transform="matrix(1,0,0,1,130,-70)">
                <path d="M638.012,461.845C645.214,461.845 645.214,469.595 652.417,469.595C659.622,469.595 659.622,461.845 666.827,461.845C674.03,461.845 674.03,469.595 681.232,469.595C688.439,469.595 688.439,461.845 695.647,461.845C702.855,461.845 702.855,469.595 710.062,469.595" style="fill:none;fill-rule:nonzero;stroke:rgb(158,159,159);stroke-width:6px;"/>
            </g>
            <g transform="matrix(1,0,0,1,130,-70)">
                <path d="M638.012,477.554C645.214,477.554 645.214,485.304 652.417,485.304C659.622,485.304 659.622,477.554 666.827,477.554C674.03,477.554 674.03,485.304 681.232,485.304C688.439,485.304 688.439,477.554 695.647,477.554C702.855,477.554 702.855,485.304 710.062,485.304" style="fill:none;fill-rule:nonzero;stroke:rgb(158,159,159);stroke-width:6px;"/>
            </g>
            <path d="M250.671,62.02L239.104,73.588L227.536,62.02" style="fill:none;fill-rule:nonzero;stroke:rgb(158,159,159);stroke-width:6px;"/>
            <path d="M250.671,85.257L239.104,96.825L227.536,85.257" style="fill:none;fill-rule:nonzero;stroke:rgb(158,159,159);stroke-width:6px;"/>
            <path d="M250.671,108.494L239.104,120.062L227.536,108.494" style="fill:none;fill-rule:nonzero;stroke:rgb(158,159,159);stroke-width:6px;"/>
            <path d="M250.671,131.73L239.104,143.298L227.536,131.73" style="fill:none;fill-rule:nonzero;stroke:rgb(158,159,159);stroke-width:6px;"/>
            <circle cx="722.804" cy="671.169" r="4.561" style="fill:rgb(158,159,159);"/>
            <circle cx="738.131" cy="671.169" r="4.561" style="fill:rgb(158,159,159);"/>
            <circle cx="722.804" cy="686.183" r="4.561" style="fill:rgb(158,159,159);"/>
            <circle cx="738.131" cy="686.183" r="4.561" style="fill:rgb(158,159,159);"/>
            <circle cx="722.804" cy="701.196" r="4.561" style="fill:rgb(158,159,159);"/>
            <circle cx="738.131" cy="701.196" r="4.561" style="fill:rgb(158,159,159);"/>
            <circle cx="722.804" cy="716.209" r="4.561" style="fill:rgb(158,159,159);"/>
            <circle cx="738.131" cy="716.209" r="4.561" style="fill:rgb(158,159,159);"/>
            <circle cx="722.804" cy="731.223" r="4.561" style="fill:rgb(158,159,159);"/>
            <circle cx="738.131" cy="731.223" r="4.561" style="fill:rgb(158,159,159);"/>
            <path d="M61.944,38.024C76.527,12.234 114.476,21.024 104.637,52.82C94.799,84.616 108.853,111.32 135.558,97.266" style="fill:none;fill-rule:nonzero;stroke:rgb(158,159,159);stroke-width:6px;stroke-linecap:round;stroke-linejoin:round;"/>
            <rect x="259.803" y="640.78" width="19" height="19" style="fill:rgb(158,159,159);"/>
            <rect x="278.803" y="621.78" width="19" height="19" style="fill:rgb(158,159,159);"/>
            <rect x="297.803" y="640.78" width="19" height="19" style="fill:rgb(158,159,159);"/>
        </g>
    </g>
</svg>
