<?xml version="1.0" encoding="UTF-8" standalone="no"?>
<!DOCTYPE svg PUBLIC "-//W3C//DTD SVG 1.1//EN" "http://www.w3.org/Graphics/SVG/1.1/DTD/svg11.dtd">
<svg width="100%" height="100%" viewBox="0 0 828 1400" version="1.1" xmlns="http://www.w3.org/2000/svg" xmlns:xlink="http://www.w3.org/1999/xlink" xml:space="preserve" xmlns:serif="http://www.serif.com/" style="fill-rule:evenodd;clip-rule:evenodd;stroke-miterlimit:10;">
    <g transform="matrix(1,0,0,1,-86,0)">
        <g transform="matrix(1,0,0,1,-2676.25,150.594)">
            <g id="模様など">
                <g opacity="0.6">
                    <path d="M3214.63,-69.514L3238.49,-33.528L3277.63,-51.761L3301.49,-15.772L3340.64,-34.004L3364.5,1.984L3403.64,-16.247L3427.51,19.742L3466.66,1.512" style="fill:none;fill-rule:nonzero;stroke:white;stroke-width:10px;"/>
                </g>
                <g opacity="0.6">
                    <circle cx="3479.43" cy="-125.46" r="48.846" style="fill:none;stroke:white;stroke-width:12px;stroke-linecap:round;stroke-linejoin:round;stroke-miterlimit:4;stroke-dasharray:0,21.92;"/>
                </g>
                <g transform="matrix(1.57065,0,0,1.57065,-2027.48,-427.704)">
                    <g opacity="0.6">
                        <g>
                            <path d="M3478.43,760.876" style="fill:none;fill-rule:nonzero;stroke:white;stroke-width:12px;stroke-linecap:round;stroke-linejoin:round;stroke-miterlimit:4;"/>
                            <path d="M3500.11,754.764L3684.39,702.817" style="fill:none;fill-rule:nonzero;stroke:white;stroke-width:12px;stroke-linecap:round;stroke-linejoin:round;stroke-miterlimit:4;stroke-dasharray:0,22.53;"/>
                        </g>
                    </g>
                </g>
                <g opacity="0.6">
                    <path d="M3504.2,1169.87C3507.35,1180.77 3501,1192.26 3490.1,1195.4L3457.24,1204.87C3446.34,1208.01 3434.85,1201.66 3431.7,1190.76L3431.47,1189.94C3428.32,1179.04 3434.67,1167.55 3445.57,1164.41L3478.43,1154.94C3489.33,1151.8 3500.82,1158.14 3503.97,1169.05L3504.2,1169.87Z" style="fill:rgb(91,210,216);fill-rule:nonzero;"/>
                    <path d="M3854.81,1001.98C3843.9,1005.12 3832.41,998.778 3829.27,987.877L3829.25,987.818C3826.11,976.917 3814.62,970.57 3803.71,973.714L3726.39,996.017C3715.49,999.161 3703.99,992.814 3700.85,981.913L3700.83,981.854C3697.69,970.953 3686.2,964.606 3675.3,967.75L3674.47,967.987C3663.57,971.131 3652.08,964.784 3648.94,953.883L3648.92,953.824C3645.78,942.923 3634.29,936.606 3623.4,939.787L3506.93,973.808C3496.04,976.989 3489.7,988.511 3492.85,999.412L3492.86,999.471C3496.01,1010.37 3489.69,1021.97 3478.83,1025.25L3460.18,1030.88C3449.31,1034.16 3443,1045.76 3446.14,1056.66L3446.38,1057.49C3449.52,1068.39 3460.99,1074.65 3471.87,1071.41L3512.62,1059.26C3523.5,1056.02 3534.97,1062.29 3538.11,1073.19L3538.13,1073.25C3541.27,1084.15 3552.76,1090.5 3563.66,1087.35L3565.25,1086.9C3576.15,1083.75 3587.64,1090.1 3590.79,1101L3590.8,1101.06C3593.95,1111.96 3587.6,1123.45 3576.7,1126.6L3546.87,1135.2C3535.97,1138.35 3529.62,1149.84 3532.76,1160.74L3533,1161.56C3536.14,1172.46 3547.63,1178.79 3558.53,1175.63L3810.27,1102.52C3821.17,1099.36 3827.51,1087.85 3824.37,1076.95L3824.13,1076.13C3820.99,1065.23 3827.33,1053.74 3838.23,1050.59L3868.07,1041.99C3878.97,1038.84 3885.32,1027.35 3882.17,1016.45L3881.93,1015.63C3878.79,1004.73 3867.3,998.38 3856.4,1001.52L3854.81,1001.98Z" style="fill:rgb(91,210,216);fill-rule:nonzero;"/>
                </g>
                <g opacity="0.6">
                    <path d="M3519.2,166.177C3515.84,154.534 3522.61,142.227 3534.24,138.83L3657.71,102.764C3669.34,99.366 3681.61,106.113 3684.97,117.756L3685.15,118.393C3688.51,130.036 3681.74,142.343 3670.11,145.74L3546.64,181.806C3535,185.204 3522.74,178.457 3519.38,166.814L3519.2,166.177Z" style="fill:rgb(240,194,241);fill-rule:nonzero;"/>
                    <path d="M3460.05,183.291C3456.69,171.648 3463.46,159.363 3475.1,155.992L3476.52,155.581C3488.16,152.21 3500.43,158.978 3503.79,170.621L3503.97,171.258C3507.33,182.901 3500.56,195.186 3488.92,198.557L3487.5,198.968C3475.86,202.339 3463.59,195.571 3460.23,183.928L3460.05,183.291Z" style="fill:rgb(240,194,241);fill-rule:nonzero;"/>
                    <path d="M3393.46,137.669C3390.11,126.026 3396.88,113.752 3408.53,110.394L3582.7,60.16C3594.34,56.802 3606.61,63.581 3609.97,75.224L3610.15,75.861C3613.51,87.504 3606.73,99.778 3595.09,103.136L3420.92,153.37C3409.28,156.728 3397.01,149.949 3393.65,138.306L3393.46,137.669Z" style="fill:rgb(240,194,241);fill-rule:nonzero;"/>
                </g>
                <g transform="matrix(1.79802,0,0,1.79802,-2690.2,-800.741)">
                    <g opacity="0.6">
                        <path d="M3345.59,918.803C3354.96,918.803 3354.96,928.885 3364.33,928.885C3373.7,928.885 3373.7,918.803 3383.07,918.803C3392.45,918.803 3392.45,928.885 3401.82,928.885C3411.2,928.885 3411.2,918.803 3420.57,918.803C3429.95,918.803 3429.95,928.885 3439.32,928.885" style="fill:none;fill-rule:nonzero;stroke:white;stroke-width:6.5px;"/>
                    </g>
                    <g opacity="0.6">
                        <path d="M3345.59,939.24C3354.96,939.24 3354.96,949.322 3364.33,949.322C3373.7,949.322 3373.7,939.24 3383.07,939.24C3392.45,939.24 3392.45,949.322 3401.82,949.322C3411.2,949.322 3411.2,939.24 3420.57,939.24C3429.95,939.24 3429.95,949.322 3439.32,949.322" style="fill:none;fill-rule:nonzero;stroke:white;stroke-width:6.5px;"/>
                    </g>
                </g>
            </g>
        </g>
    </g>
</svg>
