<?xml version="1.0" encoding="UTF-8" standalone="no"?>
<!DOCTYPE svg PUBLIC "-//W3C//DTD SVG 1.1//EN" "http://www.w3.org/Graphics/SVG/1.1/DTD/svg11.dtd">
<svg width="100%" height="100%" viewBox="0 0 828 500" version="1.1" xmlns="http://www.w3.org/2000/svg" xmlns:xlink="http://www.w3.org/1999/xlink" xml:space="preserve" xmlns:serif="http://www.serif.com/" style="fill-rule:evenodd;clip-rule:evenodd;stroke-miterlimit:10;">
    <g transform="matrix(1,0,0,1,-86,0)">
        <g transform="matrix(1,0,0,1,-2677,152)">
            <g id="模様など">
                <g transform="matrix(1,0,0,1,0,-20)">
                    <g opacity="0.6">
                        <path d="M2757.29,289.663C2781.62,285.107 2786.52,311.282 2810.85,306.726C2835.18,302.17 2830.28,275.995 2854.62,271.439C2878.95,266.883 2883.85,293.058 2908.18,288.502C2932.52,283.945 2927.62,257.771 2951.95,253.214C2976.29,248.657 2981.19,274.832 3005.52,270.275" style="fill:none;fill-rule:nonzero;stroke:white;stroke-width:10px;"/>
                    </g>
                </g>
                <g opacity="0.6">
                    <path d="M3214.63,-69.514L3238.49,-33.528L3277.63,-51.761L3301.49,-15.772L3340.64,-34.004L3364.5,1.984L3403.64,-16.247L3427.51,19.742L3466.66,1.512" style="fill:none;fill-rule:nonzero;stroke:white;stroke-width:10px;"/>
                </g>
                <path d="M2841.03,112.313L2888.98,139.997L2841.03,167.68L2841.03,112.313Z" style="fill:none;fill-rule:nonzero;stroke:white;stroke-opacity:0.6;stroke-width:10px;"/>
                <g opacity="0.6">
                    <circle cx="3479.43" cy="-125.46" r="48.846" style="fill:none;stroke:white;stroke-width:12px;stroke-linecap:round;stroke-linejoin:round;stroke-miterlimit:4;stroke-dasharray:0,21.92;"/>
                </g>
                <g opacity="0.6">
                    <path d="M3519.2,166.177C3515.84,154.534 3522.61,142.227 3534.24,138.83L3657.71,102.764C3669.34,99.366 3681.61,106.113 3684.97,117.756L3685.15,118.393C3688.51,130.036 3681.74,142.343 3670.11,145.74L3546.64,181.806C3535,185.204 3522.74,178.457 3519.38,166.814L3519.2,166.177Z" style="fill:rgb(240,194,241);fill-rule:nonzero;"/>
                    <path d="M3460.05,183.291C3456.69,171.648 3463.46,159.363 3475.1,155.992L3476.52,155.581C3488.16,152.21 3500.43,158.978 3503.79,170.621L3503.97,171.258C3507.33,182.901 3500.56,195.186 3488.92,198.557L3487.5,198.968C3475.86,202.339 3463.59,195.571 3460.23,183.928L3460.05,183.291Z" style="fill:rgb(240,194,241);fill-rule:nonzero;"/>
                    <path d="M3393.46,137.669C3390.11,126.026 3396.88,113.752 3408.53,110.394L3582.7,60.16C3594.34,56.802 3606.61,63.581 3609.97,75.224L3610.15,75.861C3613.51,87.504 3606.73,99.778 3595.09,103.136L3420.92,153.37C3409.28,156.728 3397.01,149.949 3393.65,138.306L3393.46,137.669Z" style="fill:rgb(240,194,241);fill-rule:nonzero;"/>
                </g>
                <g opacity="0.6">
                    <path d="M3045.79,-59.284C3048.94,-48.384 3042.6,-36.864 3031.71,-33.683L2916.13,0.078C2905.24,3.259 2893.76,-3.057 2890.61,-13.957L2890.44,-14.554C2887.3,-25.454 2893.63,-36.974 2904.52,-40.155L3020.11,-73.917C3031,-77.098 3042.48,-70.782 3045.62,-59.882L3045.79,-59.284Z" style="fill:rgb(64,174,248);fill-rule:nonzero;"/>
                    <path d="M2869.51,-6.617C2872.66,4.283 2866.31,15.773 2855.41,18.916L2851.9,19.928C2841,23.072 2829.51,16.726 2826.37,5.826L2826.2,5.229C2823.05,-5.671 2829.4,-17.161 2840.3,-20.304L2843.81,-21.316C2854.71,-24.46 2866.2,-18.114 2869.34,-7.214L2869.51,-6.617Z" style="fill:rgb(64,174,248);fill-rule:nonzero;"/>
                    <path d="M3139.63,-27.683C3142.78,-16.783 3136.44,-5.263 3125.55,-2.082L3026.12,26.965C3015.24,30.146 3003.75,23.831 3000.61,12.931L3000.44,12.334C2997.29,1.434 3003.63,-10.086 3014.52,-13.267L3113.95,-42.314C3124.84,-45.495 3136.32,-39.18 3139.46,-28.28L3139.63,-27.683Z" style="fill:rgb(64,174,248);fill-rule:nonzero;"/>
                    <path d="M3115.41,-214.144C3104.51,-211 3093.03,-217.31 3089.9,-228.165C3086.77,-239.02 3075.29,-245.329 3064.39,-242.186L2987.73,-220.075C2976.83,-216.931 2965.35,-223.241 2962.22,-234.096C2959.09,-244.951 2947.61,-251.26 2936.71,-248.117L2936.11,-247.945C2925.21,-244.801 2913.73,-251.111 2910.6,-261.966C2907.47,-272.821 2896,-279.1 2885.11,-275.919L2769.53,-242.157C2758.64,-238.976 2752.29,-227.493 2755.42,-216.638C2758.55,-205.783 2752.23,-194.22 2741.37,-190.942L2723.03,-185.41C2712.18,-182.132 2705.86,-170.533 2709.01,-159.633L2709.18,-159.036C2712.32,-148.136 2723.79,-141.87 2734.66,-145.111L2774.96,-157.126C2785.83,-160.367 2797.29,-154.137 2800.42,-143.282C2803.55,-132.427 2815.03,-126.118 2825.93,-129.261L2827.29,-129.652C2838.19,-132.796 2849.67,-126.486 2852.8,-115.631C2855.93,-104.776 2849.57,-93.322 2838.67,-90.179L2809.23,-81.687C2798.33,-78.543 2791.99,-67.053 2795.13,-56.154L2795.3,-55.557C2798.44,-44.657 2809.93,-38.328 2820.82,-41.491L3070.91,-114.113C3081.8,-117.276 3088.14,-128.783 3085,-139.682L3084.83,-140.279C3081.68,-151.179 3088.03,-162.669 3098.93,-165.812L3128.37,-174.304C3139.27,-177.448 3145.62,-188.938 3142.47,-199.837L3142.3,-200.434C3139.16,-211.334 3127.67,-217.679 3116.77,-214.536L3115.41,-214.144Z" style="fill:rgb(64,174,248);fill-rule:nonzero;"/>
                </g>
            </g>
        </g>
    </g>
</svg>
