<?xml version="1.0" encoding="UTF-8" standalone="no"?>
<!DOCTYPE svg PUBLIC "-//W3C//DTD SVG 1.1//EN" "http://www.w3.org/Graphics/SVG/1.1/DTD/svg11.dtd">
<svg width="100%" height="100%" viewBox="0 0 450 750" version="1.1" xmlns="http://www.w3.org/2000/svg" xmlns:xlink="http://www.w3.org/1999/xlink" xml:space="preserve" xmlns:serif="http://www.serif.com/" style="fill-rule:evenodd;clip-rule:evenodd;stroke-miterlimit:10;">
    <g transform="matrix(1,0,0,1,-1742.41,0.1875)">
        <g>
            <g>
                <g opacity="0.6">
                    <path d="M2025.81,365.074C2034.92,376.34 2037.95,389 2032.57,393.349L2109.9,330.79C2115.28,326.44 2112.25,313.781 2103.14,302.515C2094.02,291.249 2082.27,285.643 2076.9,289.992L1999.57,352.551C2004.94,348.201 2016.69,353.808 2025.81,365.074Z" style="fill:none;fill-rule:nonzero;stroke:white;stroke-width:5px;"/>
                    <g transform="matrix(-0.6289,-0.7775,0.7775,-0.6289,2994.11,2174.91)">
                        <ellipse cx="2016.07" cy="372.95" rx="26.238" ry="12.522" style="fill:none;stroke:white;stroke-width:5px;"/>
                    </g>
                </g>
                <g opacity="0.6">
                    <path d="M1994.45,55.645L1947.93,-45.941L2052.5,-6.578" style="fill:none;fill-rule:nonzero;stroke:white;stroke-width:6px;"/>
                    <g transform="matrix(0.6821,-0.7312,0.7312,0.6821,625.253,1487.42)">
                        <ellipse cx="2023.48" cy="24.533" rx="42.547" ry="12.954" style="fill:none;stroke:white;stroke-width:6px;"/>
                    </g>
                </g>
                <g opacity="0.6">
                    <path d="M1745.03,42.012L1759.04,63.145L1782.02,52.437L1796.04,73.571L1819.02,62.863L1833.03,83.997L1856.02,73.291L1870.04,94.426L1893.03,83.721" style="fill:none;fill-rule:nonzero;stroke:white;stroke-width:6px;"/>
                </g>
                <g opacity="0.6">
                    <g>
                        <path d="M2107.11,439.869L2239.67,402.336" style="fill:none;fill-rule:nonzero;stroke:white;stroke-width:6px;stroke-linecap:round;stroke-linejoin:round;stroke-miterlimit:4;stroke-dasharray:0,16.21;"/>
                    </g>
                </g>
                <g transform="matrix(1,0,0,1,-26,0)">
                    <g opacity="0.6">
                        <path d="M2124.23,652.285C2126.71,660.89 2121.7,669.96 2113.09,672.44L2087.16,679.915C2078.55,682.395 2069.48,677.384 2067,668.779L2066.81,668.13C2064.33,659.525 2069.34,650.455 2077.95,647.975L2103.88,640.5C2112.49,638.02 2121.56,643.031 2124.04,651.636L2124.23,652.285Z" style="fill:rgb(91,210,216);fill-rule:nonzero;"/>
                        <path d="M2400.98,519.764C2392.38,522.246 2383.3,517.236 2380.82,508.631L2380.81,508.585C2378.33,499.98 2369.26,494.97 2360.65,497.452L2299.61,515.057C2291.01,517.539 2281.94,512.529 2279.45,503.924L2279.44,503.878C2276.96,495.273 2267.89,490.263 2259.28,492.745L2258.64,492.932C2250.03,495.414 2240.96,490.404 2238.48,481.799L2238.46,481.753C2235.98,473.148 2226.92,468.162 2218.32,470.673L2126.38,497.528C2117.79,500.039 2112.78,509.134 2115.26,517.739L2115.28,517.785C2117.76,526.39 2112.78,535.548 2104.2,538.135L2089.47,542.58C2080.9,545.168 2075.92,554.325 2078.4,562.93L2078.59,563.579C2081.07,572.184 2090.12,577.131 2098.7,574.573L2130.88,564.982C2139.46,562.424 2148.51,567.371 2150.99,575.976L2151.01,576.022C2153.49,584.627 2162.56,589.637 2171.16,587.155L2172.41,586.794C2181.02,584.312 2190.09,589.322 2192.57,597.927L2192.59,597.973C2195.07,606.578 2190.06,615.649 2181.45,618.131L2157.9,624.923C2149.3,627.405 2144.29,636.476 2146.77,645.081L2146.96,645.73C2149.44,654.335 2158.51,659.332 2167.11,656.835L2365.82,599.129C2374.43,596.631 2379.43,587.548 2376.95,578.942L2376.76,578.293C2374.28,569.688 2379.29,560.617 2387.89,558.135L2411.45,551.343C2420.05,548.861 2425.06,539.79 2422.58,531.185L2422.39,530.536C2419.91,521.931 2410.84,516.921 2402.23,519.403L2400.98,519.764Z" style="fill:rgb(91,210,216);fill-rule:nonzero;"/>
                    </g>
                </g>
                <g opacity="0.6">
                    <path d="M2136.06,181.143C2133.57,172.49 2138.6,163.344 2147.24,160.819L2239,134.015C2247.65,131.49 2256.76,136.504 2259.26,145.157L2259.4,145.631C2261.89,154.284 2256.86,163.43 2248.22,165.955L2156.45,192.759C2147.81,195.284 2138.69,190.27 2136.2,181.617L2136.06,181.143Z" style="fill:rgb(240,194,241);fill-rule:nonzero;"/>
                    <path d="M2092.1,193.862C2089.61,185.209 2094.64,176.079 2103.29,173.573L2104.35,173.268C2112.99,170.762 2122.12,175.792 2124.61,184.446L2124.75,184.92C2127.24,193.573 2122.21,202.703 2113.56,205.209L2112.5,205.514C2103.85,208.02 2094.73,202.99 2092.24,194.336L2092.1,193.862Z" style="fill:rgb(240,194,241);fill-rule:nonzero;"/>
                    <path d="M2042.62,159.956C2040.12,151.303 2045.16,142.181 2053.81,139.685L2183.25,102.352C2191.91,99.856 2201.03,104.894 2203.52,113.547L2203.66,114.021C2206.16,122.674 2201.12,131.796 2192.47,134.292L2063.03,171.625C2054.37,174.121 2045.25,169.083 2042.75,160.43L2042.62,159.956Z" style="fill:rgb(240,194,241);fill-rule:nonzero;"/>
                </g>
                <g opacity="0.6">
                    <path d="M1907.98,602.053C1915.18,602.053 1915.18,609.803 1922.39,609.803C1929.59,609.803 1929.59,602.053 1936.8,602.053C1944,602.053 1944,609.803 1951.2,609.803C1958.41,609.803 1958.41,602.053 1965.62,602.053C1972.83,602.053 1972.83,609.803 1980.03,609.803" style="fill:none;fill-rule:nonzero;stroke:white;stroke-width:5px;"/>
                </g>
                <g opacity="0.6">
                    <path d="M1907.98,617.762C1915.18,617.762 1915.18,625.512 1922.39,625.512C1929.59,625.512 1929.59,617.762 1936.8,617.762C1944,617.762 1944,625.512 1951.2,625.512C1958.41,625.512 1958.41,617.762 1965.62,617.762C1972.83,617.762 1972.83,625.512 1980.03,625.512" style="fill:none;fill-rule:nonzero;stroke:white;stroke-width:5px;"/>
                </g>
            </g>
        </g>
    </g>
</svg>
