<?xml version="1.0" encoding="UTF-8" standalone="no"?>
<!DOCTYPE svg PUBLIC "-//W3C//DTD SVG 1.1//EN" "http://www.w3.org/Graphics/SVG/1.1/DTD/svg11.dtd">
<svg width="100%" height="100%" viewBox="0 0 828 500" version="1.1" xmlns="http://www.w3.org/2000/svg" xmlns:xlink="http://www.w3.org/1999/xlink" xml:space="preserve" xmlns:serif="http://www.serif.com/" style="fill-rule:evenodd;clip-rule:evenodd;stroke-linecap:round;stroke-linejoin:round;">
    <g transform="matrix(1,0,0,1,-86,-944)">
        <g transform="matrix(1,0,0,1,-2677,202)">
            <g id="模様など">
                <g transform="matrix(1.19929,0,0,1.21442,-726.441,-61.0415)">
                    <g opacity="0.6">
                        <g>
                            <path d="M3478.43,760.876" style="fill:none;fill-rule:nonzero;stroke:white;stroke-width:12px;"/>
                            <path d="M3500.11,754.764L3684.39,702.817" style="fill:none;fill-rule:nonzero;stroke:white;stroke-width:12px;stroke-dasharray:0,22.53;"/>
                        </g>
                    </g>
                </g>
                <g opacity="0.6">
                    <path d="M2621.81,965.095C2618.49,953.59 2625.18,941.429 2636.67,938.072L2758.68,902.433C2770.18,899.076 2782.3,905.742 2785.62,917.248L2785.8,917.878C2789.12,929.383 2782.43,941.544 2770.93,944.901L2648.92,980.54C2637.43,983.897 2625.31,977.231 2621.99,965.725L2621.81,965.095Z" style="fill:rgb(255,248,122);fill-rule:nonzero;"/>
                    <path d="M2807.89,909.5C2804.57,897.994 2811.27,885.866 2822.78,882.547L2826.48,881.479C2837.99,878.161 2850.11,884.859 2853.43,896.365L2853.61,896.995C2856.93,908.501 2850.23,920.629 2838.73,923.948L2835.03,925.016C2823.52,928.334 2811.39,921.636 2808.07,910.13L2807.89,909.5Z" style="fill:rgb(255,248,122);fill-rule:nonzero;"/>
                    <path d="M2886.44,975.417C2883.12,963.912 2889.82,951.785 2901.33,948.468L2935.58,938.596C2947.09,935.28 2959.22,941.98 2962.53,953.485L2962.72,954.115C2966.03,965.62 2959.34,977.747 2947.83,981.064L2913.58,990.936C2902.07,994.252 2889.94,987.552 2886.62,976.046L2886.44,975.417Z" style="fill:rgb(255,248,122);fill-rule:nonzero;"/>
                    <path d="M2518.32,1151.54C2529.82,1148.22 2541.94,1154.88 2545.25,1166.34C2548.55,1177.8 2560.67,1184.45 2572.17,1181.14L2653.1,1157.8C2664.61,1154.48 2676.72,1161.14 2680.03,1172.6C2683.33,1184.05 2695.45,1190.71 2706.95,1187.4L2707.59,1187.21C2719.09,1183.9 2731.21,1190.56 2734.51,1202.01C2737.82,1213.47 2749.93,1220.1 2761.42,1216.74L2883.43,1181.1C2894.92,1177.75 2901.62,1165.62 2898.32,1154.17C2895.01,1142.71 2901.69,1130.5 2913.15,1127.04L2932.5,1121.2C2943.97,1117.74 2950.63,1105.5 2947.31,1093.99L2947.13,1093.36C2943.81,1081.86 2931.71,1075.24 2920.23,1078.66L2877.69,1091.35C2866.21,1094.77 2854.12,1088.19 2850.82,1076.73C2847.51,1065.27 2835.39,1058.61 2823.89,1061.93L2822.46,1062.35C2810.95,1065.66 2798.83,1059 2795.53,1047.55C2792.22,1036.09 2798.93,1024 2810.44,1020.68L2841.52,1011.71C2853.02,1008.4 2859.72,996.267 2856.4,984.761L2856.22,984.131C2852.9,972.626 2840.78,965.944 2829.28,969.283L2565.29,1045.94C2553.8,1049.28 2547.1,1061.43 2550.42,1072.93L2550.6,1073.56C2553.92,1085.07 2547.22,1097.2 2535.72,1100.52L2504.64,1109.48C2493.13,1112.8 2486.43,1124.93 2489.75,1136.43L2489.93,1137.06C2493.25,1148.57 2505.38,1155.27 2516.89,1151.95L2518.32,1151.54Z" style="fill:rgb(255,248,122);fill-rule:nonzero;"/>
                </g>
                <g opacity="0.6">
                    <path d="M3504.2,1169.87C3507.35,1180.77 3501,1192.26 3490.1,1195.4L3457.24,1204.87C3446.34,1208.01 3434.85,1201.66 3431.7,1190.76L3431.47,1189.94C3428.32,1179.04 3434.67,1167.55 3445.57,1164.41L3478.43,1154.94C3489.33,1151.8 3500.82,1158.14 3503.97,1169.05L3504.2,1169.87Z" style="fill:rgb(91,210,216);fill-rule:nonzero;"/>
                    <path d="M3854.81,1001.98C3843.9,1005.12 3832.41,998.778 3829.27,987.877L3829.25,987.818C3826.11,976.917 3814.62,970.57 3803.71,973.714L3726.39,996.017C3715.49,999.161 3703.99,992.814 3700.85,981.913L3700.83,981.854C3697.69,970.953 3686.2,964.606 3675.3,967.75L3674.47,967.987C3663.57,971.131 3652.08,964.784 3648.94,953.883L3648.92,953.824C3645.78,942.923 3634.29,936.606 3623.4,939.787L3506.93,973.808C3496.04,976.989 3489.7,988.511 3492.85,999.412L3492.86,999.471C3496.01,1010.37 3489.69,1021.97 3478.83,1025.25L3460.18,1030.88C3449.31,1034.16 3443,1045.76 3446.14,1056.66L3446.38,1057.49C3449.52,1068.39 3460.99,1074.65 3471.87,1071.41L3512.62,1059.26C3523.5,1056.02 3534.97,1062.29 3538.11,1073.19L3538.13,1073.25C3541.27,1084.15 3552.76,1090.5 3563.66,1087.35L3565.25,1086.9C3576.15,1083.75 3587.64,1090.1 3590.79,1101L3590.8,1101.06C3593.95,1111.96 3587.6,1123.45 3576.7,1126.6L3546.87,1135.2C3535.97,1138.35 3529.62,1149.84 3532.76,1160.74L3533,1161.56C3536.14,1172.46 3547.63,1178.79 3558.53,1175.63L3810.27,1102.52C3821.17,1099.36 3827.51,1087.85 3824.37,1076.95L3824.13,1076.13C3820.99,1065.23 3827.33,1053.74 3838.23,1050.59L3868.07,1041.99C3878.97,1038.84 3885.32,1027.35 3882.17,1016.45L3881.93,1015.63C3878.79,1004.73 3867.3,998.38 3856.4,1001.52L3854.81,1001.98Z" style="fill:rgb(91,210,216);fill-rule:nonzero;"/>
                </g>
                <g transform="matrix(1.48523,0,0,1.61536,-1663.68,-547.201)">
                    <g opacity="0.6">
                        <path d="M3345.59,918.803C3354.96,918.803 3354.96,928.885 3364.33,928.885C3373.7,928.885 3373.7,918.803 3383.07,918.803C3392.45,918.803 3392.45,928.885 3401.82,928.885C3411.2,928.885 3411.2,918.803 3420.57,918.803C3429.95,918.803 3429.95,928.885 3439.32,928.885" style="fill:none;fill-rule:nonzero;stroke:white;stroke-width:6.5px;stroke-linecap:butt;stroke-linejoin:miter;stroke-miterlimit:10;"/>
                    </g>
                </g>
                <g transform="matrix(1.48523,0,0,1.61536,-1663.68,-547.201)">
                    <g opacity="0.6">
                        <path d="M3345.59,939.24C3354.96,939.24 3354.96,949.322 3364.33,949.322C3373.7,949.322 3373.7,939.24 3383.07,939.24C3392.45,939.24 3392.45,949.322 3401.82,949.322C3411.2,949.322 3411.2,939.24 3420.57,939.24C3429.95,939.24 3429.95,949.322 3439.32,949.322" style="fill:none;fill-rule:nonzero;stroke:white;stroke-width:6.5px;stroke-linecap:butt;stroke-linejoin:miter;stroke-miterlimit:10;"/>
                    </g>
                </g>
            </g>
        </g>
    </g>
</svg>
