<?xml version="1.0" encoding="UTF-8" standalone="no"?>
<!DOCTYPE svg PUBLIC "-//W3C//DTD SVG 1.1//EN" "http://www.w3.org/Graphics/SVG/1.1/DTD/svg11.dtd">
<svg width="100%" height="100%" viewBox="0 0 450 750" version="1.1" xmlns="http://www.w3.org/2000/svg" xmlns:xlink="http://www.w3.org/1999/xlink" xml:space="preserve" xmlns:serif="http://www.serif.com/" style="fill-rule:evenodd;clip-rule:evenodd;stroke-linejoin:bevel;stroke-miterlimit:10;">
    <g transform="matrix(1,0,0,1,-1192.41,0.1875)">
        <g>
            <g opacity="0.6">
                <path d="M1415.01,630.92L1387.77,597.636L1403.59,553.166L1430.83,586.451L1415.01,630.92Z" style="fill:none;fill-rule:nonzero;stroke:white;stroke-width:5px;"/>
                <path d="M1472.97,577.856L1430.83,586.451L1415.01,630.92L1457.15,622.325L1472.97,577.856Z" style="fill:none;fill-rule:nonzero;stroke:white;stroke-width:5px;"/>
                <path d="M1445.74,544.571L1403.6,553.166L1430.83,586.451L1472.97,577.856L1445.74,544.571Z" style="fill:none;fill-rule:nonzero;stroke:white;stroke-width:5px;"/>
            </g>
            <g opacity="0.6">
                <path d="M1157.88,354.72C1178.32,350.892 1182.44,372.885 1202.89,369.057C1223.33,365.229 1219.21,343.235 1239.66,339.407C1260.11,335.579 1264.22,357.572 1284.67,353.744C1305.12,349.915 1301,327.922 1321.45,324.093C1341.9,320.264 1346.01,342.258 1366.46,338.429" style="fill:none;fill-rule:nonzero;stroke:white;stroke-width:6px;stroke-linejoin:miter;"/>
            </g>
            <path d="M1311.67,189.756L1351.96,213.017L1311.67,236.278L1311.67,189.756Z" style="fill:none;fill-rule:nonzero;stroke:white;stroke-opacity:0.6;stroke-width:6px;stroke-linejoin:miter;"/>
            <g opacity="0.6">
                <circle cx="1566.17" cy="22.412" r="30.245" style="fill:none;stroke:white;stroke-width:7.29px;stroke-linecap:round;stroke-linejoin:round;stroke-miterlimit:4;stroke-dasharray:0,14.61;"/>
            </g>
            <g opacity="0.6">
                <path d="M1094.53,507.491C1092.03,498.838 1097.06,489.692 1105.71,487.167L1197.47,460.363C1206.11,457.838 1215.23,462.852 1217.73,471.505L1217.86,471.979C1220.36,480.632 1215.33,489.778 1206.68,492.303L1114.92,519.107C1106.27,521.632 1097.16,516.618 1094.66,507.965L1094.53,507.491Z" style="fill:rgb(255,248,122);fill-rule:nonzero;"/>
                <path d="M1234.48,465.678C1231.98,457.025 1237.02,447.903 1245.67,445.407L1248.46,444.604C1257.11,442.108 1266.23,447.146 1268.73,455.799L1268.87,456.273C1271.36,464.926 1266.32,474.048 1257.67,476.544L1254.88,477.347C1246.23,479.843 1237.11,474.805 1234.61,466.152L1234.48,465.678Z" style="fill:rgb(255,248,122);fill-rule:nonzero;"/>
                <path d="M1294.12,515.93C1291.63,507.277 1296.67,498.156 1305.32,495.662L1331.08,488.238C1339.73,485.744 1348.86,490.783 1351.35,499.436L1351.49,499.91C1353.98,508.563 1348.95,517.684 1340.29,520.178L1314.53,527.602C1305.88,530.096 1296.76,525.057 1294.26,516.404L1294.12,515.93Z" style="fill:rgb(255,248,122);fill-rule:nonzero;"/>
                <path d="M1017.26,648.389C1025.91,645.893 1035.03,650.902 1037.51,659.52C1040,668.138 1049.11,673.147 1057.76,670.651L1118.63,653.097C1127.28,650.601 1136.39,655.61 1138.88,664.228C1141.36,672.846 1150.48,677.855 1159.13,675.359L1159.6,675.222C1168.26,672.726 1177.37,677.735 1179.86,686.353C1182.34,694.971 1191.45,699.956 1200.09,697.431L1291.86,670.627C1300.5,668.102 1305.54,658.985 1303.06,650.367C1300.57,641.749 1305.59,632.569 1314.21,629.967L1328.77,625.575C1337.39,622.973 1342.4,613.764 1339.9,605.111L1339.77,604.637C1337.27,595.984 1328.17,591.009 1319.54,593.582L1287.54,603.121C1278.91,605.694 1269.81,600.748 1267.33,592.13C1264.84,583.512 1255.73,578.503 1247.08,580.999L1246,581.309C1237.35,583.805 1228.23,578.796 1225.75,570.178C1223.26,561.56 1228.31,552.467 1236.96,549.971L1260.34,543.229C1268.99,540.733 1274.03,531.611 1271.53,522.958L1271.39,522.484C1268.9,513.831 1259.78,508.806 1251.13,511.317L1052.59,568.972C1043.94,571.484 1038.9,580.618 1041.4,589.272L1041.54,589.746C1044.03,598.399 1039,607.521 1030.34,610.017L1006.97,616.759C998.316,619.255 993.278,628.377 995.774,637.03L995.911,637.504C998.407,646.157 1007.53,651.195 1016.18,648.699L1017.26,648.389Z" style="fill:rgb(255,248,122);fill-rule:nonzero;"/>
            </g>
            <g opacity="0.6">
                <path d="M1417.3,73.055C1419.8,81.71 1414.76,90.858 1406.12,93.383L1314.34,120.192C1305.69,122.718 1296.57,117.703 1294.08,109.048L1293.94,108.574C1291.44,99.919 1296.48,90.771 1305.12,88.246L1396.9,61.437C1405.55,58.911 1414.67,63.926 1417.16,72.581L1417.3,73.055Z" style="fill:rgb(64,174,248);fill-rule:nonzero;"/>
                <path d="M1277.32,114.876C1279.82,123.531 1274.78,132.655 1266.12,135.151L1263.34,135.955C1254.68,138.451 1245.56,133.412 1243.06,124.758L1242.93,124.284C1240.43,115.629 1245.47,106.505 1254.12,104.009L1256.91,103.205C1265.57,100.709 1274.69,105.748 1277.18,114.402L1277.32,114.876Z" style="fill:rgb(64,174,248);fill-rule:nonzero;"/>
                <path d="M1491.81,98.148C1494.31,106.803 1489.28,115.951 1480.63,118.477L1401.68,141.542C1393.03,144.068 1383.92,139.053 1381.42,130.399L1381.28,129.925C1378.79,121.27 1383.82,112.122 1392.47,109.596L1471.42,86.531C1480.06,84.005 1489.18,89.02 1491.68,97.674L1491.81,98.148Z" style="fill:rgb(64,174,248);fill-rule:nonzero;"/>
                <path d="M1472.58,-49.911C1463.92,-47.415 1454.81,-52.425 1452.32,-61.044C1449.84,-69.663 1440.72,-74.673 1432.07,-72.177L1371.19,-54.619C1362.54,-52.123 1353.42,-57.133 1350.93,-65.752C1348.45,-74.371 1339.33,-79.381 1330.68,-76.885L1330.2,-76.748C1321.55,-74.252 1312.43,-79.262 1309.95,-87.881C1307.46,-96.5 1298.36,-101.486 1289.71,-98.961L1197.93,-72.152C1189.28,-69.626 1184.24,-60.508 1186.73,-51.888C1189.21,-43.269 1184.19,-34.087 1175.57,-31.484L1161.01,-27.091C1152.39,-24.488 1147.37,-15.278 1149.87,-6.623L1150.01,-6.149C1152.5,2.506 1161.61,7.482 1170.24,4.908L1202.25,-4.633C1210.88,-7.206 1219.97,-2.26 1222.46,6.36C1224.95,14.979 1234.06,19.989 1242.72,17.493L1243.79,17.182C1252.45,14.686 1261.56,19.696 1264.05,28.315C1266.54,36.934 1261.49,46.029 1252.83,48.525L1229.45,55.268C1220.8,57.764 1215.76,66.888 1218.26,75.543L1218.39,76.017C1220.89,84.672 1230.01,89.698 1238.66,87.186L1437.24,29.52C1445.89,27.008 1450.93,17.872 1448.43,9.217L1448.29,8.743C1445.8,0.088 1450.84,-9.036 1459.49,-11.532L1482.87,-18.275C1491.52,-20.771 1496.56,-29.895 1494.07,-38.55L1493.93,-39.024C1491.43,-47.679 1482.31,-52.718 1473.65,-50.221L1472.58,-49.911Z" style="fill:rgb(64,174,248);fill-rule:nonzero;"/>
            </g>
        </g>
    </g>
</svg>
