<?xml version="1.0" encoding="UTF-8" standalone="no"?>
<!DOCTYPE svg PUBLIC "-//W3C//DTD SVG 1.1//EN" "http://www.w3.org/Graphics/SVG/1.1/DTD/svg11.dtd">
<svg width="100%" height="100%" viewBox="0 0 828 1400" version="1.1" xmlns="http://www.w3.org/2000/svg" xmlns:xlink="http://www.w3.org/1999/xlink" xml:space="preserve" xmlns:serif="http://www.serif.com/" style="fill-rule:evenodd;clip-rule:evenodd;stroke-miterlimit:10;">
    <g transform="matrix(1,0,0,1,-86,0)">
        <g transform="matrix(1,0,0,1,-2676.25,150.594)">
            <g id="模様など">
                <g opacity="0.6">
                    <path d="M2757.29,289.663C2781.62,285.107 2786.52,311.282 2810.85,306.726C2835.18,302.17 2830.28,275.995 2854.62,271.439C2878.95,266.883 2883.85,293.058 2908.18,288.502C2932.52,283.945 2927.62,257.771 2951.95,253.214C2976.29,248.657 2981.19,274.832 3005.52,270.275" style="fill:none;fill-rule:nonzero;stroke:white;stroke-width:10px;"/>
                </g>
                <path d="M2841.03,112.313L2888.98,139.997L2841.03,167.68L2841.03,112.313Z" style="fill:none;fill-rule:nonzero;stroke:white;stroke-opacity:0.6;stroke-width:10px;"/>
                <g opacity="0.6">
                    <path d="M2621.81,965.095C2618.49,953.59 2625.18,941.429 2636.67,938.072L2758.68,902.433C2770.18,899.076 2782.3,905.742 2785.62,917.248L2785.8,917.878C2789.12,929.383 2782.43,941.544 2770.93,944.901L2648.92,980.54C2637.43,983.897 2625.31,977.231 2621.99,965.725L2621.81,965.095Z" style="fill:rgb(255,248,122);fill-rule:nonzero;"/>
                    <path d="M2807.89,909.5C2804.57,897.994 2811.27,885.866 2822.78,882.547L2826.48,881.479C2837.99,878.161 2850.11,884.859 2853.43,896.365L2853.61,896.995C2856.93,908.501 2850.23,920.629 2838.73,923.948L2835.03,925.016C2823.52,928.334 2811.39,921.636 2808.07,910.13L2807.89,909.5Z" style="fill:rgb(255,248,122);fill-rule:nonzero;"/>
                    <path d="M2886.44,975.417C2883.12,963.912 2889.82,951.785 2901.33,948.468L2935.58,938.596C2947.09,935.28 2959.22,941.98 2962.53,953.485L2962.72,954.115C2966.03,965.62 2959.34,977.747 2947.83,981.064L2913.58,990.936C2902.07,994.252 2889.94,987.552 2886.62,976.046L2886.44,975.417Z" style="fill:rgb(255,248,122);fill-rule:nonzero;"/>
                    <path d="M2518.32,1151.54C2529.82,1148.22 2541.94,1154.88 2545.25,1166.34C2548.55,1177.8 2560.67,1184.45 2572.17,1181.14L2653.1,1157.8C2664.61,1154.48 2676.72,1161.14 2680.03,1172.6C2683.33,1184.05 2695.45,1190.71 2706.95,1187.4L2707.59,1187.21C2719.09,1183.9 2731.21,1190.56 2734.51,1202.01C2737.82,1213.47 2749.93,1220.1 2761.42,1216.74L2883.43,1181.1C2894.92,1177.75 2901.62,1165.62 2898.32,1154.17C2895.01,1142.71 2901.69,1130.5 2913.15,1127.04L2932.5,1121.2C2943.97,1117.74 2950.63,1105.5 2947.31,1093.99L2947.13,1093.36C2943.81,1081.86 2931.71,1075.24 2920.23,1078.66L2877.69,1091.35C2866.21,1094.77 2854.12,1088.19 2850.82,1076.73C2847.51,1065.27 2835.39,1058.61 2823.89,1061.93L2822.46,1062.35C2810.95,1065.66 2798.83,1059 2795.53,1047.55C2792.22,1036.09 2798.93,1024 2810.44,1020.68L2841.52,1011.71C2853.02,1008.4 2859.72,996.267 2856.4,984.761L2856.22,984.131C2852.9,972.626 2840.78,965.944 2829.28,969.283L2565.29,1045.94C2553.8,1049.28 2547.1,1061.43 2550.42,1072.93L2550.6,1073.56C2553.92,1085.07 2547.22,1097.2 2535.72,1100.52L2504.64,1109.48C2493.13,1112.8 2486.43,1124.93 2489.75,1136.43L2489.93,1137.06C2493.25,1148.57 2505.38,1155.27 2516.89,1151.95L2518.32,1151.54Z" style="fill:rgb(255,248,122);fill-rule:nonzero;"/>
                </g>
                <g opacity="0.6">
                    <path d="M3045.79,-59.284C3048.94,-48.384 3042.6,-36.864 3031.71,-33.683L2916.13,0.078C2905.24,3.259 2893.76,-3.057 2890.61,-13.957L2890.44,-14.554C2887.3,-25.454 2893.63,-36.974 2904.52,-40.155L3020.11,-73.917C3031,-77.098 3042.48,-70.782 3045.62,-59.882L3045.79,-59.284Z" style="fill:rgb(64,174,248);fill-rule:nonzero;"/>
                    <path d="M2869.51,-6.617C2872.66,4.283 2866.31,15.773 2855.41,18.916L2851.9,19.928C2841,23.072 2829.51,16.726 2826.37,5.826L2826.2,5.229C2823.05,-5.671 2829.4,-17.161 2840.3,-20.304L2843.81,-21.316C2854.71,-24.46 2866.2,-18.114 2869.34,-7.214L2869.51,-6.617Z" style="fill:rgb(64,174,248);fill-rule:nonzero;"/>
                    <path d="M3139.63,-27.683C3142.78,-16.783 3136.44,-5.263 3125.55,-2.082L3026.12,26.965C3015.24,30.146 3003.75,23.831 3000.61,12.931L3000.44,12.334C2997.29,1.434 3003.63,-10.086 3014.52,-13.267L3113.95,-42.314C3124.84,-45.495 3136.32,-39.18 3139.46,-28.28L3139.63,-27.683Z" style="fill:rgb(64,174,248);fill-rule:nonzero;"/>
                    <path d="M3115.41,-214.144C3104.51,-211 3093.03,-217.31 3089.9,-228.165C3086.77,-239.02 3075.29,-245.329 3064.39,-242.186L2987.73,-220.075C2976.83,-216.931 2965.35,-223.241 2962.22,-234.096C2959.09,-244.951 2947.61,-251.26 2936.71,-248.117L2936.11,-247.945C2925.21,-244.801 2913.73,-251.111 2910.6,-261.966C2907.47,-272.821 2896,-279.1 2885.11,-275.919L2769.53,-242.157C2758.64,-238.976 2752.29,-227.493 2755.42,-216.638C2758.55,-205.783 2752.23,-194.22 2741.37,-190.942L2723.03,-185.41C2712.18,-182.132 2705.86,-170.533 2709.01,-159.633L2709.18,-159.036C2712.32,-148.136 2723.79,-141.87 2734.66,-145.111L2774.96,-157.126C2785.83,-160.367 2797.29,-154.137 2800.42,-143.282C2803.55,-132.427 2815.03,-126.118 2825.93,-129.261L2827.29,-129.652C2838.19,-132.796 2849.67,-126.486 2852.8,-115.631C2855.93,-104.776 2849.57,-93.322 2838.67,-90.179L2809.23,-81.687C2798.33,-78.543 2791.99,-67.053 2795.13,-56.154L2795.3,-55.557C2798.44,-44.657 2809.93,-38.328 2820.82,-41.491L3070.91,-114.113C3081.8,-117.276 3088.14,-128.783 3085,-139.682L3084.83,-140.279C3081.68,-151.179 3088.03,-162.669 3098.93,-165.812L3128.37,-174.304C3139.27,-177.448 3145.62,-188.938 3142.47,-199.837L3142.3,-200.434C3139.16,-211.334 3127.67,-217.679 3116.77,-214.536L3115.41,-214.144Z" style="fill:rgb(64,174,248);fill-rule:nonzero;"/>
                </g>
            </g>
        </g>
    </g>
</svg>
