<?xml version="1.0" encoding="UTF-8" standalone="no"?>
<!DOCTYPE svg PUBLIC "-//W3C//DTD SVG 1.1//EN" "http://www.w3.org/Graphics/SVG/1.1/DTD/svg11.dtd">
<svg width="100%" height="100%" viewBox="0 0 1200 113" version="1.1" xmlns="http://www.w3.org/2000/svg" xmlns:xlink="http://www.w3.org/1999/xlink" xml:space="preserve" xmlns:serif="http://www.serif.com/" style="fill-rule:evenodd;clip-rule:evenodd;stroke-linejoin:round;stroke-miterlimit:2;">
    <g transform="matrix(0.458386,0,0,0.458386,-47.2417,-374.062)">
        <path d="M157.6,1007.6L157.6,980.3L185,980.3L185,953L212.3,953L212.3,925.7L185,925.7L185,898.4L157.7,898.4L157.7,871L212.3,871L212.3,898.3L239.6,898.3L239.6,925.6L266.9,925.6L266.9,952.9L239.6,952.9L239.6,980.2L212.3,980.2L212.3,1007.5L157.6,1007.5L157.6,1007.6Z" style="fill:rgb(147,189,59);fill-rule:nonzero;"/>
        <path d="M323.3,1034.9L323.3,843.7L377.9,843.7L377.9,925.6L432.5,925.6L432.5,843.7L487.1,843.7L487.1,1034.9L432.5,1034.9L432.5,953L377.9,953L377.9,1034.9L323.3,1034.9Z" style="fill:rgb(147,189,59);fill-rule:nonzero;"/>
        <path d="M570.9,1034.9L570.9,1007.6L543.6,1007.6L543.6,898.3L570.9,898.3L570.9,871L680.2,871L680.2,898.3L707.5,898.3L707.5,952.9L598.2,952.9L598.2,1007.5L680.1,1007.5L680.1,1034.8L570.9,1034.8L570.9,1034.9ZM652.8,925.6L652.8,898.3L598.2,898.3L598.2,925.6L652.8,925.6ZM680.1,1007.6L680.1,980.3L707.4,980.3L707.4,1007.6L680.1,1007.6Z" style="fill:rgb(147,189,59);fill-rule:nonzero;"/>
        <path d="M791.1,1034.9L791.1,1007.6L763.8,1007.6L763.8,843.7L818.4,843.7L818.4,1007.6L873,1007.6L873,1034.9L791.1,1034.9Z" style="fill:rgb(147,189,59);fill-rule:nonzero;"/>
        <path d="M956.8,1034.9L956.8,1007.6L929.5,1007.6L929.5,843.7L984.1,843.7L984.1,1007.6L1038.7,1007.6L1038.7,1034.9L956.8,1034.9Z" style="fill:rgb(147,189,59);fill-rule:nonzero;"/>
        <path d="M1122.4,1034.9L1122.4,1007.6L1095.1,1007.6L1095.1,898.3L1122.4,898.3L1122.4,871L1231.7,871L1231.7,898.3L1259,898.3L1259,1007.6L1231.7,1007.6L1231.7,1034.9L1122.4,1034.9ZM1204.4,1007.6L1204.4,898.3L1149.8,898.3L1149.8,1007.6L1204.4,1007.6Z" style="fill:rgb(147,189,59);fill-rule:nonzero;"/>
        <path d="M1315.4,1062.2L1315.4,980.3L1370,980.3L1370,1034.9L1342.7,1034.9L1342.7,1062.2L1315.4,1062.2Z" style="fill:rgb(147,189,59);fill-rule:nonzero;"/>
        <path d="M1670.5,843.7L1670.5,982L1637.5,982L1637.5,912L1610.1,912L1610.1,982L1577.1,982L1577.1,843.7L1528.2,843.7L1528.2,1007.6L1555.5,1007.6L1555.5,1034.9L1610.1,1034.9L1610.1,1007.6L1637.4,1007.6L1637.4,1034.9L1692.1,1034.9L1692.1,1007.6L1719.4,1007.6L1719.4,843.7L1670.5,843.7Z" style="fill:rgb(147,189,59);fill-rule:nonzero;"/>
        <path d="M1803.1,1034.9L1803.1,1007.6L1775.8,1007.6L1775.8,898.3L1803.1,898.3L1803.1,871L1912.4,871L1912.4,898.3L1939.7,898.3L1939.7,1007.6L1912.4,1007.6L1912.4,1034.9L1803.1,1034.9ZM1885,1007.6L1885,898.3L1830.4,898.3L1830.4,1007.6L1885,1007.6Z" style="fill:rgb(147,189,59);fill-rule:nonzero;"/>
        <path d="M1996,1034.9L1996,871L2050.6,871L2050.6,898.3L2077.9,898.3L2077.9,925.6L2050.6,925.6L2050.6,1034.9L1996,1034.9ZM2078,898.3L2078,871L2132.6,871L2132.6,898.3L2078,898.3Z" style="fill:rgb(147,189,59);fill-rule:nonzero;"/>
        <path d="M2216.3,1034.9L2216.3,1007.6L2189,1007.6L2189,843.7L2243.6,843.7L2243.6,1007.6L2298.2,1007.6L2298.2,1034.9L2216.3,1034.9Z" style="fill:rgb(147,189,59);fill-rule:nonzero;"/>
        <path d="M2382,1034.9L2382,1007.6L2354.7,1007.6L2354.7,898.3L2382,898.3L2382,871L2463.9,871L2463.9,816.4L2518.5,816.4L2518.5,1034.9L2382,1034.9ZM2463.9,1007.6L2463.9,898.3L2409.3,898.3L2409.3,1007.6L2463.9,1007.6Z" style="fill:rgb(147,189,59);fill-rule:nonzero;"/>
        <path d="M2621.5,961.4L2621.5,816.4L2666.4,816.4L2666.4,961.4L2621.5,961.4ZM2621.5,1034.9L2621.5,994.5L2666.4,994.5L2666.4,1034.9L2621.5,1034.9Z" style="fill:rgb(147,189,59);fill-rule:nonzero;"/>
    </g>
</svg>
