<?xml version="1.0" encoding="UTF-8" standalone="no"?>
<!DOCTYPE svg PUBLIC "-//W3C//DTD SVG 1.1//EN" "http://www.w3.org/Graphics/SVG/1.1/DTD/svg11.dtd">
<svg width="100%" height="100%" viewBox="0 0 900 542" version="1.1" xmlns="http://www.w3.org/2000/svg" xmlns:xlink="http://www.w3.org/1999/xlink" xml:space="preserve" xmlns:serif="http://www.serif.com/" style="fill-rule:evenodd;clip-rule:evenodd;stroke-linejoin:round;stroke-miterlimit:2;">
    <g transform="matrix(0.996529,0,0,0.996529,-158.281,-254.598)">
        <g transform="matrix(1,0,0,1,-19.3087,-55.5345)">
            <path d="M215.914,492.614L182.902,499.578C180.226,500.141 178.28,502.536 178.275,505.273L178.141,639.558C178.141,641.326 178.927,642.977 180.297,644.088C181.334,644.929 182.638,645.391 183.97,645.391C184.371,645.391 184.775,645.348 185.172,645.265L218.184,638.301C220.861,637.737 222.806,635.342 222.81,632.606L222.845,598.27C222.846,595.058 220.235,592.44 217.017,592.436C213.808,592.436 211.193,595.048 211.189,598.258L211.16,627.872L189.804,632.377L189.926,510.006L211.282,505.501L211.21,577.103C211.207,580.315 213.819,582.933 217.038,582.937C220.248,582.934 222.862,580.322 222.866,577.115L222.946,498.321C222.946,496.553 222.16,494.901 220.79,493.791C219.441,492.697 217.617,492.255 215.914,492.614Z" style="fill:white;fill-rule:nonzero;"/>
            <path d="M351.029,488.829C347.819,488.829 345.204,491.441 345.201,494.651L345.096,599.617L324.529,603.956L283.809,548.538C282.352,546.553 279.643,545.683 277.299,546.45C274.901,547.236 273.288,549.458 273.284,551.982L273.222,614.782L251.866,619.285L251.932,553.446C251.933,550.233 249.323,547.616 246.104,547.612C242.894,547.612 240.279,550.224 240.276,553.434L240.204,626.466C240.204,628.234 240.99,629.885 242.36,630.996C243.397,631.836 244.701,632.299 246.033,632.299C246.43,632.299 246.833,632.257 247.235,632.173L280.247,625.211C282.924,624.647 284.869,622.252 284.873,619.516L284.921,569.739L317.361,613.887C318.457,615.375 320.211,616.264 322.055,616.264C322.46,616.264 322.866,616.221 323.26,616.137L352.121,610.048C354.798,609.484 356.743,607.089 356.747,604.353L356.858,494.665C356.859,491.45 354.248,488.833 351.029,488.829Z" style="fill:white;fill-rule:nonzero;"/>
            <path d="M349.85,464.359L316.838,471.324C314.162,471.887 312.216,474.282 312.211,477.019L312.163,526.795L279.723,482.647C278.384,480.828 275.98,479.931 273.825,480.397L244.964,486.486C242.288,487.049 240.342,489.444 240.337,492.181L240.298,532.277C240.295,535.49 242.907,538.108 246.126,538.111C249.336,538.111 251.951,535.499 251.954,532.289L251.988,496.914L272.555,492.575L313.276,547.995C314.37,549.483 316.125,550.372 317.973,550.372C318.588,550.372 319.197,550.274 319.786,550.082C322.183,549.296 323.797,547.074 323.802,544.549L323.863,481.752L346.389,477.001C347.479,478.454 349.194,479.328 351.05,479.329C354.26,479.327 356.874,476.716 356.878,473.507L356.882,470.065C356.882,468.298 356.096,466.647 354.726,465.535C353.376,464.443 351.552,464.001 349.85,464.359Z" style="fill:white;fill-rule:nonzero;"/>
            <path d="M470.018,439.008L370.98,459.9C368.303,460.464 366.358,462.859 366.354,465.595L366.325,495.02C366.325,496.788 367.111,498.439 368.481,499.55C369.828,500.641 371.641,501.084 373.355,500.727L382.389,498.821C383.913,498.5 385.22,497.605 386.07,496.3C386.92,494.996 387.211,493.438 386.889,491.917C386.325,489.235 383.93,487.29 381.195,487.29C380.79,487.29 380.382,487.333 379.984,487.417L377.989,487.838L378.006,470.329L465.387,451.896L465.37,469.404L436.978,475.393C434.302,475.956 432.356,478.351 432.351,481.088L432.252,581.23L410.897,585.736L410.995,488.064C410.995,486.297 410.209,484.646 408.839,483.534C407.491,482.441 405.663,482 403.964,482.357L400.684,483.049C399.161,483.37 397.853,484.265 397.004,485.57C396.154,486.875 395.863,488.432 396.185,489.954C396.559,491.725 397.733,493.209 399.332,493.989L399.233,592.916C399.233,594.683 400.019,596.334 401.389,597.446C402.425,598.286 403.73,598.749 405.062,598.749C405.459,598.749 405.863,598.707 406.264,598.623L439.276,591.658C441.953,591.094 443.898,588.699 443.902,585.963L444.001,485.821L472.393,479.832C475.069,479.268 477.015,476.873 477.02,474.137L477.049,444.715C477.049,442.948 476.263,441.297 474.893,440.185C473.544,439.091 471.713,438.651 470.018,439.008Z" style="fill:white;fill-rule:nonzero;"/>
            <path d="M582.451,415.289L491.147,434.551C488.471,435.115 486.525,437.51 486.52,440.246L486.386,574.531C486.386,576.299 487.172,577.95 488.542,579.061C489.578,579.902 490.883,580.364 492.215,580.364C492.612,580.364 493.016,580.322 493.417,580.238L584.721,560.978C587.397,560.414 589.343,558.019 589.348,555.282L589.377,525.858C589.377,524.091 588.591,522.44 587.221,521.328C585.871,520.233 584.04,519.793 582.346,520.151L565.259,523.756C563.735,524.077 562.428,524.973 561.578,526.277C560.729,527.582 560.437,529.139 560.759,530.661C561.322,533.342 563.718,535.288 566.456,535.288C566.86,535.288 567.267,535.245 567.664,535.161L577.714,533.041L577.697,550.55L498.05,567.351L498.171,444.98L577.818,428.177L577.806,440.204C577.804,443.416 580.415,446.034 583.634,446.038C586.843,446.038 589.458,443.426 589.462,440.216L589.481,420.995C589.481,419.228 588.695,417.577 587.325,416.465C585.976,415.37 584.138,414.93 582.451,415.289Z" style="fill:white;fill-rule:nonzero;"/>
            <path d="M576.286,509.771C578.962,509.207 580.907,506.812 580.912,504.075L580.941,474.653C580.941,472.886 580.155,471.235 578.785,470.123C577.438,469.028 575.607,468.585 573.909,468.945L531.144,477.967L531.154,467.436L574.11,458.376C577.254,457.713 579.272,454.616 578.61,451.472C578.046,448.79 575.651,446.844 572.917,446.844C572.51,446.844 572.101,446.888 571.706,446.973L524.13,457.008C521.454,457.571 519.508,459.966 519.503,462.703L519.48,485.148C519.48,486.915 520.266,488.566 521.636,489.678C522.981,490.77 524.79,491.214 526.512,490.856L569.277,481.834L569.26,499.342L524.078,508.873C521.401,509.437 519.456,511.832 519.452,514.568L519.428,538.146C519.428,539.914 520.214,541.565 521.584,542.676C522.619,543.516 523.923,543.979 525.256,543.979C525.653,543.979 526.057,543.937 526.459,543.853L546.962,539.528C548.484,539.207 549.791,538.312 550.641,537.007C551.49,535.703 551.782,534.146 551.461,532.624C550.897,529.943 548.5,527.997 545.764,527.997C545.36,527.997 544.953,528.039 544.556,528.123L531.09,530.964L531.102,519.3L576.286,509.771Z" style="fill:white;fill-rule:nonzero;"/>
            <path d="M693.586,479.098C701.446,472.332 713.732,458.472 713.753,437.956C713.753,413.654 697.668,397.326 673.729,397.326C669.663,397.326 665.354,397.8 660.923,398.735L607.728,409.959C605.052,410.522 603.106,412.917 603.101,415.655L603.089,427.894C603.088,431.106 605.698,433.724 608.917,433.728C612.126,433.728 614.741,431.116 614.745,427.906L614.751,420.388L663.327,410.139C666.967,409.372 670.466,408.983 673.729,408.983C694.667,408.983 702.096,424.588 702.096,437.95C702.077,457.561 687.192,469.662 682.63,472.904C680.159,474.661 679.444,477.963 680.968,480.583L705.913,523.499L705.239,523.641C703.716,523.962 702.408,524.857 701.559,526.162C700.709,527.467 700.418,529.023 700.74,530.545C701.304,533.226 703.699,535.172 706.437,535.172C706.843,535.172 707.25,535.129 707.645,535.046L716.205,533.24C718.03,532.854 719.571,531.607 720.328,529.903C721.084,528.198 720.976,526.219 720.04,524.609L693.586,479.098Z" style="fill:white;fill-rule:nonzero;"/>
            <path d="M641.883,471.291C642.28,471.291 642.683,471.249 643.085,471.165L661.763,467.226C674.207,464.599 680.727,454.017 680.737,444.92C680.737,435.205 673.732,428.154 664.081,428.154C662.576,428.154 660.998,428.324 659.39,428.66L640.707,432.602C638.031,433.166 636.085,435.561 636.08,438.297L636.053,465.458C636.053,467.225 636.839,468.876 638.208,469.988C639.244,470.828 640.549,471.291 641.883,471.291ZM647.719,458.277L647.733,443.03L661.788,440.068C662.598,439.897 663.369,439.811 664.082,439.811C668.432,439.811 669.081,443.009 669.081,444.914C669.077,449.207 665.669,454.489 659.358,455.822L647.719,458.277Z" style="fill:white;fill-rule:nonzero;"/>
            <path d="M685.752,527.881C685.346,527.881 684.937,527.924 684.54,528.009L679.807,529.007L658.141,487.935C656.942,485.658 654.29,484.417 651.784,484.951L640.655,487.298C637.979,487.861 636.033,490.256 636.028,492.994L635.984,538.253L614.63,542.756L614.725,449.062C614.728,445.85 612.116,443.232 608.897,443.228C605.688,443.228 603.073,445.84 603.069,449.05L602.967,549.939C602.967,551.706 603.753,553.357 605.123,554.469C606.158,555.309 607.462,555.771 608.795,555.771C609.196,555.771 609.601,555.728 609.998,555.645L643.008,548.681C645.684,548.117 647.63,545.722 647.635,542.985L647.679,497.728L649.886,497.263L671.552,538.335C672.562,540.255 674.535,541.448 676.7,541.448C677.107,541.448 677.516,541.404 677.909,541.319L686.946,539.413C688.468,539.092 689.775,538.197 690.625,536.892C691.475,535.588 691.766,534.031 691.445,532.508C690.879,529.827 688.485,527.881 685.752,527.881Z" style="fill:white;fill-rule:nonzero;"/>
            <path d="M838.673,385.953C835.464,385.953 832.849,388.565 832.845,391.775L832.741,496.745L812.173,501.084L771.453,445.664C769.996,443.681 767.291,442.808 764.944,443.576C762.547,444.362 760.933,446.584 760.928,449.109L760.867,511.908L739.511,516.414L739.576,450.576C739.579,447.364 736.967,444.746 733.748,444.742C730.539,444.742 727.924,447.354 727.92,450.564L727.848,523.594C727.848,525.361 728.634,527.012 730.004,528.124C731.039,528.965 732.343,529.428 733.676,529.428C734.073,529.428 734.477,529.386 734.879,529.302L767.891,522.337C770.567,521.773 772.513,519.378 772.518,516.641L772.566,466.865L805.006,511.015C806.102,512.503 807.855,513.392 809.695,513.392L809.696,513.392C810.102,513.392 810.509,513.349 810.904,513.265L839.765,507.176C842.441,506.612 844.387,504.217 844.392,501.481L844.502,391.79C844.505,388.575 841.893,385.957 838.673,385.953Z" style="fill:white;fill-rule:nonzero;"/>
            <path d="M837.495,361.486L804.483,368.45C801.806,369.014 799.861,371.409 799.857,374.145L799.809,423.922L767.369,379.775C766.031,377.956 763.653,377.058 761.47,377.524L732.609,383.612C729.932,384.176 727.987,386.571 727.983,389.307L727.943,429.406C727.941,432.618 730.552,435.236 733.771,435.24C736.98,435.24 739.595,432.628 739.599,429.418L739.633,394.04L760.2,389.702L800.92,445.119C802.014,446.607 803.769,447.496 805.617,447.496C806.232,447.496 806.842,447.398 807.43,447.206C809.828,446.42 811.441,444.198 811.445,441.674L811.507,378.876L834.033,374.124C835.125,375.577 836.84,376.451 838.694,376.452C841.902,376.45 844.517,373.839 844.522,370.63L844.525,367.191C844.525,365.424 843.739,363.773 842.369,362.661C841.019,361.568 839.184,361.128 837.495,361.486Z" style="fill:white;fill-rule:nonzero;"/>
            <path d="M951.687,430.576C954.363,430.012 956.309,427.617 956.314,424.881L956.343,395.459C956.343,393.692 955.557,392.041 954.187,390.929C952.836,389.833 950.997,389.393 949.312,389.752L906.547,398.774L906.557,388.243L949.507,379.183C951.031,378.862 952.338,377.967 953.188,376.662C954.037,375.357 954.329,373.8 954.007,372.278C953.443,369.597 951.046,367.652 948.309,367.652C947.906,367.652 947.499,367.695 947.102,367.778L899.534,377.813C896.858,378.376 894.912,380.771 894.907,383.508L894.884,405.953C894.884,407.72 895.67,409.371 897.04,410.483C898.382,411.573 900.188,412.017 901.916,411.661L944.681,402.639L944.664,420.147L899.482,429.678C896.806,430.242 894.86,432.637 894.855,435.373L894.831,458.95C894.831,460.717 895.617,462.368 896.987,463.48C898.022,464.32 899.326,464.783 900.659,464.783C901.056,464.783 901.46,464.741 901.862,464.657L922.372,460.331C923.895,460.01 925.203,459.115 926.052,457.81C926.901,456.506 927.193,454.949 926.871,453.426C926.304,450.746 923.907,448.801 921.171,448.801C920.768,448.801 920.361,448.843 919.966,448.927L906.494,451.77L906.505,440.107L951.687,430.576Z" style="fill:white;fill-rule:nonzero;"/>
            <path d="M957.85,336.096L866.548,355.356C863.872,355.92 861.926,358.315 861.921,361.051L861.787,495.336C861.787,497.104 862.573,498.755 863.943,499.866C864.98,500.706 866.284,501.169 867.616,501.169C868.013,501.169 868.417,501.127 868.818,501.043L960.121,481.781C962.798,481.217 964.743,478.822 964.747,476.086L964.776,446.664C964.776,444.897 963.99,443.246 962.62,442.134C961.271,441.04 959.433,440.597 957.745,440.957L940.666,444.56C939.142,444.881 937.835,445.776 936.985,447.081C936.136,448.386 935.844,449.943 936.166,451.465C936.73,454.145 939.126,456.091 941.861,456.091C942.265,456.091 942.672,456.048 943.07,455.964L953.111,453.847L953.094,471.352L873.449,488.153L873.57,365.783L953.216,348.982L953.204,361.01C953.201,364.223 955.813,366.841 959.032,366.844C962.242,366.844 964.857,364.232 964.86,361.022L964.88,341.8C964.88,340.032 964.094,338.38 962.724,337.27C961.377,336.178 959.544,335.739 957.85,336.096Z" style="fill:white;fill-rule:nonzero;"/>
            <path d="M1079.12,312.719C1077.77,311.625 1075.94,311.183 1074.25,311.542L975.208,332.434C972.532,332.998 970.586,335.393 970.581,338.129L970.552,367.552C970.552,369.319 971.338,370.97 972.708,372.082C974.051,373.172 975.858,373.615 977.583,373.259L986.616,371.353C988.14,371.032 989.447,370.137 990.297,368.832C991.146,367.527 991.438,365.97 991.116,364.448C990.552,361.767 988.156,359.821 985.42,359.821C985.015,359.821 984.608,359.864 984.212,359.948L982.215,360.369L982.232,342.861L1069.61,324.428L1069.6,341.936L1041.2,347.925C1038.53,348.489 1036.58,350.884 1036.58,353.62L1036.48,453.762L1015.12,458.268L1015.22,360.596C1015.22,358.829 1014.44,357.178 1013.07,356.065C1011.72,354.972 1009.89,354.53 1008.19,354.889L1004.91,355.581C1003.39,355.902 1002.08,356.797 1001.23,358.102C1000.38,359.406 1000.09,360.963 1000.41,362.486C1000.79,364.256 1001.96,365.74 1003.56,366.521L1003.46,465.448C1003.46,467.215 1004.25,468.866 1005.62,469.978C1006.65,470.819 1007.96,471.282 1009.29,471.282C1009.68,471.282 1010.09,471.24 1010.49,471.156L1043.5,464.191C1046.18,463.628 1048.12,461.233 1048.13,458.496L1048.23,358.354L1076.62,352.365C1079.3,351.801 1081.24,349.406 1081.25,346.67L1081.28,317.248C1081.28,315.481 1080.49,313.83 1079.12,312.719Z" style="fill:white;fill-rule:nonzero;"/>
        </g>
        <g transform="matrix(1,0,0,1,-19.3087,-55.5345)">
            <path d="M927.83,677.237C927.478,673.067 924.557,670.921 920.525,672.134C918.882,672.626 916.997,674.178 915.708,676.112C907.33,689.693 900.155,699.215 892.375,701.549C891.486,701.816 890.237,702.002 889.095,702.128C894.54,686.538 896.774,672.45 895.735,660.237C895.186,653.77 892.732,638.727 881.835,638.727C880.538,638.727 879.149,638.947 877.707,639.379C860.603,644.51 856.983,671.406 857.958,682.888C858.854,693.426 862.813,706.664 871.232,712.681C863.656,730.112 854.347,741.584 845.645,744.195C838.211,746.424 833.924,742.507 833.082,732.623C832.081,720.838 834.586,702.455 840.738,676.425C854.259,655.435 886.699,598.853 900.807,562.501C905.209,550.455 905.123,542.515 904.881,539.659C904.189,531.527 898.536,525.847 891.133,525.847C889.643,525.847 888.109,526.08 886.572,526.542C884.871,527.052 883.299,527.909 880.962,529.599C870.926,536.864 861.273,557.574 848.684,598.851C840.281,626.656 833.739,650.177 828.099,672.865C815.463,694.704 807.212,708.557 807.108,708.736C794.039,730.243 772.166,766.239 764.462,768.56C764.452,768.552 764.19,768.342 764.074,766.972C763.328,758.19 771.376,728.762 776.239,712.001C777.777,706.644 779.155,701.073 780.488,695.686C781.909,689.945 783.25,684.522 784.725,679.526C785.471,677.314 785.724,675.801 785.596,674.304C785.39,671.87 783.655,669.251 780.334,669.251C779.609,669.251 778.828,669.375 778.01,669.62C775.257,670.446 773.436,673.231 772.658,675.538C765.958,693.426 750.269,729.556 734.522,755.762C723.777,772.77 715.27,782.311 709.241,784.12C708.995,784.194 708.772,784.231 708.579,784.231C708.28,784.231 707.37,784.231 707.156,781.719C706.413,772.966 711.017,754.907 716.102,736.695L724.492,706.54C725.429,702.946 726.434,699.968 727.15,697.84C727.99,695.796 728.13,693.647 728.094,693.219C727.844,690.275 725.825,687.145 722.576,687.145C722.07,687.145 721.552,687.224 721.034,687.379C716.664,688.69 715.534,691.92 714.337,695.34C714.164,695.835 713.986,696.343 713.79,696.874C710.054,707.516 703.319,720.622 690.549,742.098C689.913,742.708 689.335,743.401 688.829,744.159C686.986,746.923 684.929,750.278 682.752,753.83C681.284,756.223 679.729,758.76 678.073,761.391C669.114,776.325 654.119,801.321 648.003,803.156C644.384,804.238 643.508,801.875 643.006,795.971C641.783,781.575 647.193,757.267 652.055,737.668C674.708,695.711 703.19,638.016 712.235,610.417C714.586,603.923 714.704,598.165 714.39,594.477C713.841,588.026 710.534,580.492 703.015,580.492C701.805,580.492 700.517,580.694 699.187,581.093C689.572,583.977 680.65,596.28 672.663,617.676L672,619.544C668.19,630.265 656.601,662.878 639.375,733.828C631.078,749.54 624.845,760.354 622.344,764.104C622.004,764.613 621.719,765.226 621.477,765.976C602.344,797.967 582.511,827.466 550.492,837.072C544.479,838.876 538.987,839.791 534.166,839.791C516.261,839.793 506.514,827.523 504.369,802.282C502.058,775.096 511.305,735.604 528.501,699.218C547.046,659.978 570.331,633.677 592.385,627.06C594.249,626.501 596.007,626.217 597.611,626.217C606.681,626.217 609.334,635.046 609.963,642.453C611.353,658.812 604.207,682.807 590.241,693.044C587.844,694.781 586.501,697.58 586.735,700.35C587.023,703.73 589.268,706 592.32,706C592.983,706 593.674,705.893 594.375,705.683C595.316,705.401 596.058,705.178 596.721,704.6C615.532,690.582 624.898,660.16 623.086,638.846C621.606,621.423 613.275,611.43 600.23,611.43C597.323,611.43 594.172,611.933 590.865,612.926C565.215,620.621 538.588,649.678 517.811,692.646C498.66,732.251 488.374,775.802 490.966,806.303C493.645,837.839 507.762,854.508 531.788,854.508C537.898,854.508 544.701,853.397 552.009,851.205C586.309,840.914 610.909,807.684 630.467,775.622C629.231,783.994 628.94,792.176 629.604,799.993C630.368,808.999 634.545,818.623 643.973,818.623C645.444,818.623 647.012,818.376 648.633,817.89C661.94,813.898 677.892,787.057 689.542,767.457L691.062,764.881C693.799,760.239 696.167,756.224 698.293,752.904C694.489,767.68 693.067,777.694 693.697,785.093C694.105,789.909 695.229,793.221 697.27,795.553C698.767,797.047 701.263,799.035 705.65,799.035C707.31,799.035 709.132,798.741 711.086,798.155C724.263,793.776 738.879,772.545 744.555,763.615C746.965,759.753 749.814,754.887 753.211,748.825C751.123,758.832 750.25,766.059 750.616,770.349C751.228,777.556 754.834,780.632 756.941,781.83C758.094,782.458 759.901,783.292 762.287,783.292C763.395,783.292 764.556,783.112 765.738,782.757C779.417,778.653 795.059,753.403 808.647,730.057C811.888,724.469 815.232,719.451 817.674,715.786L820.667,710.636C819.395,720.345 819.044,729.16 819.653,736.322C820.936,751.42 827.7,759.734 838.697,759.734C841.206,759.734 843.951,759.292 846.856,758.421C860.344,754.375 873.725,739.261 883.619,716.918C884.224,716.957 884.827,716.977 885.432,716.977L885.433,716.977C888.223,716.977 890.99,716.553 893.891,715.684C907.27,711.671 917.376,697.663 926.288,683.147C927.164,681.833 927.992,679.144 927.83,677.237ZM871.417,679.514C870.84,672.725 872.266,655.6 879.226,653.513C879.271,653.499 879.314,653.492 879.352,653.492C880.368,653.492 881.761,657.519 882.333,664.258C883.273,675.326 880.214,687.745 877.274,697.613C873.333,692.948 871.909,685.301 871.417,679.514ZM852.064,632.263C857.245,612.89 869.599,569.563 881.715,548.355C883.648,544.935 886.151,540.925 888.366,540.261C888.529,540.212 888.703,540.187 888.884,540.187C889.943,540.187 891.25,541.017 891.451,543.356C892.84,559.722 864.583,610.629 852.064,632.263ZM666.197,682.768C671.705,661.984 677.884,639.462 684.999,621.269C691.85,603.67 697.371,596.361 700.297,595.354C700.463,595.572 700.805,596.355 700.96,598.179C701.132,600.201 700.889,603.88 699.633,607.6C694.64,622.744 682.551,649.9 666.197,682.768Z" style="fill:white;fill-rule:nonzero;"/>
        </g>
    </g>
</svg>
