<?xml version="1.0" encoding="UTF-8" standalone="no"?>
<!DOCTYPE svg PUBLIC "-//W3C//DTD SVG 1.1//EN" "http://www.w3.org/Graphics/SVG/1.1/DTD/svg11.dtd">
<svg width="100%" height="100%" viewBox="0 0 800 800" version="1.1" xmlns="http://www.w3.org/2000/svg" xmlns:xlink="http://www.w3.org/1999/xlink" xml:space="preserve" xmlns:serif="http://www.serif.com/" style="fill-rule:evenodd;clip-rule:evenodd;stroke-linejoin:round;stroke-miterlimit:2;">
    <g transform="matrix(0.415709,0,0,0.415709,-125.935,-11.1746)">
        <g>
            <path d="M1627.25,1040.88C1622.63,1036.61 1617.92,1032.46 1613.16,1028.39L1531.13,1028.39C1520.54,1019.34 1509.59,1010.77 1498.31,1002.69L1580.33,1002.69C1572.23,996.893 1563.95,991.354 1555.51,986.067C1542.81,978.118 1529.75,970.739 1516.32,963.972C1506.62,959.083 1496.73,954.498 1486.66,950.239C1481.31,947.974 1475.92,945.813 1470.51,943.746C1439.47,931.893 1407.53,923.312 1374.93,918.051L1293.23,918.051C1267.54,913.907 1241.44,911.818 1215.05,911.818C1188.65,911.818 1162.55,913.907 1136.87,918.051L1218.57,918.051C1185.97,923.312 1154.03,931.892 1122.99,943.746C1117.58,945.812 1112.2,947.973 1106.84,950.239C1096.77,954.498 1086.89,959.083 1077.18,963.972C1063.75,970.738 1050.69,978.118 1037.99,986.067C1029.55,991.354 1021.27,996.893 1013.17,1002.69L931.143,1002.69C919.861,1010.77 908.913,1019.34 898.317,1028.39L980.343,1028.39C975.576,1032.46 970.87,1036.61 966.247,1040.88L970.381,1045.01L1052.3,1045.01L1087.06,1079.78L1005.14,1079.78L1088.86,1163.49C1099.02,1154.52 1109.71,1146.27 1120.87,1138.72C1137.44,1127.52 1155.07,1117.91 1173.65,1110.01C1173.87,1109.91 1174.08,1109.82 1174.3,1109.73C1186.8,1104.44 1199.55,1100 1212.5,1096.4C1239.78,1088.82 1267.98,1084.99 1296.75,1084.99C1325.53,1084.99 1353.72,1088.82 1381,1096.4C1393.95,1100 1406.7,1104.44 1419.2,1109.73C1419.42,1109.82 1419.63,1109.91 1419.85,1110.01C1438.43,1117.91 1456.06,1127.52 1472.64,1138.72C1483.79,1146.27 1494.48,1154.52 1504.64,1163.49L1529.41,1138.72L1558.13,1110.01L1588.36,1079.78L1670.28,1079.78L1705.04,1045.01L1623.12,1045.01L1627.25,1040.88Z" style="fill:rgb(0,161,255);fill-rule:nonzero;"/>
            <path d="M1766.71,891.042L1812.05,845.699L1720.91,845.699L1729.55,837.056C1719.54,827.546 1709.3,818.338 1698.84,809.425L1789.98,809.425C1781.47,802.171 1772.81,795.118 1764.02,788.265C1756.34,782.286 1748.56,776.457 1740.67,770.786L1704.32,770.786C1696.48,765.154 1688.54,759.679 1680.5,754.353L1716.85,754.353C1710.33,750.038 1703.75,745.824 1697.1,741.712L1796.13,741.712C1788.41,736.939 1780.61,732.304 1772.71,727.807L1673.68,727.807C1647.76,713.043 1620.9,699.765 1593.17,688.035C1587.41,685.6 1581.63,683.24 1575.84,680.952C1554.04,672.35 1531.95,664.797 1509.62,658.28L1589.45,658.28C1564.1,650.883 1538.43,644.835 1512.48,640.143L1432.65,640.143C1388.08,632.083 1342.7,628.015 1296.75,628.015C1250.8,628.015 1205.42,632.083 1160.85,640.143L1240.67,640.143C1214.73,644.835 1189.05,650.884 1163.7,658.28L1083.88,658.28C1061.54,664.797 1039.46,672.35 1017.66,680.952C1011.86,683.24 1006.09,685.599 1000.33,688.033C972.596,699.763 945.743,713.042 919.822,727.806L1018.86,727.806C1010.96,732.303 1003.15,736.938 995.431,741.711L896.398,741.711C889.749,745.823 883.167,750.037 876.651,754.352L840.301,754.352C832.259,759.678 824.315,765.153 816.48,770.785L852.83,770.785C844.94,776.456 837.158,782.285 829.482,788.264C820.684,795.118 812.027,802.17 803.517,809.424L712.377,809.424C701.92,818.337 691.678,827.545 681.666,837.055L690.31,845.699L781.45,845.699L826.793,891.042L745.09,891.042L761.716,907.668L843.419,907.668L895.307,959.556C897.454,957.547 899.62,955.562 901.794,953.588C909.458,946.628 917.282,939.884 925.266,933.363C936.272,924.375 947.579,915.809 959.175,907.668L877.472,907.668C885.673,901.911 894.02,896.369 902.506,891.042L984.209,891.042C1010.74,874.39 1038.64,859.85 1067.79,847.521C1069.25,846.904 1070.71,846.304 1072.17,845.699L981.03,845.699C1021.81,828.833 1063.93,816.716 1107.02,809.424L1198.16,809.424C1230.53,803.947 1263.44,801.181 1296.75,801.181C1330.06,801.181 1362.97,803.947 1395.34,809.424L1304.2,809.424C1347.29,816.716 1389.41,828.832 1430.19,845.699L1521.33,845.699C1522.79,846.304 1524.26,846.904 1525.71,847.521C1554.87,859.85 1582.76,874.391 1609.29,891.042L1527.59,891.042C1536.07,896.369 1544.42,901.91 1552.62,907.668L1634.33,907.668C1645.92,915.808 1657.23,924.374 1668.23,933.363C1676.22,939.884 1684.04,946.629 1691.71,953.588C1693.88,955.562 1696.05,957.547 1698.19,959.556L1704.16,953.588L1750.08,907.668L1668.38,907.668L1685,891.042L1766.71,891.042Z" style="fill:rgb(0,161,255);fill-rule:nonzero;"/>
            <path d="M677.462,726.132L690.103,738.773L690.254,738.773L702.045,750.564C706.208,746.586 710.413,742.66 714.646,738.773L714.495,738.773C719.143,734.504 723.834,730.291 728.566,726.132L677.462,726.132Z" style="fill:rgb(0,161,255);fill-rule:nonzero;"/>
            <path d="M1879,738.773C1883.24,742.66 1887.44,746.585 1891.61,750.564L1916.04,726.132L1864.93,726.132C1869.66,730.291 1874.36,734.504 1879,738.773Z" style="fill:rgb(0,161,255);fill-rule:nonzero;"/>
            <path d="M1961.72,624.564L1963.05,623.233C1948.8,609.517 1934.16,596.209 1919.15,583.315L1975.04,583.315C1968.07,577.325 1961.01,571.425 1953.88,565.618C1942.45,556.308 1930.81,547.239 1918.98,538.412L2017.65,538.412C2008.63,531.683 1999.5,525.101 1990.26,518.66L1891.6,518.66C1873.44,506 1854.87,493.892 1835.89,482.385L1730.23,482.385C1718.57,475.313 1706.75,468.475 1694.79,461.854L1845.27,461.854C1819.12,447.373 1792.27,433.987 1764.8,421.752L1678.27,421.752C1657.71,412.594 1636.8,404.072 1615.56,396.233L1532.68,396.233C1503.79,385.574 1474.3,376.171 1444.28,368.065L1557.41,368.065C1540.2,363.419 1522.82,359.198 1505.27,355.424L1506.01,355.424C1435.1,340.174 1361.51,332.132 1286.04,332.132C1210.56,332.132 1136.97,340.174 1066.06,355.424L1065.32,355.424C1047.77,359.198 1030.39,363.419 1013.18,368.065L900.05,368.065C870.026,376.171 840.534,385.574 811.65,396.233L894.53,396.233C873.289,404.072 852.38,412.594 831.816,421.752L918.345,421.752C890.874,433.986 864.031,447.372 837.877,461.854L687.401,461.854C675.443,468.475 663.623,475.314 651.959,482.385L757.612,482.385C738.633,493.892 720.061,506 701.901,518.66L800.565,518.66C791.327,525.1 782.195,531.683 773.179,538.412L674.515,538.412C662.687,547.239 651.05,556.308 639.617,565.618C632.486,571.425 625.433,577.325 618.46,583.315L562.574,583.315C547.566,596.209 532.924,609.517 518.676,623.233L520.007,624.564L616.11,624.564L634.247,642.701L594.03,642.701L663.557,712.228L727.808,712.228L741.713,726.133L792.816,726.133C798.168,721.428 803.569,716.79 809.025,712.228L744.775,712.228C764.591,695.66 785.091,680.036 806.242,665.373C817.54,657.541 829.022,649.98 840.686,642.701L880.903,642.701C890.926,636.447 901.087,630.405 911.375,624.564L815.272,624.564C841.974,609.403 869.551,595.639 897.955,583.315L953.841,583.315C956.315,582.241 958.792,581.172 961.278,580.12C973.399,574.993 985.606,570.169 997.885,565.618C1026.62,554.969 1055.77,545.892 1085.28,538.412L1183.95,538.412C1218.61,529.627 1253.78,523.037 1289.34,518.66L1190.68,518.66C1225.68,514.354 1261.06,512.182 1296.75,512.182C1332.44,512.182 1367.82,514.353 1402.82,518.66L1501.49,518.66C1537.05,523.036 1572.22,529.627 1606.88,538.412L1508.22,538.412C1537.73,545.892 1566.88,554.968 1595.62,565.618C1607.9,570.169 1620.11,574.994 1632.23,580.122C1634.71,581.173 1637.19,582.242 1639.66,583.315L1583.77,583.315C1612.18,595.639 1639.76,609.403 1666.46,624.564L1751.69,624.564C1761.98,630.405 1772.14,636.447 1782.16,642.701L1752.82,642.701C1764.48,649.98 1775.96,657.54 1787.26,665.373C1808.41,680.035 1828.91,695.659 1848.73,712.228L1912.98,712.228C1918.43,716.79 1923.83,721.428 1929.18,726.133L1980.29,726.133L1994.19,712.228L1929.94,712.228L1999.47,642.701L2028.82,642.701L2046.95,624.564L1961.72,624.564Z" style="fill:rgb(0,161,255);fill-rule:nonzero;"/>
            <path d="M1419.07,1259.44L1433.55,1244.96C1425.19,1238.01 1416.38,1231.74 1407.19,1226.19L1346.14,1226.19C1334,1218.87 1321.21,1212.8 1307.91,1208.06L1390.85,1208.06C1367.98,1199.89 1343.63,1195.63 1318.63,1195.63C1293.62,1195.63 1269.28,1199.89 1246.41,1208.06L1163.47,1208.06C1150.18,1212.8 1137.38,1218.87 1125.25,1226.19L1186.31,1226.19C1177.12,1231.74 1168.3,1238.01 1159.94,1244.96L1185.01,1270.03L1250.34,1270.03L1279.06,1298.74L1213.72,1298.74L1296.75,1381.77L1379.78,1298.74L1445.11,1298.74L1473.83,1270.03L1408.49,1270.03L1419.07,1259.44Z" style="fill:rgb(0,161,255);fill-rule:nonzero;"/>
            <rect x="529.184" y="714.989" width="127.035" height="19.237" style="fill:rgb(0,161,255);"/>
            <g transform="matrix(-1,-0.0026,0.0026,-1,1881.27,2192.39)">
                <rect x="899.26" y="1082.17" width="85.589" height="25.61" style="fill:rgb(0,161,255);"/>
            </g>
            <g transform="matrix(-1,-0.0026,0.0026,-1,3677.35,1795.46)">
                <rect x="1790.07" y="887.501" width="99.544" height="15.693" style="fill:rgb(0,161,255);"/>
            </g>
            <rect x="1629.16" y="367.752" width="165.067" height="21.618" style="fill:rgb(0,161,255);"/>
        </g>
        <g>
            <path d="M1591.93,1010.55C1587.31,1006.29 1582.61,1002.13 1577.84,998.06L1495.81,998.06C1485.22,989.009 1474.27,980.441 1462.99,972.365L1545.01,972.365C1536.91,966.565 1528.63,961.026 1520.19,955.739C1507.5,947.79 1494.43,940.411 1481,933.644C1471.3,928.755 1461.41,924.17 1451.34,919.911C1445.99,917.646 1440.6,915.485 1435.19,913.418C1404.15,901.565 1372.21,892.984 1339.61,887.723L1257.91,887.723C1232.22,883.579 1206.12,881.49 1179.73,881.49C1153.33,881.49 1127.23,883.579 1101.55,887.723L1183.25,887.723C1150.65,892.984 1118.71,901.564 1087.67,913.418C1082.26,915.484 1076.88,917.645 1071.52,919.911C1061.45,924.17 1051.57,928.755 1041.87,933.644C1028.43,940.411 1015.37,947.79 1002.68,955.739C994.233,961.026 985.954,966.565 977.851,972.365L895.825,972.365C884.543,980.441 873.595,989.008 862.999,998.06L945.025,998.06C940.258,1002.13 935.552,1006.29 930.929,1010.55L935.063,1014.69L1016.98,1014.69L1051.75,1049.45L969.826,1049.45L1053.54,1133.16C1063.7,1124.19 1074.39,1115.94 1085.55,1108.39C1102.12,1097.19 1119.75,1087.59 1138.33,1079.68C1138.55,1079.59 1138.76,1079.49 1138.98,1079.4C1151.48,1074.11 1164.23,1069.67 1177.18,1066.08C1204.46,1058.5 1232.66,1054.66 1261.43,1054.66C1290.21,1054.66 1318.41,1058.5 1345.68,1066.08C1358.64,1069.67 1371.39,1074.11 1383.89,1079.4C1384.1,1079.49 1384.32,1079.59 1384.53,1079.68C1403.12,1087.59 1420.75,1097.19 1437.32,1108.39C1448.48,1115.94 1459.16,1124.19 1469.33,1133.16L1494.09,1108.39L1522.81,1079.68L1553.04,1049.45L1634.96,1049.45L1669.72,1014.69L1587.8,1014.69L1591.93,1010.55Z" style="fill:rgb(255,0,64);fill-rule:nonzero;"/>
            <path d="M1731.39,860.714L1776.73,815.371L1685.59,815.371L1694.23,806.728C1684.22,797.218 1673.98,788.01 1663.52,779.097L1754.66,779.097C1746.15,771.843 1737.5,764.79 1728.7,757.937C1721.02,751.958 1713.24,746.129 1705.35,740.458L1669,740.458C1661.16,734.826 1653.22,729.351 1645.18,724.025L1681.53,724.025C1675.01,719.71 1668.43,715.496 1661.78,711.384L1760.82,711.384C1753.1,706.611 1745.29,701.976 1737.39,697.479L1638.36,697.479C1612.44,682.716 1585.59,669.437 1557.85,657.707C1552.1,655.272 1546.32,652.912 1540.52,650.624C1518.72,642.022 1496.64,634.469 1474.3,627.952L1554.13,627.952C1528.78,620.555 1503.11,614.507 1477.16,609.815L1397.33,609.815C1352.76,601.755 1307.38,597.687 1261.43,597.687C1215.48,597.687 1170.1,601.755 1125.53,609.815L1205.36,609.815C1179.41,614.507 1153.74,620.556 1128.39,627.952L1048.56,627.952C1026.22,634.469 1004.14,642.022 982.343,650.624C976.546,652.912 970.768,655.271 965.012,657.705C937.278,669.435 910.425,682.714 884.504,697.478L983.537,697.478C975.642,701.975 967.833,706.61 960.113,711.383L861.08,711.383C854.431,715.495 847.849,719.709 841.333,724.024L804.983,724.024C796.941,729.35 788.997,734.825 781.162,740.457L817.512,740.457C809.622,746.128 801.84,751.957 794.164,757.936C785.366,764.79 776.709,771.842 768.199,779.096L677.059,779.096C666.602,788.009 656.36,797.217 646.348,806.727L654.992,815.371L746.132,815.371L791.475,860.714L709.772,860.714L726.398,877.34L808.1,877.34L859.988,929.228C862.135,927.219 864.301,925.234 866.475,923.26C874.139,916.3 881.963,909.556 889.947,903.035C900.953,894.047 912.26,885.481 923.856,877.34L842.153,877.34C850.354,871.583 858.701,866.041 867.187,860.714L948.89,860.714C975.419,844.062 1003.32,829.522 1032.47,817.193C1033.93,816.576 1035.39,815.976 1036.85,815.371L945.711,815.371C986.487,798.505 1028.61,786.388 1071.7,779.096L1162.84,779.096C1195.21,773.619 1228.13,770.853 1261.43,770.853C1294.74,770.853 1327.65,773.619 1360.02,779.096L1268.88,779.096C1311.97,786.388 1354.1,798.504 1394.87,815.371L1486.01,815.371C1487.47,815.976 1488.94,816.576 1490.39,817.193C1519.55,829.522 1547.44,844.063 1573.97,860.714L1492.27,860.714C1500.76,866.041 1509.1,871.583 1517.3,877.34L1599.01,877.34C1610.6,885.48 1621.91,894.046 1632.91,903.035C1640.9,909.556 1648.72,916.301 1656.39,923.26C1658.56,925.234 1660.73,927.219 1662.87,929.227L1668.84,923.26L1714.76,877.34L1633.06,877.34L1649.68,860.714L1731.39,860.714Z" style="fill:rgb(255,0,64);fill-rule:nonzero;"/>
            <path d="M642.143,695.804L654.784,708.445L654.935,708.445L666.726,720.236C670.889,716.257 675.094,712.332 679.327,708.445L679.176,708.445C683.824,704.176 688.515,699.963 693.247,695.804L642.143,695.804Z" style="fill:rgb(255,0,64);fill-rule:nonzero;"/>
            <path d="M1843.69,708.445C1847.92,712.333 1852.12,716.258 1856.29,720.236L1880.72,695.804L1829.62,695.804C1834.35,699.963 1839.04,704.176 1843.69,708.445Z" style="fill:rgb(255,0,64);fill-rule:nonzero;"/>
            <path d="M1926.4,594.236L1927.73,592.905C1913.49,579.189 1898.84,565.881 1883.83,552.987L1939.72,552.987C1932.75,546.997 1925.69,541.097 1918.56,535.29C1907.13,525.98 1895.49,516.911 1883.66,508.084L1982.33,508.084C1973.31,501.355 1964.18,494.773 1954.94,488.333L1856.28,488.333C1838.12,475.673 1819.55,463.565 1800.57,452.058L1694.91,452.058C1683.25,444.986 1671.43,438.148 1659.47,431.527L1809.95,431.527C1783.8,417.046 1756.95,403.66 1729.48,391.425L1642.95,391.425C1622.39,382.267 1601.48,373.745 1580.24,365.906L1497.36,365.906C1468.48,355.247 1438.98,345.844 1408.96,337.738L1522.09,337.738C1504.88,333.092 1487.5,328.871 1469.95,325.097L1470.69,325.097C1399.78,309.847 1326.19,301.805 1250.72,301.805C1175.24,301.805 1101.65,309.847 1030.74,325.097L1030,325.097C1012.45,328.871 995.069,333.092 977.862,337.738L864.731,337.738C834.707,345.844 805.215,355.247 776.331,365.906L859.211,365.906C837.97,373.745 817.061,382.267 796.497,391.425L883.026,391.425C855.555,403.659 828.712,417.045 802.558,431.527L652.082,431.527C640.124,438.148 628.304,444.987 616.64,452.058L722.293,452.058C703.314,463.565 684.742,475.673 666.582,488.333L765.246,488.333C756.008,494.773 746.876,501.356 737.859,508.084L639.195,508.084C627.367,516.911 615.73,525.98 604.297,535.29C597.166,541.097 590.113,546.997 583.14,552.987L527.254,552.987C512.246,565.881 497.604,579.189 483.356,592.905L484.687,594.236L580.79,594.236L598.927,612.373L558.71,612.373L628.237,681.9L692.488,681.9L706.393,695.805L757.496,695.805C762.848,691.1 768.249,686.462 773.705,681.9L709.455,681.9C729.271,665.332 749.771,649.707 770.922,635.045C782.22,627.213 793.702,619.652 805.366,612.373L845.583,612.373C855.606,606.119 865.767,600.077 876.055,594.236L779.952,594.236C806.654,579.075 834.231,565.311 862.635,552.987L918.521,552.987C920.995,551.913 923.472,550.844 925.958,549.792C938.079,544.665 950.286,539.841 962.565,535.29C991.298,524.641 1020.45,515.564 1049.96,508.084L1148.63,508.084C1183.29,499.299 1218.46,492.709 1254.02,488.333L1155.36,488.333C1190.36,484.027 1225.74,481.855 1261.43,481.855C1297.12,481.855 1332.5,484.026 1367.5,488.333L1466.17,488.333C1501.73,492.709 1536.9,499.3 1571.56,508.084L1472.9,508.084C1502.41,515.564 1531.56,524.641 1560.3,535.29C1572.58,539.841 1584.79,544.666 1596.91,549.794C1599.39,550.845 1601.87,551.914 1604.34,552.987L1548.45,552.987C1576.86,565.311 1604.44,579.075 1631.14,594.236L1716.37,594.236C1726.66,600.077 1736.82,606.119 1746.84,612.373L1717.5,612.373C1729.16,619.652 1740.64,627.212 1751.94,635.045C1773.09,649.707 1793.59,665.331 1813.41,681.9L1877.66,681.9C1883.11,686.462 1888.51,691.1 1893.87,695.805L1944.97,695.805L1958.87,681.9L1894.62,681.9L1964.15,612.373L1993.5,612.373L2011.63,594.236L1926.4,594.236Z" style="fill:rgb(255,0,64);fill-rule:nonzero;"/>
            <path d="M1383.76,1229.12L1398.24,1214.64C1389.88,1207.68 1381.07,1201.41 1371.88,1195.87L1310.82,1195.87C1298.68,1188.54 1285.89,1182.48 1272.59,1177.73L1355.53,1177.73C1332.66,1169.56 1308.31,1165.3 1283.31,1165.3C1258.3,1165.3 1233.96,1169.56 1211.09,1177.73L1128.15,1177.73C1114.86,1182.48 1102.06,1188.54 1089.93,1195.87L1150.99,1195.87C1141.8,1201.41 1132.99,1207.68 1124.63,1214.64L1149.69,1239.7L1215.02,1239.7L1243.74,1268.41L1178.4,1268.41L1261.43,1351.44L1344.46,1268.41L1409.79,1268.41L1438.51,1239.7L1373.17,1239.7L1383.76,1229.12Z" style="fill:rgb(255,0,64);fill-rule:nonzero;"/>
            <rect x="493.866" y="684.661" width="127.035" height="19.237" style="fill:rgb(255,0,64);"/>
            <g transform="matrix(-1,-0.0026,0.0026,-1,1810.71,2131.65)">
                <rect x="863.941" y="1051.84" width="85.589" height="25.61" style="fill:rgb(255,0,64);"/>
            </g>
            <g transform="matrix(-1,-0.0026,0.0026,-1,3606.8,1734.71)">
                <rect x="1754.75" y="857.173" width="99.544" height="15.693" style="fill:rgb(255,0,64);"/>
            </g>
            <rect x="1593.85" y="337.424" width="165.067" height="21.618" style="fill:rgb(255,0,64);"/>
        </g>
        <g>
            <path d="M1614.42,1021.13C1609.8,1016.86 1605.09,1012.71 1600.32,1008.64L1518.3,1008.64C1507.7,999.587 1496.75,991.019 1485.47,982.943L1567.5,982.943C1559.4,977.143 1551.12,971.604 1542.67,966.317C1529.98,958.368 1516.92,950.989 1503.49,944.222C1493.78,939.333 1483.9,934.748 1473.83,930.489C1468.47,928.224 1463.09,926.063 1457.68,923.996C1426.64,912.143 1394.7,903.562 1362.1,898.301L1280.39,898.301C1254.71,894.157 1228.61,892.068 1202.21,892.068C1175.82,892.068 1149.72,894.157 1124.04,898.301L1205.74,898.301C1173.13,903.562 1141.2,912.142 1110.16,923.996C1104.75,926.062 1099.36,928.223 1094.01,930.489C1083.94,934.748 1074.05,939.333 1064.35,944.222C1050.92,950.988 1037.86,958.368 1025.16,966.317C1016.72,971.604 1008.44,977.143 1000.34,982.943L918.31,982.943C907.028,991.019 896.08,999.586 885.484,1008.64L967.51,1008.64C962.743,1012.71 958.037,1016.86 953.414,1021.13L957.548,1025.26L1039.47,1025.26L1074.23,1060.03L992.311,1060.03L1076.03,1143.74C1086.19,1134.77 1096.87,1126.52 1108.03,1118.97C1124.61,1107.77 1142.23,1098.16 1160.82,1090.26C1161.03,1090.16 1161.25,1090.07 1161.46,1089.97C1173.96,1084.69 1186.71,1080.25 1199.67,1076.65C1226.94,1069.07 1255.14,1065.24 1283.92,1065.24C1312.69,1065.24 1340.89,1069.07 1368.17,1076.65C1381.12,1080.25 1393.87,1084.69 1406.37,1089.97C1406.59,1090.07 1406.8,1090.16 1407.02,1090.26C1425.6,1098.16 1443.23,1107.77 1459.8,1118.97C1470.96,1126.52 1481.65,1134.77 1491.81,1143.74L1516.58,1118.97L1545.3,1090.26L1575.53,1060.03L1657.45,1060.03L1692.21,1025.26L1610.29,1025.26L1614.42,1021.13Z" style="fill:white;fill-rule:nonzero;"/>
            <path d="M1753.87,871.291L1799.22,825.948L1708.08,825.948L1716.72,817.305C1706.71,807.795 1696.47,798.587 1686.01,789.674L1777.15,789.674C1768.64,782.42 1759.98,775.367 1751.18,768.514C1743.51,762.535 1735.73,756.706 1727.84,751.035L1691.49,751.035C1683.65,745.403 1675.71,739.928 1667.66,734.602L1704.01,734.602C1697.5,730.287 1690.92,726.073 1684.27,721.961L1783.3,721.961C1775.58,717.188 1767.77,712.553 1759.88,708.056L1660.84,708.056C1634.92,693.292 1608.07,680.014 1580.34,668.284C1574.58,665.849 1568.8,663.489 1563,661.201C1541.21,652.599 1519.12,645.046 1496.79,638.529L1576.62,638.529C1551.27,631.132 1525.59,625.084 1499.64,620.392L1419.82,620.392C1375.25,612.332 1329.86,608.264 1283.92,608.264C1237.97,608.264 1192.59,612.332 1148.02,620.392L1227.84,620.392C1201.89,625.084 1176.22,631.133 1150.87,638.529L1071.04,638.529C1048.71,645.046 1026.62,652.599 1004.83,661.201C999.031,663.489 993.253,665.848 987.497,668.282C959.763,680.012 932.91,693.291 906.989,708.055L1006.02,708.055C998.127,712.552 990.318,717.187 982.598,721.96L883.565,721.96C876.916,726.072 870.334,730.286 863.818,734.601L827.468,734.601C819.426,739.927 811.482,745.402 803.647,751.034L839.997,751.034C832.107,756.705 824.325,762.534 816.649,768.513C807.851,775.367 799.194,782.419 790.684,789.673L699.544,789.673C689.087,798.586 678.845,807.794 668.833,817.304L677.477,825.948L768.617,825.948L813.96,871.291L732.257,871.291L748.883,887.917L830.586,887.917L882.474,939.805C884.621,937.796 886.787,935.811 888.961,933.837C896.625,926.877 904.449,920.133 912.433,913.612C923.439,904.624 934.746,896.058 946.342,887.917L864.639,887.917C872.84,882.16 881.187,876.618 889.673,871.291L971.376,871.291C997.905,854.639 1025.8,840.099 1054.95,827.77C1056.41,827.153 1057.88,826.553 1059.34,825.948L968.197,825.948C1008.97,809.082 1051.1,796.965 1094.19,789.673L1185.33,789.673C1217.7,784.196 1250.61,781.43 1283.92,781.43C1317.22,781.43 1350.14,784.196 1382.51,789.673L1291.37,789.673C1334.46,796.965 1376.58,809.081 1417.36,825.948L1508.5,825.948C1509.96,826.553 1511.42,827.153 1512.88,827.77C1542.03,840.099 1569.93,854.64 1596.46,871.291L1514.76,871.291C1523.24,876.618 1531.59,882.159 1539.79,887.917L1621.49,887.917C1633.09,896.057 1644.39,904.623 1655.4,913.612C1663.39,920.133 1671.21,926.878 1678.87,933.837C1681.05,935.811 1683.21,937.796 1685.36,939.804L1737.25,887.917L1655.54,887.917L1672.17,871.291L1753.87,871.291Z" style="fill:white;fill-rule:nonzero;"/>
            <path d="M664.628,706.382L677.269,719.023L677.42,719.023L689.211,730.814C693.374,726.835 697.579,722.91 701.812,719.023L701.661,719.023C706.309,714.754 711,710.541 715.732,706.382L664.628,706.382Z" style="fill:white;fill-rule:nonzero;"/>
            <path d="M1866.17,719.022C1870.4,722.91 1874.61,726.835 1878.77,730.813L1903.2,706.381L1852.1,706.381C1856.83,710.54 1861.52,714.753 1866.17,719.022Z" style="fill:white;fill-rule:nonzero;"/>
            <path d="M1948.89,604.813L1950.22,603.482C1935.97,589.766 1921.33,576.458 1906.32,563.564L1962.2,563.564C1955.23,557.574 1948.18,551.674 1941.05,545.867C1929.62,536.557 1917.98,527.488 1906.15,518.661L2004.81,518.661C1995.8,511.932 1986.67,505.35 1977.43,498.91L1878.76,498.91C1860.61,486.25 1842.03,474.142 1823.05,462.635L1717.4,462.635C1705.74,455.563 1693.92,448.725 1681.96,442.104L1832.43,442.104C1806.28,427.623 1779.44,414.237 1751.97,402.002L1665.44,402.002C1644.87,392.844 1623.97,384.322 1602.72,376.483L1519.84,376.483C1490.96,365.824 1461.47,356.421 1431.44,348.315L1544.58,348.315C1527.37,343.669 1509.99,339.448 1492.44,335.674L1493.18,335.674C1422.27,320.424 1348.67,312.382 1273.2,312.382C1197.73,312.382 1124.14,320.424 1053.22,335.674L1052.48,335.674C1034.94,339.448 1017.55,343.669 1000.35,348.315L887.216,348.315C857.192,356.421 827.7,365.824 798.816,376.483L881.696,376.483C860.455,384.322 839.546,392.844 818.982,402.002L905.511,402.002C878.04,414.236 851.197,427.622 825.043,442.104L674.567,442.104C662.609,448.725 650.789,455.564 639.125,462.635L744.778,462.635C725.799,474.142 707.227,486.25 689.067,498.91L787.731,498.91C778.493,505.35 769.361,511.933 760.345,518.661L661.681,518.661C649.853,527.488 638.216,536.557 626.783,545.867C619.652,551.674 612.599,557.574 605.626,563.564L549.74,563.564C534.732,576.458 520.09,589.766 505.842,603.482L507.173,604.813L603.276,604.813L621.413,622.95L581.196,622.95L650.723,692.477L714.974,692.477L728.879,706.382L779.982,706.382C785.334,701.677 790.735,697.039 796.191,692.477L731.941,692.477C751.757,675.909 772.257,660.284 793.408,645.622C804.706,637.79 816.188,630.229 827.852,622.95L868.069,622.95C878.092,616.696 888.253,610.654 898.541,604.813L802.438,604.813C829.14,589.652 856.717,575.888 885.121,563.564L941.007,563.564C943.481,562.49 945.958,561.421 948.444,560.369C960.565,555.242 972.772,550.418 985.051,545.867C1013.78,535.218 1042.94,526.141 1072.45,518.661L1171.11,518.661C1205.78,509.876 1240.94,503.286 1276.51,498.91L1177.84,498.91C1212.84,494.604 1248.23,492.432 1283.92,492.432C1319.6,492.432 1354.99,494.603 1389.99,498.91L1488.65,498.91C1524.22,503.286 1559.38,509.877 1594.05,518.661L1495.38,518.661C1524.9,526.141 1554.05,535.218 1582.78,545.867C1595.06,550.418 1607.27,555.243 1619.39,560.371C1621.88,561.422 1624.35,562.491 1626.83,563.564L1570.94,563.564C1599.34,575.888 1626.92,589.652 1653.62,604.813L1738.86,604.813C1749.14,610.654 1759.31,616.696 1769.33,622.95L1739.98,622.95C1751.65,630.229 1763.13,637.789 1774.43,645.622C1795.58,660.284 1816.08,675.908 1835.89,692.477L1900.14,692.477C1905.6,697.039 1911,701.677 1916.35,706.382L1967.45,706.382L1981.36,692.477L1917.11,692.477L1986.64,622.95L2015.98,622.95L2034.12,604.813L1948.89,604.813Z" style="fill:white;fill-rule:nonzero;"/>
            <path d="M1395.66,1250.27L1420.72,1225.21C1412.36,1218.26 1403.55,1211.99 1394.36,1206.44L1333.3,1206.44C1321.17,1199.12 1308.37,1193.05 1295.08,1188.31L1378.01,1188.31C1355.14,1180.14 1330.8,1175.88 1305.79,1175.88C1280.79,1175.88 1256.44,1180.14 1233.57,1188.31L1150.64,1188.31C1137.34,1193.05 1124.55,1199.12 1112.41,1206.44L1173.47,1206.44C1164.28,1211.99 1155.47,1218.26 1147.11,1225.21L1172.17,1250.27L1237.5,1250.27L1266.22,1278.99L1200.89,1278.99L1283.91,1362.02L1366.94,1278.99L1432.28,1278.99L1460.99,1250.27L1395.66,1250.27Z" style="fill:white;fill-rule:nonzero;"/>
            <rect x="516.351" y="695.238" width="127.035" height="19.237" style="fill:white;"/>
            <g transform="matrix(-1,-0.0026,0.0026,-1,1855.65,2152.86)">
                <rect x="886.426" y="1062.42" width="85.589" height="25.61" style="fill:white;"/>
            </g>
            <g transform="matrix(-1,-0.0026,0.0026,-1,3651.74,1755.93)">
                <rect x="1777.24" y="867.75" width="99.544" height="15.693" style="fill:white;"/>
            </g>
            <rect x="1616.33" y="348.001" width="165.067" height="21.618" style="fill:white;"/>
        </g>
        <g>
            <path d="M783.577,1530.05L787.776,1498.28L676.26,1498.28L669.238,1551.41L679.889,1551.41L679.092,1557.44L673.766,1557.44L671.738,1572.78L687.715,1572.78L686.532,1581.73L691.858,1581.73L691.173,1586.91L680.522,1586.91L679.239,1596.61L663.262,1596.61L660.471,1617.73L671.122,1617.73L669.926,1626.77L659.275,1626.77L654.247,1664.81L635.949,1664.81L635.265,1669.99L653.562,1669.99L652.857,1675.32L652.717,1676.38L689.938,1676.38L696.496,1626.77L707.147,1626.77L708.343,1617.73L697.692,1617.73L699.76,1602.08L757.066,1602.08L757.789,1596.61L773.766,1596.61L775.049,1586.91L785.701,1586.91L786.385,1581.73L781.06,1581.73L782.243,1572.78L766.266,1572.78L766.592,1570.31L709.285,1570.31L710.987,1557.44L716.313,1557.44L717.11,1551.41L706.459,1551.41L709.282,1530.05L783.577,1530.05Z" style="fill:white;fill-rule:nonzero;"/>
            <path d="M932.61,1572.78C935.68,1568.01 938.033,1562.82 939.508,1557.44L944.834,1557.44C945.378,1555.45 945.802,1553.44 946.098,1551.41L935.447,1551.41C935.479,1551.19 935.517,1550.97 935.545,1550.76C937.374,1536.92 933.594,1523.48 925.176,1513.87C916.233,1503.67 902.345,1498.28 885.015,1498.28L814.658,1498.28L809.139,1540.03L798.585,1540.03L797.9,1545.21L808.453,1545.21L807.634,1551.41L818.286,1551.41L817.489,1557.44L812.163,1557.44L810.135,1572.78L826.112,1572.78L824.929,1581.73L830.255,1581.73L829.57,1586.91L818.918,1586.91L817.635,1596.61L801.658,1596.61L798.867,1617.73L809.519,1617.73L808.323,1626.77L797.672,1626.77L791.254,1675.32L791.114,1676.38L828.335,1676.38L834.892,1626.77L845.544,1626.77L846.74,1617.73L836.089,1617.73L838.007,1603.21L863.447,1603.21L867.818,1617.73L878.47,1617.73L881.196,1626.77L870.544,1626.77L885.487,1676.38L924.591,1676.38L909.491,1626.77L920.143,1626.77L917.389,1617.73L906.737,1617.73L900.31,1596.61L916.287,1596.61L915.974,1595.58C921.267,1593.45 926.199,1590.49 930.611,1586.91L941.263,1586.91C943.242,1585.3 945.115,1583.57 946.87,1581.73L941.544,1581.73C944.178,1578.97 946.541,1575.97 948.588,1572.78L932.61,1572.78ZM844.856,1551.41L847.679,1530.05L859.997,1530.05C861.235,1530.05 862.505,1530.04 863.798,1530.03C865.128,1530.02 866.482,1530.01 867.844,1530.01C877.782,1530.01 888.835,1530.52 894.225,1536.67C897.181,1540.04 898.207,1544.79 897.361,1551.19C897.351,1551.26 897.336,1551.33 897.326,1551.41L907.977,1551.41C907.662,1553.66 907.125,1555.66 906.385,1557.44L901.059,1557.44C895.724,1570.25 880.115,1571.45 865.517,1571.45L847.533,1571.44L849.384,1557.44L854.71,1557.44L855.507,1551.41L844.856,1551.41Z" style="fill:white;fill-rule:nonzero;"/>
            <path d="M1087.81,1572.78L1071.83,1572.78L1072.16,1570.31L1010.55,1570.31L1012.25,1557.44L1017.57,1557.44L1018.37,1551.41L1007.72,1551.41L1010.54,1530.05L1084.84,1530.05L1089.04,1498.28L977.521,1498.28L970.498,1551.41L981.149,1551.41L980.352,1557.44L975.026,1557.44L972.998,1572.78L988.975,1572.78L987.792,1581.73L993.118,1581.73L992.433,1586.91L981.782,1586.91L980.499,1596.61L964.522,1596.61L961.731,1617.73L972.383,1617.73L971.187,1626.77L960.535,1626.77L954.117,1675.32L953.977,1676.38L1069.8,1676.38L1074,1644.61L995.398,1644.61L997.756,1626.77L1008.41,1626.77L1009.6,1617.73L998.952,1617.73L1001.02,1602.08L1062.63,1602.08L1063.35,1596.61L1079.33,1596.61L1080.61,1586.91L1091.27,1586.91L1091.95,1581.73L1086.62,1581.73L1087.81,1572.78Z" style="fill:white;fill-rule:nonzero;"/>
            <path d="M1147.25,1626.77L1157.9,1626.77L1159.1,1617.73L1148.45,1617.73L1150.52,1602.08L1212.13,1602.08L1212.85,1596.61L1228.83,1596.61L1230.11,1586.91L1240.76,1586.91L1241.45,1581.73L1236.12,1581.73L1237.31,1572.78L1221.33,1572.78L1221.65,1570.31L1160.04,1570.31L1161.75,1557.44L1167.07,1557.44L1167.87,1551.41L1157.22,1551.41L1160.04,1530.05L1234.33,1530.05L1235.11,1524.18L1245.51,1524.18L1246.19,1519L1235.8,1519L1238.53,1498.28L1127.02,1498.28L1125.89,1506.84L1107.05,1506.84L1106.37,1512.02L1125.2,1512.02L1120,1551.41L1130.65,1551.41L1129.85,1557.44L1124.52,1557.44L1122.5,1572.78L1138.47,1572.78L1137.29,1581.73L1142.62,1581.73L1141.93,1586.91L1131.28,1586.91L1130,1596.61L1114.02,1596.61L1111.23,1617.73L1121.88,1617.73L1120.68,1626.77L1110.03,1626.77L1103.62,1675.32L1103.48,1676.38L1219.29,1676.38L1223.49,1644.61L1144.9,1644.61L1147.25,1626.77Z" style="fill:white;fill-rule:nonzero;"/>
            <path d="M1501.8,1498.28L1484.99,1551.41L1495.64,1551.41L1493.73,1557.44L1488.4,1557.44L1483.55,1572.78L1499.52,1572.78L1496.69,1581.73L1502.02,1581.73L1500.38,1586.91L1489.73,1586.91L1486.65,1596.61L1478.46,1596.61L1478.02,1586.91L1488.67,1586.91L1488.44,1581.73L1483.12,1581.73L1482.72,1572.78L1466.74,1572.78L1466.05,1557.44L1471.38,1557.44L1471.11,1551.41L1460.46,1551.41L1458.08,1498.28L1417.53,1498.28L1401.11,1551.41L1411.76,1551.41L1409.89,1557.44L1404.57,1557.44L1399.82,1572.78L1415.8,1572.78L1413.03,1581.73L1418.36,1581.73L1416.76,1586.91L1406.11,1586.91L1403.11,1596.61L1395.3,1596.61L1394.93,1586.91L1405.59,1586.91L1405.39,1581.73L1400.07,1581.73L1399.73,1572.78L1383.75,1572.78L1383.18,1557.44L1388.51,1557.44L1388.28,1551.41L1377.63,1551.41L1375.63,1498.28L1338.84,1498.28L1341.79,1535.82L1324.35,1535.82L1323.66,1541L1342.2,1541L1343.02,1551.41L1353.67,1551.41L1354.14,1557.44L1348.82,1557.44L1350.02,1572.78L1366,1572.78L1366.7,1581.73L1372.03,1581.73L1372.43,1586.91L1361.78,1586.91L1362.55,1596.61L1346.57,1596.61L1348.23,1617.73L1358.88,1617.73L1359.59,1626.77L1348.94,1626.77L1352.84,1676.38L1390.62,1676.38L1406.86,1626.77L1417.51,1626.77L1420.47,1617.73L1409.82,1617.73L1416.73,1596.61L1431.99,1596.61L1433.28,1617.73L1443.93,1617.73L1444.48,1626.77L1433.83,1626.77L1436.86,1676.38L1474.64,1676.38L1492.48,1626.77L1503.13,1626.77L1506.39,1617.73L1495.74,1617.73L1503.33,1596.61L1519.31,1596.61L1522.8,1586.91L1533.45,1586.91L1535.31,1581.73L1529.99,1581.73L1533.2,1572.78L1517.23,1572.78L1522.75,1557.44L1528.07,1557.44L1530.24,1551.41L1519.59,1551.41L1538.7,1498.28L1501.8,1498.28ZM1387.13,1596.61L1380.6,1617.73L1380.12,1617.73L1379.32,1596.61L1387.13,1596.61ZM1390.82,1619.13L1390.77,1617.73L1391.26,1617.73L1390.82,1619.13ZM1464,1617.73L1463.43,1617.73L1462.48,1596.61L1470.68,1596.61L1464,1617.73ZM1440.21,1557.44L1440.24,1557.35L1440.24,1557.44L1440.21,1557.44ZM1432.71,1596.61L1435.89,1586.91L1447.37,1586.91L1447.96,1596.61L1432.71,1596.61ZM1474.15,1619.3L1474.08,1617.73L1474.65,1617.73L1474.15,1619.3Z" style="fill:white;fill-rule:nonzero;"/>
            <path d="M1612.18,1572.78L1596.2,1572.78L1598.23,1557.44L1603.56,1557.44L1604.36,1551.41L1604.85,1547.66L1569.44,1547.66L1568.94,1551.41L1568.15,1557.44L1562.82,1557.44L1560.79,1572.78L1576.77,1572.78L1575.59,1581.73L1580.91,1581.73L1580.23,1586.91L1569.58,1586.91L1568.3,1596.61L1552.32,1596.61L1549.53,1617.73L1560.18,1617.73L1558.98,1626.77L1548.33,1626.77L1541.77,1676.38L1577.18,1676.38L1583.74,1626.77L1594.39,1626.77L1595.59,1617.73L1584.94,1617.73L1587.73,1596.61L1603.7,1596.61L1604.99,1586.91L1615.64,1586.91L1616.32,1581.73L1611,1581.73L1612.18,1572.78Z" style="fill:white;fill-rule:nonzero;"/>
            <path d="M1600.73,1498.28L1565.32,1498.28L1561,1530.95L1596.41,1530.95L1600.73,1498.28Z" style="fill:white;fill-rule:nonzero;"/>
            <path d="M1715.08,1581.73L1709.75,1581.73L1710.94,1572.78L1689.63,1572.78L1689.97,1570.25L1628.51,1570.25L1628.18,1572.78L1649.48,1572.78L1648.3,1581.73L1653.62,1581.73L1652.94,1586.91L1642.29,1586.91L1641,1596.61L1625.03,1596.61L1624.55,1600.21L1686.01,1600.21L1686.48,1596.61L1702.46,1596.61L1703.74,1586.91L1714.39,1586.91L1715.08,1581.73Z" style="fill:white;fill-rule:nonzero;"/>
            <path d="M1838.24,1572.78L1831.63,1572.78L1831.96,1570.31L1774.65,1570.31L1776.35,1557.44L1772.31,1557.44L1773.1,1551.41L1762.45,1551.41L1765.27,1530.05L1839.57,1530.05L1843.77,1498.28L1732.25,1498.28L1725.23,1551.41L1735.88,1551.41L1735.08,1557.44L1739.13,1557.44L1737.1,1572.78L1743.71,1572.78L1742.52,1581.73L1747.85,1581.73L1747.16,1586.91L1736.51,1586.91L1735.23,1596.61L1719.25,1596.61L1716.46,1617.73L1727.11,1617.73L1725.92,1626.77L1715.27,1626.77L1708.71,1676.38L1745.93,1676.38L1752.49,1626.77L1763.14,1626.77L1764.34,1617.73L1753.68,1617.73L1755.75,1602.08L1813.06,1602.08L1813.78,1596.61L1829.76,1596.61L1831.04,1586.91L1841.69,1586.91L1842.38,1581.73L1837.05,1581.73L1838.24,1572.78Z" style="fill:white;fill-rule:nonzero;"/>
            <path d="M1898.15,1525.58L1910.07,1525.58L1910.75,1520.4L1898.83,1520.4L1901.75,1498.28L1866.35,1498.28L1862.03,1530.95L1897.44,1530.95L1898.15,1525.58Z" style="fill:white;fill-rule:nonzero;"/>
            <path d="M1916.56,1566.53L1942.94,1566.53L1943.45,1561.35L1917.07,1561.35L1916.56,1566.53Z" style="fill:white;fill-rule:nonzero;"/>
            <path d="M1936.5,1549.99L1936.15,1555.17L1954.5,1555.17L1954.86,1549.99L1936.5,1549.99Z" style="fill:white;fill-rule:nonzero;"/>
            <path d="M1225.93,1612.67L1251.98,1612.67L1252.49,1607.49L1226.43,1607.49L1225.93,1612.67Z" style="fill:white;fill-rule:nonzero;"/>
            <path d="M646.912,1614.02L611.503,1614.02L610.818,1619.2L646.228,1619.2L646.912,1614.02Z" style="fill:white;fill-rule:nonzero;"/>
            <path d="M1324.18,1627.09L1342.33,1627.09L1342.68,1621.91L1324.53,1621.91L1324.18,1627.09Z" style="fill:white;fill-rule:nonzero;"/>
            <path d="M653.814,1626.11L632.879,1626.11L632.474,1631.29L653.409,1631.29L653.814,1626.11Z" style="fill:white;fill-rule:nonzero;"/>
            <path d="M1913.21,1572.78L1897.23,1572.78L1899.26,1557.44L1904.59,1557.44L1905.38,1551.41L1905.88,1547.66L1870.47,1547.66L1869.97,1551.41L1869.18,1557.44L1863.85,1557.44L1861.82,1572.78L1877.8,1572.78L1876.62,1581.73L1881.94,1581.73L1881.26,1586.91L1870.61,1586.91L1869.32,1596.61L1853.35,1596.61L1850.56,1617.73L1861.21,1617.73L1860.01,1626.77L1849.36,1626.77L1842.8,1676.38L1878.21,1676.38L1878.93,1670.92L1887.69,1670.92L1888.38,1665.75L1879.62,1665.75L1884.77,1626.77L1895.42,1626.77L1896.62,1617.73L1885.97,1617.73L1888.76,1596.61L1904.73,1596.61L1906.02,1586.91L1916.67,1586.91L1917.35,1581.73L1912.03,1581.73L1913.21,1572.78Z" style="fill:white;fill-rule:nonzero;"/>
        </g>
    </g>
</svg>
