<?xml version="1.0" encoding="UTF-8" standalone="no"?>
<!DOCTYPE svg PUBLIC "-//W3C//DTD SVG 1.1//EN" "http://www.w3.org/Graphics/SVG/1.1/DTD/svg11.dtd">
<svg width="100%" height="100%" viewBox="0 0 400 500" version="1.1" xmlns="http://www.w3.org/2000/svg" xmlns:xlink="http://www.w3.org/1999/xlink" xml:space="preserve" xmlns:serif="http://www.serif.com/" style="fill-rule:evenodd;clip-rule:evenodd;stroke-miterlimit:10;">
    <g transform="matrix(1,0,0,1,0,-5)">
        <g transform="matrix(1,0,0,1,-360,-4)">
            <path d="M685.502,40.333L729,40.333L729,88.725" style="fill:none;fill-rule:nonzero;stroke:rgb(240,194,241);stroke-width:6px;"/>
        </g>
        <g transform="matrix(1,0,0,1,-197,3)">
            <path d="M250.671,62.02L239.104,73.588L227.536,62.02" style="fill:none;fill-rule:nonzero;stroke:rgb(240,194,241);stroke-width:6px;"/>
        </g>
        <g transform="matrix(1,0,0,1,-197,3)">
            <path d="M250.671,85.257L239.104,96.825L227.536,85.257" style="fill:none;fill-rule:nonzero;stroke:rgb(240,194,241);stroke-width:6px;"/>
        </g>
        <g transform="matrix(1,0,0,1,-197,3)">
            <path d="M250.671,108.494L239.104,120.062L227.536,108.494" style="fill:none;fill-rule:nonzero;stroke:rgb(240,194,241);stroke-width:6px;"/>
        </g>
        <g transform="matrix(1,0,0,1,-197,3)">
            <path d="M250.671,131.73L239.104,143.298L227.536,131.73" style="fill:none;fill-rule:nonzero;stroke:rgb(240,194,241);stroke-width:6px;"/>
        </g>
    </g>
</svg>
