<?xml version="1.0" encoding="UTF-8" standalone="no"?>
<!DOCTYPE svg PUBLIC "-//W3C//DTD SVG 1.1//EN" "http://www.w3.org/Graphics/SVG/1.1/DTD/svg11.dtd">
<svg width="100%" height="100%" viewBox="0 0 400 500" version="1.1" xmlns="http://www.w3.org/2000/svg" xmlns:xlink="http://www.w3.org/1999/xlink" xml:space="preserve" xmlns:serif="http://www.serif.com/" style="fill-rule:evenodd;clip-rule:evenodd;stroke-miterlimit:10;">
    <g transform="matrix(1,0,0,1,0,-5)">
        <g transform="matrix(1,0,0,1,-380,16)">
            <path d="M685.502,40.333L729,40.333L729,88.725" style="fill:none;fill-rule:nonzero;stroke:rgb(158,159,159);stroke-width:6px;"/>
        </g>
        <g transform="matrix(1,0,0,1,-310,-80)">
            <path d="M638.012,461.845C645.214,461.845 645.214,469.595 652.417,469.595C659.622,469.595 659.622,461.845 666.827,461.845C674.03,461.845 674.03,469.595 681.232,469.595C688.439,469.595 688.439,461.845 695.647,461.845C702.855,461.845 702.855,469.595 710.062,469.595" style="fill:none;fill-rule:nonzero;stroke:rgb(158,159,159);stroke-width:6px;"/>
        </g>
        <g transform="matrix(1,0,0,1,-310,-80)">
            <path d="M638.012,477.554C645.214,477.554 645.214,485.304 652.417,485.304C659.622,485.304 659.622,477.554 666.827,477.554C674.03,477.554 674.03,485.304 681.232,485.304C688.439,485.304 688.439,477.554 695.647,477.554C702.855,477.554 702.855,485.304 710.062,485.304" style="fill:none;fill-rule:nonzero;stroke:rgb(158,159,159);stroke-width:6px;"/>
        </g>
        <g transform="matrix(1,0,0,1,-207,3)">
            <path d="M250.671,62.02L239.104,73.588L227.536,62.02" style="fill:none;fill-rule:nonzero;stroke:rgb(158,159,159);stroke-width:6px;"/>
        </g>
        <g transform="matrix(1,0,0,1,-207,3)">
            <path d="M250.671,85.257L239.104,96.825L227.536,85.257" style="fill:none;fill-rule:nonzero;stroke:rgb(158,159,159);stroke-width:6px;"/>
        </g>
        <g transform="matrix(1,0,0,1,-207,3)">
            <path d="M250.671,108.494L239.104,120.062L227.536,108.494" style="fill:none;fill-rule:nonzero;stroke:rgb(158,159,159);stroke-width:6px;"/>
        </g>
        <g transform="matrix(1,0,0,1,-207,3)">
            <path d="M250.671,131.73L239.104,143.298L227.536,131.73" style="fill:none;fill-rule:nonzero;stroke:rgb(158,159,159);stroke-width:6px;"/>
        </g>
    </g>
</svg>
