<?xml version="1.0" encoding="UTF-8" standalone="no"?>
<!DOCTYPE svg PUBLIC "-//W3C//DTD SVG 1.1//EN" "http://www.w3.org/Graphics/SVG/1.1/DTD/svg11.dtd">
<svg width="100%" height="100%" viewBox="0 0 800 800" version="1.1" xmlns="http://www.w3.org/2000/svg" xmlns:xlink="http://www.w3.org/1999/xlink" xml:space="preserve" xmlns:serif="http://www.serif.com/" style="fill-rule:evenodd;clip-rule:evenodd;stroke-linejoin:round;stroke-miterlimit:2;">
    <g transform="matrix(0.977768,0,0,0.977768,-94.2901,7.6393)">
        <g id="デザインエリア">
            <g>
                <path d="M135.964,575.66L147.84,575.66L147.84,540.004L160.951,540.004L160.951,529.661L122.854,529.661L122.854,540.004L135.964,540.004L135.964,575.66Z" style="fill:white;fill-rule:nonzero;"/>
                <path d="M175.593,557.93C175.593,554.968 176.052,552.857 176.959,551.655C177.802,550.536 179.191,549.991 181.204,549.991C182.889,549.991 184,550.452 184.601,551.397C185.298,552.495 185.651,554.259 185.651,556.643L185.651,575.661L196.608,575.661L196.608,555.051C196.608,553.024 196.424,551.14 196.062,549.453C195.681,547.683 195.003,546.151 194.048,544.899C193.074,543.626 191.736,542.621 190.069,541.912C188.443,541.223 186.367,540.873 183.9,540.873C182.104,540.873 180.248,541.333 178.381,542.243C177.356,542.744 176.424,543.408 175.593,544.229L175.593,529.662L164.636,529.662L164.636,575.661L175.593,575.661L175.593,557.93Z" style="fill:white;fill-rule:nonzero;"/>
                <path d="M232.688,547.093C231.304,545.204 229.514,543.68 227.367,542.562C225.211,541.441 222.665,540.873 219.801,540.873C217.246,540.873 214.879,541.337 212.767,542.253C210.658,543.165 208.813,544.437 207.285,546.029C205.756,547.623 204.562,549.534 203.737,551.71C202.916,553.87 202.499,556.231 202.499,558.727C202.499,561.303 202.904,563.702 203.702,565.858C204.507,568.033 205.669,569.935 207.157,571.51C208.653,573.095 210.5,574.33 212.645,575.183C214.77,576.03 217.178,576.458 219.802,576.458C223.601,576.458 226.899,575.573 229.603,573.827C232.348,572.057 234.4,569.113 235.702,565.077L236.178,563.602L226.124,563.602L225.887,564.414C225.676,565.136 225.04,565.869 223.999,566.592C222.916,567.343 221.644,567.708 220.108,567.708C217.971,567.708 216.339,567.176 215.256,566.126C214.348,565.247 213.776,563.841 213.548,561.938L236.235,561.938L236.305,560.885C236.475,558.324 236.258,555.835 235.659,553.487C235.053,551.106 234.053,548.956 232.688,547.093ZM219.556,549.684C221.339,549.684 222.656,550.138 223.47,551.032C224.151,551.779 224.683,552.83 225.062,554.168L213.642,554.168C213.689,553.962 213.746,553.748 213.809,553.526C213.991,552.897 214.315,552.286 214.772,551.71C215.221,551.146 215.838,550.66 216.608,550.267C217.362,549.88 218.354,549.684 219.556,549.684Z" style="fill:white;fill-rule:nonzero;"/>
                <path d="M273.311,560.258C273.311,558.92 273.445,557.666 273.71,556.531C273.959,555.462 274.379,554.518 274.96,553.726C275.528,552.951 276.263,552.354 277.205,551.9C278.476,551.289 280.242,551.082 282.294,551.301C282.819,551.357 283.28,551.423 283.664,551.499L285.012,551.767L285.012,541.461L284.201,541.223C283.405,540.99 282.659,540.871 281.984,540.871C280.771,540.871 279.584,541.054 278.454,541.415C277.34,541.771 276.277,542.28 275.297,542.926C274.402,543.516 273.591,544.225 272.88,545.034L272.88,541.729L262.353,541.729L262.353,575.659L273.31,575.659L273.31,560.258L273.311,560.258Z" style="fill:white;fill-rule:nonzero;"/>
                <path d="M305.02,576.457C308.819,576.457 312.117,575.572 314.821,573.826C317.566,572.056 319.618,569.112 320.92,565.076L321.396,563.601L311.342,563.601L311.105,564.413C310.894,565.135 310.258,565.868 309.217,566.591C308.134,567.342 306.862,567.707 305.326,567.707C303.189,567.707 301.557,567.175 300.474,566.125C299.566,565.246 298.994,563.84 298.766,561.937L321.453,561.937L321.523,560.884C321.693,558.323 321.476,555.834 320.877,553.486C320.271,551.107 319.272,548.957 317.906,547.093C316.522,545.204 314.732,543.68 312.585,542.562C310.429,541.441 307.883,540.873 305.019,540.873C302.464,540.873 300.097,541.337 297.985,542.253C295.876,543.165 294.031,544.437 292.503,546.029C290.974,547.623 289.78,549.534 288.955,551.71C288.134,553.87 287.717,556.231 287.717,558.727C287.717,561.303 288.122,563.702 288.92,565.858C289.725,568.033 290.887,569.935 292.375,571.51C293.871,573.095 295.718,574.33 297.863,575.183C299.988,576.028 302.396,576.457 305.02,576.457ZM304.775,549.684C306.558,549.684 307.875,550.138 308.689,551.032C309.37,551.779 309.902,552.83 310.281,554.168L298.861,554.168C298.908,553.962 298.965,553.748 299.028,553.526C299.21,552.897 299.534,552.286 299.991,551.71C300.44,551.146 301.057,550.66 301.827,550.267C302.582,549.88 303.574,549.684 304.775,549.684Z" style="fill:white;fill-rule:nonzero;"/>
                <path d="M344.955,575.274C346.03,574.843 346.987,574.259 347.819,573.526L347.819,586.749L358.776,586.749L358.776,541.73L348.248,541.73L348.248,543.798C347.48,543.092 346.606,542.524 345.629,542.098C343.756,541.284 341.739,540.871 339.635,540.871C337.052,540.871 334.762,541.389 332.827,542.411C330.91,543.426 329.29,544.801 328.012,546.498C326.748,548.175 325.799,550.125 325.192,552.294C324.595,554.424 324.292,556.649 324.292,558.909C324.292,562.105 324.753,564.856 325.662,567.085C326.574,569.322 327.752,571.16 329.162,572.548C330.582,573.946 332.176,574.961 333.899,575.566C337.797,576.936 341.495,576.656 344.955,575.274ZM341.656,567.707C340.438,567.707 339.427,567.472 338.649,567.007C337.84,566.526 337.204,565.898 336.704,565.087C336.185,564.246 335.811,563.277 335.594,562.208C335.365,561.083 335.249,559.911 335.249,558.726C335.249,557.505 335.374,556.319 335.621,555.201C335.856,554.133 336.248,553.163 336.787,552.319C337.307,551.506 337.964,550.874 338.794,550.388C339.595,549.921 340.62,549.684 341.84,549.684C342.978,549.684 343.912,549.927 344.694,550.425C345.509,550.946 346.14,551.604 346.625,552.433C347.133,553.305 347.513,554.307 347.752,555.412C348,556.555 348.125,557.711 348.125,558.849C348.125,560.067 348,561.252 347.753,562.373C347.517,563.441 347.136,564.39 346.62,565.19C346.122,565.962 345.487,566.564 344.679,567.029C343.895,567.479 342.878,567.707 341.656,567.707Z" style="fill:white;fill-rule:nonzero;"/>
                <path d="M383.486,575.127C384.547,574.634 385.506,573.97 386.355,573.143L386.355,575.661L396.883,575.661L396.883,541.731L385.926,541.731L385.926,559.461C385.926,562.422 385.467,564.532 384.56,565.735C383.716,566.855 382.327,567.4 380.315,567.4C378.629,567.4 377.518,566.94 376.918,565.994C376.222,564.897 375.869,563.133 375.869,560.748L375.869,541.73L364.912,541.73L364.912,562.34C364.912,564.374 365.096,566.257 365.458,567.938C365.838,569.708 366.515,571.239 367.471,572.49C368.447,573.768 369.79,574.765 371.462,575.454C373.083,576.12 375.155,576.457 377.619,576.457C379.612,576.457 381.586,576.01 383.486,575.127Z" style="fill:white;fill-rule:nonzero;"/>
                <path d="M420.075,576.457C423.874,576.457 427.172,575.572 429.876,573.826C432.621,572.056 434.673,569.112 435.975,565.076L436.451,563.601L426.397,563.601L426.16,564.413C425.949,565.135 425.313,565.868 424.272,566.591C423.189,567.342 421.917,567.707 420.381,567.707C418.244,567.707 416.612,567.175 415.529,566.125C414.621,565.246 414.049,563.84 413.821,561.937L436.508,561.937L436.578,560.884C436.748,558.323 436.531,555.834 435.932,553.486C435.326,551.107 434.327,548.957 432.961,547.093C431.577,545.204 429.787,543.68 427.64,542.562C425.484,541.441 422.938,540.873 420.074,540.873C417.519,540.873 415.152,541.337 413.04,542.253C410.931,543.165 409.086,544.437 407.558,546.029C406.029,547.623 404.835,549.534 404.01,551.71C403.189,553.87 402.772,556.231 402.772,558.727C402.772,561.303 403.177,563.702 403.975,565.858C404.78,568.033 405.942,569.935 407.43,571.51C408.926,573.095 410.773,574.33 412.918,575.183C415.043,576.028 417.451,576.457 420.075,576.457ZM419.831,549.684C421.614,549.684 422.931,550.138 423.745,551.032C424.426,551.779 424.958,552.83 425.337,554.168L413.917,554.168C413.964,553.962 414.021,553.748 414.084,553.526C414.266,552.897 414.59,552.286 415.047,551.71C415.496,551.146 416.113,550.66 416.883,550.267C417.637,549.88 418.629,549.684 419.831,549.684Z" style="fill:white;fill-rule:nonzero;"/>
                <path d="M469.966,570.177C470.904,568.596 471.38,566.64 471.38,564.363C471.38,562.702 471.041,561.266 470.373,560.097C469.722,558.958 468.852,557.993 467.784,557.227C466.759,556.492 465.577,555.894 464.272,555.453C463.033,555.033 461.748,554.672 460.459,554.381C459.225,554.093 458.011,553.825 456.817,553.578C455.687,553.345 454.669,553.078 453.79,552.786C453.014,552.527 452.389,552.197 451.93,551.804C451.61,551.531 451.467,551.209 451.467,550.763C451.467,550.386 451.543,550.105 451.692,549.928C451.907,549.672 452.163,549.482 452.474,549.347C452.836,549.189 453.251,549.084 453.704,549.035C454.24,548.978 454.736,548.949 455.179,548.949C456.54,548.949 457.726,549.206 458.703,549.712C458.989,549.86 459.859,550.312 459.996,552.192L460.073,553.238L470.619,553.238L470.517,552.016C470.339,549.877 469.773,548.063 468.837,546.623C467.912,545.201 466.731,544.044 465.325,543.183C463.951,542.341 462.376,541.737 460.64,541.384C457.273,540.704 453.579,540.716 450.191,541.351C448.44,541.68 446.836,542.26 445.423,543.077C443.957,543.924 442.761,545.097 441.869,546.56C440.967,548.041 440.51,549.929 440.51,552.171C440.51,553.761 440.852,555.141 441.527,556.271C442.182,557.372 443.059,558.296 444.132,559.019C445.153,559.708 446.332,560.27 447.633,560.689C448.863,561.085 450.143,561.435 451.453,561.73C454.488,562.37 456.875,563.013 458.548,563.642C460.421,564.347 460.421,565.204 460.421,565.527C460.421,566.065 460.31,566.481 460.082,566.798C459.811,567.174 459.481,567.468 459.072,567.695C458.621,567.946 458.109,568.133 457.547,568.252C456.107,568.559 454.839,568.477 453.651,568.171C452.99,568.001 452.402,567.738 451.905,567.391C451.423,567.053 451.04,566.63 450.733,566.097C450.447,565.601 450.302,564.976 450.302,564.241L450.302,563.113L439.731,563.113L439.776,564.284C439.864,566.596 440.405,568.565 441.385,570.137C442.35,571.687 443.605,572.952 445.113,573.897C446.59,574.823 448.291,575.491 450.168,575.883C451.989,576.265 453.881,576.458 455.791,576.458C457.646,576.458 459.503,576.276 461.312,575.916C463.175,575.544 464.861,574.884 466.322,573.954C467.814,573.004 469.04,571.734 469.966,570.177Z" style="fill:white;fill-rule:nonzero;"/>
                <path d="M478.986,567.364C478.986,569.14 479.3,570.62 479.919,571.76C480.548,572.923 481.424,573.834 482.522,574.467C483.557,575.066 484.761,575.473 486.103,575.678C487.358,575.869 488.704,575.966 490.102,575.966C490.976,575.966 491.871,575.945 492.788,575.904C493.733,575.861 494.603,575.774 495.373,575.645L496.315,575.487L496.315,566.412L494.962,566.687C494.602,566.76 494.211,566.816 493.795,566.853C493.378,566.891 492.944,566.91 492.491,566.91C490.837,566.91 490.416,566.572 490.348,566.505C490.281,566.438 489.944,566.017 489.944,564.362L489.944,549.806L496.316,549.806L496.316,541.73L489.944,541.73L489.944,532.234L478.987,532.234L478.987,541.73L473.718,541.73L473.718,549.806L478.987,549.806L478.987,567.364L478.986,567.364Z" style="fill:white;fill-rule:nonzero;"/>
                <path d="M517.058,576.457C520.856,576.457 524.154,575.572 526.859,573.826C529.604,572.056 531.656,569.112 532.959,565.076L533.435,563.601L523.38,563.601L523.143,564.413C522.932,565.135 522.297,565.867 521.254,566.591C520.172,567.342 518.9,567.707 517.363,567.707C515.226,567.707 513.594,567.175 512.511,566.125C511.603,565.246 511.03,563.84 510.803,561.937L533.49,561.937L533.56,560.884C533.73,558.325 533.513,555.837 532.915,553.486C532.309,551.108 531.31,548.958 529.944,547.093C528.559,545.204 526.769,543.68 524.622,542.562C522.467,541.441 519.922,540.873 517.057,540.873C514.501,540.873 512.134,541.337 510.022,542.253C507.913,543.165 506.068,544.437 504.541,546.029C503.013,547.623 501.818,549.534 500.992,551.71C500.171,553.87 499.755,556.231 499.755,558.727C499.755,561.304 500.16,563.704 500.958,565.857C501.762,568.033 502.924,569.934 504.412,571.511C505.909,573.095 507.755,574.33 509.9,575.183C512.025,576.028 514.434,576.457 517.058,576.457ZM516.812,549.684C518.62,549.684 519.9,550.125 520.726,551.032C521.406,551.779 521.939,552.83 522.317,554.168L510.897,554.168C510.944,553.962 511,553.748 511.064,553.526C511.247,552.897 511.571,552.286 512.028,551.71C512.476,551.146 513.093,550.66 513.864,550.267C514.619,549.88 515.611,549.684 516.812,549.684Z" style="fill:white;fill-rule:nonzero;"/>
                <path d="M562.123,573.532L562.123,575.66L572.65,575.66L572.65,529.661L561.694,529.661L561.694,543.815C560.947,543.163 560.103,542.614 559.168,542.173C557.329,541.309 555.363,540.871 553.326,540.871C550.824,540.871 548.587,541.378 546.677,542.378C544.784,543.368 543.186,544.699 541.925,546.335C540.681,547.951 539.732,549.836 539.104,551.939C538.484,554.013 538.169,556.193 538.169,558.419C538.169,560.724 538.482,562.974 539.101,565.104C539.727,567.266 540.673,569.21 541.913,570.883C543.176,572.59 544.803,573.96 546.748,574.954C548.697,575.951 550.973,576.456 553.511,576.456C555.747,576.456 557.791,576.041 559.586,575.221C560.518,574.796 561.366,574.231 562.123,573.532ZM561.655,562.18C561.436,563.274 561.07,564.257 560.567,565.102C560.088,565.906 559.464,566.529 558.66,567.008C557.883,567.472 556.872,567.707 555.654,567.707C554.524,567.707 553.559,567.464 552.785,566.985C551.972,566.484 551.285,565.815 550.745,564.996C550.188,564.153 549.777,563.174 549.523,562.084C549.258,560.95 549.124,559.8 549.124,558.665C549.124,557.441 549.25,556.255 549.497,555.139C549.731,554.07 550.114,553.109 550.636,552.283C551.133,551.494 551.779,550.874 552.609,550.388C553.41,549.921 554.434,549.684 555.655,549.684C556.867,549.684 557.865,549.917 558.621,550.376C559.423,550.866 560.056,551.482 560.558,552.261C561.072,553.059 561.442,554.001 561.658,555.06C561.887,556.19 562.003,557.381 562.003,558.604C562.001,559.827 561.885,561.031 561.655,562.18Z" style="fill:white;fill-rule:nonzero;"/>
                <path d="M641.635,557.99L641.635,529.661L629.76,529.661L629.76,557.99C629.76,560.967 629.191,563.142 628.07,564.457C626.993,565.719 624.89,566.359 621.821,566.359C620.04,566.359 618.625,566.117 617.618,565.64C616.627,565.17 615.851,564.565 615.313,563.841C614.76,563.099 614.407,562.262 614.232,561.282C614.041,560.214 613.943,559.106 613.943,557.989L613.943,529.66L602.069,529.66L602.069,557.989C602.069,564.263 603.836,569.001 607.321,572.069C610.764,575.102 615.642,576.639 621.821,576.639C627.916,576.639 632.783,575.093 636.285,572.043C639.835,568.955 641.635,564.227 641.635,557.99Z" style="fill:white;fill-rule:nonzero;"/>
                <path d="M688.376,572.017C688.165,571.19 688.01,570.308 687.916,569.392C687.815,568.428 687.745,567.482 687.706,566.58C687.665,565.635 687.624,564.811 687.581,564.095C687.496,562.952 687.335,561.792 687.102,560.645C686.857,559.441 686.459,558.318 685.919,557.307C685.366,556.271 684.642,555.359 683.764,554.596C683.428,554.305 683.059,554.04 682.659,553.804C684.264,552.826 685.506,551.586 686.362,550.099C687.539,548.055 688.135,545.62 688.135,542.859C688.135,541.047 687.808,539.326 687.163,537.745C686.516,536.161 685.564,534.745 684.335,533.537C683.113,532.338 681.629,531.381 679.923,530.692C678.223,530.008 676.298,529.662 674.202,529.662L649.487,529.662L649.487,575.661L661.361,575.661L661.361,558.568L669.852,558.568C671.939,558.568 673.423,558.994 674.262,559.831C675.141,560.711 675.735,562.186 676.026,564.213C676.265,565.934 676.448,567.761 676.568,569.644C676.698,571.67 677.052,573.452 677.621,574.937L677.898,575.662L690.524,575.662L689.203,573.866C688.843,573.372 688.564,572.751 688.376,572.017ZM661.362,539.391L670.772,539.391C672.685,539.391 674.106,539.783 674.994,540.554C675.835,541.286 676.262,542.556 676.262,544.328C676.262,546.187 675.832,547.512 674.987,548.264C674.101,549.05 672.684,549.45 670.773,549.45L661.363,549.45L661.363,539.391L661.362,539.391Z" style="fill:white;fill-rule:nonzero;"/>
                <path d="M729.979,565.317L708.658,565.317L708.658,529.661L696.784,529.661L696.784,575.66L729.979,575.66L729.979,565.317Z" style="fill:white;fill-rule:nonzero;"/>
                <path d="M775.007,557.531L779.813,575.66L790.454,575.66L801.152,541.73L789.805,541.73L784.826,560.073L780.214,541.73L769.994,541.73L765.498,560.079L760.531,541.73L748.936,541.73L759.699,575.66L770.409,575.66L775.007,557.531Z" style="fill:white;fill-rule:nonzero;"/>
                <path d="M825.179,553.29C824.741,553.649 824.107,553.936 823.294,554.139C822.368,554.37 821.29,554.546 820.09,554.662C818.818,554.784 817.496,554.952 816.163,555.16C814.82,555.371 813.472,555.658 812.154,556.014C810.748,556.393 809.475,556.974 808.373,557.739C807.231,558.531 806.29,559.599 805.575,560.913C804.854,562.238 804.489,563.914 804.489,565.894C804.489,567.687 804.801,569.269 805.42,570.598C806.045,571.939 806.927,573.067 808.041,573.948C809.135,574.814 810.422,575.459 811.866,575.864C813.264,576.259 814.79,576.458 816.399,576.458C818.461,576.458 820.508,576.153 822.487,575.552C823.857,575.135 825.119,574.503 826.257,573.665C826.353,574.079 826.469,574.49 826.603,574.892L826.861,575.662L838.536,575.662L837.452,573.934C837.232,573.584 836.933,572.871 836.758,571.454C836.601,570.197 836.521,568.863 836.521,567.489L836.521,551.009C836.521,548.852 836.015,547.071 835.015,545.714C834.053,544.407 832.8,543.374 831.289,542.641C829.841,541.94 828.223,541.462 826.478,541.221C822.915,540.734 819.448,540.735 816.026,541.417C814.172,541.787 812.478,542.42 810.988,543.297C809.455,544.199 808.176,545.409 807.191,546.891C806.184,548.399 805.606,550.297 805.471,552.535L805.399,553.73L816.324,553.73L816.421,552.709C816.552,551.331 816.979,550.362 817.69,549.829C818.467,549.247 819.6,548.951 821.057,548.951C821.769,548.951 822.444,548.999 823.062,549.092C823.586,549.172 824.047,549.328 824.427,549.556C824.77,549.762 825.037,550.045 825.247,550.424C825.455,550.798 825.565,551.382 825.566,552.162C825.597,552.862 825.36,553.141 825.179,553.29ZM825.564,560.903L825.564,562.279C825.564,562.716 825.515,563.328 825.419,564.099C825.335,564.766 825.103,565.441 824.729,566.104C824.376,566.728 823.808,567.282 823.041,567.748C822.286,568.209 821.144,568.442 819.645,568.442C819.023,568.442 818.414,568.386 817.831,568.276C817.321,568.181 816.875,568.016 816.507,567.786C816.182,567.583 815.93,567.31 815.737,566.951C815.543,566.591 815.443,566.111 815.443,565.526C815.443,564.902 815.543,564.402 815.738,564.039C815.945,563.654 816.21,563.346 816.549,563.095C816.916,562.824 817.364,562.601 817.879,562.435C818.462,562.247 819.065,562.093 819.657,561.982C820.331,561.864 821.004,561.765 821.676,561.685C822.384,561.602 823.082,561.495 823.752,561.366C824.392,561.241 825,561.086 825.564,560.903Z" style="fill:white;fill-rule:nonzero;"/>
                <path d="M869.693,573.953C871.184,573.005 872.409,571.734 873.335,570.177C874.273,568.597 874.749,566.641 874.749,564.363C874.749,562.702 874.411,561.267 873.743,560.096C873.091,558.956 872.219,557.992 871.153,557.227C870.129,556.492 868.947,555.895 867.642,555.453C866.404,555.033 865.119,554.672 863.829,554.381C862.596,554.093 861.38,553.825 860.187,553.578C859.058,553.345 858.04,553.078 857.161,552.786C856.385,552.527 855.759,552.197 855.301,551.804C854.981,551.531 854.838,551.209 854.838,550.763C854.838,550.385 854.914,550.105 855.064,549.927C855.279,549.672 855.535,549.483 855.845,549.346C856.206,549.189 856.621,549.084 857.076,549.035C857.611,548.978 858.107,548.949 858.55,548.949C859.911,548.949 861.097,549.206 862.073,549.712C862.359,549.86 863.229,550.312 863.367,552.192L863.443,553.238L873.99,553.238L873.887,552.016C873.708,549.878 873.144,548.064 872.207,546.622C871.281,545.201 870.1,544.044 868.695,543.183C867.321,542.341 865.745,541.737 864.01,541.384C860.644,540.704 856.95,540.716 853.561,541.351C851.809,541.68 850.206,542.26 848.793,543.077C847.327,543.924 846.131,545.097 845.239,546.56C844.337,548.04 843.88,549.929 843.88,552.171C843.88,553.761 844.222,555.141 844.897,556.272C845.553,557.373 846.43,558.297 847.501,559.019C848.522,559.707 849.7,560.27 851.002,560.689C852.234,561.086 853.515,561.435 854.823,561.73C857.858,562.37 860.245,563.013 861.918,563.642C863.791,564.347 863.791,565.204 863.791,565.527C863.791,566.066 863.68,566.481 863.452,566.798C863.181,567.175 862.85,567.469 862.44,567.696C861.991,567.946 861.478,568.134 860.916,568.253C859.478,568.559 858.21,568.477 857.02,568.172C856.359,568.002 855.771,567.739 855.274,567.392C854.794,567.055 854.411,566.632 854.103,566.098C853.817,565.602 853.671,564.977 853.671,564.242L853.671,563.114L843.099,563.114L843.144,564.286C843.234,566.598 843.776,568.568 844.754,570.138C845.721,571.689 846.975,572.954 848.482,573.898C849.959,574.824 851.66,575.492 853.537,575.884C855.359,576.266 857.251,576.459 859.16,576.459C861.015,576.459 862.873,576.277 864.681,575.917C866.545,575.543 868.23,574.883 869.693,573.953Z" style="fill:white;fill-rule:nonzero;"/>
                <path d="M154.222,635.363L137.597,608.642L126.285,608.642L126.285,654.642L137.547,654.642L137.547,627.985L154.11,654.642L165.484,654.642L165.484,608.642L154.222,608.642L154.222,635.363Z" style="fill:white;fill-rule:nonzero;"/>
                <path d="M201.245,624.753C199.709,623.197 197.836,621.977 195.678,621.126C193.532,620.281 191.116,619.854 188.495,619.854C185.872,619.854 183.464,620.283 181.338,621.127C179.201,621.979 177.339,623.198 175.806,624.754C174.271,626.31 173.073,628.215 172.245,630.417C171.425,632.597 171.009,635.049 171.009,637.707C171.009,640.366 171.426,642.81 172.246,644.969C173.074,647.151 174.272,649.045 175.806,650.599C177.342,652.158 179.206,653.369 181.348,654.198C183.472,655.021 185.876,655.438 188.495,655.438C191.112,655.438 193.525,655.022 195.669,654.2C197.831,653.371 199.707,652.159 201.245,650.599C202.779,649.044 203.976,647.15 204.805,644.969C205.626,642.807 206.043,640.364 206.043,637.707C206.043,635.052 205.627,632.6 204.807,630.417C203.977,628.216 202.779,626.311 201.245,624.753ZM191.641,645.979C190.818,646.449 189.76,646.688 188.495,646.688C187.233,646.688 186.187,646.451 185.387,645.984C184.561,645.503 183.918,644.876 183.42,644.067C182.901,643.228 182.528,642.26 182.31,641.189C182.081,640.064 181.965,638.893 181.965,637.708C181.965,636.523 182.081,635.339 182.311,634.192C182.528,633.106 182.899,632.142 183.415,631.325C183.916,630.529 184.566,629.897 185.403,629.391C186.2,628.91 187.24,628.665 188.495,628.665C189.753,628.665 190.807,628.911 191.626,629.395C192.479,629.9 193.136,630.531 193.636,631.324C194.153,632.144 194.524,633.108 194.74,634.191C194.969,635.337 195.086,636.521 195.086,637.707C195.086,638.893 194.97,640.063 194.741,641.188C194.524,642.255 194.15,643.224 193.631,644.067C193.134,644.872 192.483,645.497 191.641,645.979Z" style="fill:white;fill-rule:nonzero;"/>
                <path d="M225.158,611.215L214.2,611.215L214.2,620.711L208.931,620.711L208.931,628.787L214.2,628.787L214.2,646.346C214.2,648.12 214.514,649.6 215.133,650.742C215.762,651.904 216.637,652.814 217.736,653.448C218.773,654.048 219.978,654.455 221.317,654.659C222.572,654.85 223.918,654.947 225.316,654.947C226.19,654.947 227.085,654.926 228.002,654.885C228.939,654.842 229.808,654.755 230.586,654.626L231.53,654.469L231.53,645.397L230.179,645.668C229.81,645.742 229.418,645.798 229.012,645.834C228.595,645.872 228.16,645.892 227.705,645.892C226.051,645.892 225.63,645.554 225.562,645.487C225.495,645.42 225.158,644.999 225.158,643.344L225.158,628.787L231.53,628.787L231.53,620.711L225.158,620.711L225.158,611.215Z" style="fill:white;fill-rule:nonzero;"/>
                <path d="M258.74,654.642L270.616,654.642L270.616,636.568L288.934,636.568L288.934,626.838L270.616,626.838L270.616,618.984L291.752,618.984L291.752,608.642L258.74,608.642L258.74,654.642Z" style="fill:white;fill-rule:nonzero;"/>
                <path d="M324.632,624.753C323.096,623.197 321.223,621.977 319.065,621.126C316.919,620.281 314.503,619.854 311.882,619.854C309.259,619.854 306.851,620.283 304.725,621.127C302.588,621.979 300.726,623.198 299.193,624.754C297.658,626.31 296.46,628.215 295.632,630.417C294.812,632.597 294.396,635.049 294.396,637.707C294.396,640.366 294.813,642.81 295.633,644.969C296.461,647.151 297.659,649.045 299.193,650.599C300.729,652.158 302.593,653.369 304.735,654.198C306.859,655.021 309.263,655.438 311.882,655.438C314.499,655.438 316.912,655.022 319.056,654.2C321.218,653.371 323.094,652.159 324.632,650.599C326.166,649.044 327.363,647.15 328.192,644.969C329.013,642.807 329.43,640.364 329.43,637.707C329.43,635.052 329.014,632.6 328.194,630.417C327.364,628.216 326.166,626.311 324.632,624.753ZM315.028,645.979C314.205,646.449 313.147,646.688 311.882,646.688C310.62,646.688 309.574,646.451 308.774,645.984C307.948,645.503 307.305,644.876 306.807,644.067C306.288,643.228 305.915,642.26 305.697,641.189C305.468,640.064 305.352,638.893 305.352,637.708C305.352,636.523 305.468,635.339 305.698,634.192C305.915,633.106 306.286,632.142 306.802,631.325C307.303,630.529 307.953,629.897 308.79,629.391C309.587,628.91 310.627,628.665 311.882,628.665C313.14,628.665 314.194,628.911 315.013,629.395C315.866,629.9 316.523,630.531 317.023,631.324C317.54,632.144 317.911,633.108 318.127,634.191C318.356,635.337 318.473,636.521 318.473,637.707C318.473,638.893 318.357,640.063 318.128,641.188C317.911,642.255 317.537,643.224 317.018,644.067C316.521,644.872 315.871,645.497 315.028,645.979Z" style="fill:white;fill-rule:nonzero;"/>
                <path d="M355.049,638.442C355.049,641.402 354.59,643.512 353.683,644.715C352.838,645.836 351.45,646.381 349.438,646.381C347.752,646.381 346.641,645.92 346.04,644.973C345.344,643.878 344.991,642.114 344.991,639.728L344.991,620.71L334.034,620.71L334.034,641.32C334.034,643.354 334.218,645.238 334.58,646.919C334.96,648.688 335.637,650.219 336.593,651.471C337.57,652.75 338.912,653.747 340.584,654.434C342.203,655.1 344.275,655.437 346.742,655.437C348.737,655.437 350.711,654.99 352.609,654.108C353.67,653.614 354.629,652.95 355.477,652.124L355.477,654.642L366.005,654.642L366.005,620.711L355.048,620.711L355.048,638.442L355.049,638.442Z" style="fill:white;fill-rule:nonzero;"/>
                <path d="M402.838,623.881C401.865,622.607 400.526,621.601 398.859,620.892C397.234,620.203 395.159,619.854 392.69,619.854C390.691,619.854 388.714,620.313 386.813,621.219C385.756,621.723 384.801,622.394 383.955,623.223L383.955,620.711L373.428,620.711L373.428,654.642L384.385,654.642L384.385,636.91C384.385,633.949 384.844,631.838 385.751,630.636C386.595,629.516 387.983,628.971 389.996,628.971C391.681,628.971 392.792,629.432 393.393,630.377C394.09,631.476 394.443,633.241 394.443,635.624L394.443,654.642L405.4,654.642L405.4,634.032C405.4,632.005 405.216,630.121 404.854,628.432C404.471,626.663 403.793,625.132 402.838,623.881Z" style="fill:white;fill-rule:nonzero;"/>
                <path d="M434.999,622.798C434.252,622.145 433.408,621.595 432.471,621.154C430.632,620.291 428.667,619.853 426.631,619.853C424.129,619.853 421.891,620.36 419.982,621.359C418.089,622.349 416.491,623.68 415.231,625.316C413.987,626.932 413.037,628.817 412.409,630.92C411.788,632.997 411.473,635.177 411.473,637.4C411.473,639.703 411.787,641.953 412.406,644.086C413.032,646.246 413.978,648.191 415.218,649.866C416.482,651.573 418.109,652.942 420.053,653.936C422.001,654.932 424.276,655.437 426.816,655.437C429.051,655.437 431.095,655.022 432.89,654.203C433.824,653.776 434.672,653.211 435.429,652.513L435.429,654.642L445.957,654.642L445.957,608.642L435,608.642L435,622.798L434.999,622.798ZM433.861,631.241C434.374,632.039 434.744,632.981 434.96,634.041C435.189,635.167 435.305,636.358 435.305,637.584C435.305,638.811 435.189,640.015 434.959,641.161C434.74,642.255 434.374,643.238 433.871,644.082C433.392,644.887 432.768,645.511 431.965,645.989C431.188,646.452 430.176,646.687 428.959,646.687C427.829,646.687 426.864,646.445 426.09,645.966C425.276,645.465 424.59,644.795 424.05,643.977C423.493,643.134 423.082,642.154 422.828,641.064C422.563,639.93 422.429,638.781 422.429,637.645C422.429,636.424 422.554,635.238 422.801,634.12C423.037,633.05 423.42,632.088 423.94,631.263C424.431,630.485 425.094,629.847 425.912,629.369C426.714,628.902 427.739,628.665 428.959,628.665C430.171,628.665 431.169,628.898 431.925,629.358C432.724,629.845 433.357,630.462 433.861,631.241Z" style="fill:white;fill-rule:nonzero;"/>
                <path d="M495.316,624.753C493.78,623.197 491.907,621.977 489.749,621.126C487.603,620.281 485.187,619.854 482.566,619.854C479.943,619.854 477.535,620.283 475.409,621.127C473.272,621.979 471.41,623.198 469.877,624.754C468.342,626.31 467.144,628.215 466.316,630.417C465.496,632.597 465.08,635.049 465.08,637.707C465.08,640.366 465.497,642.81 466.317,644.969C467.145,647.151 468.343,649.045 469.877,650.599C471.413,652.158 473.277,653.369 475.419,654.198C477.543,655.021 479.947,655.438 482.566,655.438C485.183,655.438 487.596,655.022 489.74,654.2C491.902,653.371 493.778,652.159 495.316,650.599C496.85,649.044 498.047,647.15 498.876,644.969C499.697,642.807 500.114,640.364 500.114,637.707C500.114,635.052 499.698,632.6 498.878,630.417C498.048,628.216 496.85,626.311 495.316,624.753ZM485.712,645.979C484.889,646.449 483.831,646.688 482.566,646.688C481.304,646.688 480.258,646.451 479.458,645.984C478.632,645.503 477.989,644.876 477.491,644.067C476.972,643.228 476.599,642.26 476.381,641.189C476.152,640.064 476.036,638.893 476.036,637.708C476.036,636.523 476.152,635.339 476.382,634.192C476.599,633.106 476.97,632.142 477.486,631.325C477.987,630.529 478.637,629.897 479.474,629.391C480.271,628.91 481.311,628.665 482.566,628.665C483.824,628.665 484.878,628.911 485.697,629.395C486.55,629.9 487.207,630.531 487.707,631.324C488.224,632.144 488.595,633.108 488.811,634.191C489.04,635.337 489.157,636.521 489.157,637.707C489.157,638.893 489.041,640.063 488.812,641.188C488.595,642.255 488.221,643.224 487.702,644.067C487.205,644.872 486.555,645.497 485.712,645.979Z" style="fill:white;fill-rule:nonzero;"/>
                <path d="M534.129,623.881C533.156,622.607 531.817,621.601 530.15,620.892C528.526,620.203 526.451,619.854 523.982,619.854C521.983,619.854 520.006,620.313 518.105,621.219C517.047,621.723 516.092,622.393 515.246,623.223L515.246,620.711L504.72,620.711L504.72,654.642L515.675,654.642L515.675,636.91C515.675,633.949 516.135,631.838 517.041,630.637C517.886,629.516 519.274,628.971 521.286,628.971C522.971,628.971 524.082,629.432 524.683,630.377C525.379,631.475 525.733,633.24 525.733,635.624L525.733,654.642L536.689,654.642L536.689,634.032C536.689,632.008 536.506,630.125 536.144,628.432C535.762,626.664 535.084,625.133 534.129,623.881Z" style="fill:white;fill-rule:nonzero;"/>
                <path d="M570.751,611.215L559.796,611.215L559.796,620.711L554.526,620.711L554.526,628.787L559.796,628.787L559.796,646.346C559.796,648.122 560.109,649.601 560.728,650.742C561.356,651.904 562.232,652.814 563.331,653.448C564.367,654.048 565.572,654.455 566.912,654.659C568.167,654.85 569.512,654.947 570.911,654.947C571.785,654.947 572.68,654.926 573.597,654.885C574.534,654.842 575.403,654.755 576.181,654.626L577.124,654.469L577.124,645.397L575.774,645.668C575.404,645.742 575.011,645.798 574.606,645.834C574.189,645.872 573.753,645.892 573.299,645.892C571.645,645.892 571.224,645.554 571.156,645.487C571.088,645.42 570.751,644.999 570.751,643.344L570.751,628.787L577.123,628.787L577.123,620.711L570.751,620.711L570.751,611.215Z" style="fill:white;fill-rule:nonzero;"/>
                <path d="M612.118,623.881C611.145,622.607 609.806,621.601 608.139,620.892C606.515,620.203 604.44,619.854 601.971,619.854C600.172,619.854 598.316,620.315 596.451,621.224C595.426,621.725 594.494,622.389 593.663,623.21L593.663,608.642L582.708,608.642L582.708,654.642L593.663,654.642L593.663,636.91C593.663,633.949 594.123,631.838 595.029,630.637C595.874,629.516 597.262,628.971 599.274,628.971C600.959,628.971 602.07,629.432 602.671,630.377C603.367,631.475 603.721,633.239 603.721,635.624L603.721,654.642L614.677,654.642L614.677,634.032C614.677,632.008 614.494,630.125 614.132,628.432C613.751,626.664 613.073,625.133 612.118,623.881Z" style="fill:white;fill-rule:nonzero;"/>
                <rect x="620.509" y="608.642" width="10.955" height="9.424" style="fill:white;"/>
                <rect x="620.509" y="620.711" width="10.955" height="33.931" style="fill:white;"/>
                <path d="M664.996,636.208C663.973,635.474 662.791,634.876 661.484,634.432C660.244,634.013 658.959,633.652 657.672,633.362C656.439,633.074 655.223,632.805 654.03,632.558C652.893,632.324 651.875,632.057 651.003,631.766C650.228,631.507 649.603,631.178 649.145,630.785C648.825,630.512 648.681,630.189 648.681,629.743C648.681,629.365 648.757,629.085 648.907,628.907C649.122,628.652 649.377,628.463 649.688,628.327C650.049,628.17 650.464,628.065 650.921,628.016C653.031,627.788 654.616,628.02 655.916,628.692C656.202,628.84 657.072,629.292 657.21,631.172L657.286,632.218L667.833,632.218L667.73,630.996C667.551,628.857 666.987,627.044 666.05,625.604C665.125,624.183 663.945,623.025 662.538,622.164C661.164,621.322 659.588,620.718 657.854,620.366C654.504,619.685 650.804,619.695 647.404,620.331C645.652,620.66 644.049,621.24 642.635,622.057C641.169,622.906 639.974,624.078 639.082,625.541C638.18,627.021 637.723,628.909 637.723,631.151C637.723,632.742 638.065,634.121 638.739,635.251C639.395,636.352 640.272,637.276 641.344,637.999C642.365,638.687 643.542,639.25 644.845,639.669C646.084,640.068 647.365,640.418 648.666,640.711C651.693,641.348 654.081,641.991 655.76,642.622C657.634,643.328 657.634,644.185 657.634,644.508C657.634,645.046 657.523,645.462 657.296,645.778C657.023,646.157 656.692,646.45 656.283,646.676C655.835,646.926 655.321,647.114 654.759,647.234C653.332,647.537 652.057,647.459 650.863,647.151C650.204,646.983 649.617,646.72 649.117,646.371C648.638,646.036 648.255,645.613 647.947,645.078C647.657,644.575 647.515,643.968 647.515,643.222L647.515,642.094L636.943,642.094L636.988,643.266C637.078,645.579 637.62,647.549 638.598,649.119C639.564,650.668 640.818,651.933 642.326,652.879C643.801,653.803 645.501,654.471 647.381,654.865C649.205,655.246 651.097,655.439 653.004,655.439C654.865,655.439 656.723,655.257 658.525,654.897C660.39,654.525 662.076,653.865 663.536,652.935C665.027,651.987 666.252,650.716 667.178,649.159C668.116,647.58 668.592,645.624 668.592,643.346C668.592,641.685 668.254,640.249 667.585,639.077C666.933,637.937 666.062,636.972 664.996,636.208Z" style="fill:white;fill-rule:nonzero;"/>
                <path d="M718.604,636.208C717.581,635.474 716.399,634.876 715.092,634.432C713.852,634.013 712.567,633.652 711.28,633.362C710.047,633.074 708.831,632.805 707.638,632.558C706.501,632.324 705.483,632.057 704.611,631.766C703.836,631.507 703.211,631.178 702.753,630.785C702.433,630.512 702.289,630.189 702.289,629.743C702.289,629.365 702.365,629.085 702.515,628.907C702.73,628.652 702.985,628.463 703.296,628.327C703.657,628.17 704.072,628.065 704.529,628.016C706.639,627.788 708.223,628.02 709.524,628.692C709.81,628.84 710.68,629.292 710.818,631.172L710.894,632.218L721.441,632.218L721.338,630.996C721.159,628.857 720.595,627.044 719.658,625.604C718.733,624.183 717.553,623.025 716.146,622.164C714.772,621.322 713.196,620.718 711.462,620.366C708.111,619.685 704.411,619.695 701.012,620.331C699.26,620.66 697.657,621.24 696.243,622.057C694.777,622.906 693.582,624.078 692.69,625.541C691.788,627.021 691.331,628.909 691.331,631.151C691.331,632.742 691.673,634.121 692.347,635.251C693.003,636.352 693.88,637.276 694.952,637.999C695.973,638.687 697.15,639.25 698.453,639.669C699.692,640.068 700.973,640.418 702.274,640.711C705.301,641.348 707.689,641.991 709.368,642.622C711.242,643.328 711.242,644.185 711.242,644.508C711.242,645.046 711.131,645.462 710.904,645.778C710.631,646.157 710.3,646.45 709.891,646.676C709.443,646.926 708.929,647.114 708.367,647.234C706.941,647.537 705.665,647.459 704.471,647.151C703.812,646.983 703.225,646.72 702.725,646.371C702.246,646.036 701.863,645.613 701.555,645.078C701.265,644.575 701.123,643.968 701.123,643.222L701.123,642.094L690.551,642.094L690.596,643.266C690.686,645.579 691.228,647.549 692.206,649.119C693.172,650.668 694.426,651.933 695.934,652.879C697.409,653.803 699.109,654.471 700.989,654.865C702.813,655.246 704.705,655.439 706.612,655.439C708.473,655.439 710.331,655.257 712.133,654.897C713.998,654.525 715.684,653.865 717.144,652.935C718.635,651.987 719.86,650.716 720.786,649.159C721.724,647.58 722.2,645.624 722.2,643.346C722.2,641.685 721.862,640.249 721.193,639.077C720.54,637.937 719.669,636.972 718.604,636.208Z" style="fill:white;fill-rule:nonzero;"/>
                <path d="M755.524,626.073C754.139,624.183 752.348,622.659 750.203,621.543C748.049,620.422 745.504,619.854 742.637,619.854C740.083,619.854 737.716,620.318 735.603,621.233C733.493,622.146 731.648,623.418 730.121,625.01C728.591,626.606 727.397,628.517 726.572,630.69C725.751,632.85 725.335,635.211 725.335,637.708C725.335,640.281 725.739,642.681 726.538,644.838C727.342,647.013 728.504,648.915 729.993,650.49C731.486,652.073 733.333,653.309 735.48,654.164C737.603,655.01 740.01,655.438 742.637,655.438C746.434,655.438 749.732,654.553 752.438,652.808C755.183,651.038 757.235,648.094 758.538,644.058L759.014,642.583L748.96,642.583L748.723,643.395C748.512,644.117 747.877,644.849 746.834,645.572C745.752,646.323 744.48,646.688 742.943,646.688C740.807,646.688 739.175,646.156 738.091,645.105C737.183,644.227 736.611,642.822 736.383,640.918L759.07,640.918L759.14,639.865C759.31,637.307 759.093,634.817 758.495,632.466C757.889,630.089 756.89,627.938 755.524,626.073ZM742.392,628.665C744.174,628.665 745.492,629.118 746.305,630.011C746.986,630.759 747.519,631.811 747.897,633.149L736.477,633.149C736.525,632.943 736.581,632.728 736.645,632.506C736.827,631.878 737.151,631.267 737.609,630.689C738.056,630.126 738.673,629.64 739.443,629.247C740.198,628.861 741.19,628.665 742.392,628.665Z" style="fill:white;fill-rule:nonzero;"/>
                <path d="M782.888,619.854C781.672,619.854 780.485,620.037 779.359,620.398C778.243,620.754 777.181,621.263 776.202,621.909C775.307,622.498 774.497,623.206 773.785,624.016L773.785,620.711L763.259,620.711L763.259,654.642L774.214,654.642L774.214,639.239C774.214,637.901 774.349,636.647 774.613,635.513C774.863,634.444 775.284,633.499 775.865,632.707C776.432,631.934 777.167,631.336 778.109,630.882C779.382,630.27 781.155,630.062 783.196,630.282C783.735,630.34 784.195,630.407 784.566,630.481L785.916,630.752L785.916,620.443L785.105,620.205C784.309,619.972 783.562,619.854 782.888,619.854Z" style="fill:white;fill-rule:nonzero;"/>
                <path d="M805.983,639.839L800.076,620.711L788.537,620.711L800.153,654.642L811.449,654.642L822.935,620.711L811.89,620.711L805.983,639.839Z" style="fill:white;fill-rule:nonzero;"/>
                <path d="M854.345,626.073C852.96,624.183 851.169,622.659 849.024,621.543C846.87,620.422 844.325,619.854 841.458,619.854C838.904,619.854 836.537,620.318 834.424,621.233C832.314,622.146 830.469,623.418 828.942,625.01C827.412,626.606 826.218,628.517 825.393,630.69C824.572,632.85 824.156,635.211 824.156,637.708C824.156,640.281 824.56,642.681 825.359,644.838C826.163,647.013 827.325,648.915 828.814,650.49C830.307,652.073 832.154,653.309 834.301,654.164C836.424,655.01 838.831,655.438 841.458,655.438C845.255,655.438 848.553,654.553 851.259,652.808C854.004,651.038 856.056,648.094 857.359,644.058L857.835,642.583L847.781,642.583L847.544,643.395C847.333,644.117 846.698,644.849 845.655,645.572C844.573,646.323 843.301,646.688 841.764,646.688C839.628,646.688 837.996,646.156 836.912,645.105C836.004,644.227 835.432,642.822 835.204,640.918L857.891,640.918L857.961,639.865C858.131,637.307 857.914,634.817 857.316,632.466C856.709,630.089 855.71,627.938 854.345,626.073ZM841.212,628.665C842.994,628.665 844.312,629.118 845.125,630.011C845.806,630.759 846.339,631.811 846.717,633.149L835.297,633.149C835.345,632.943 835.401,632.728 835.465,632.506C835.647,631.878 835.971,631.267 836.429,630.689C836.876,630.126 837.493,629.64 838.263,629.247C839.019,628.861 840.011,628.665 841.212,628.665Z" style="fill:white;fill-rule:nonzero;"/>
                <path d="M882.933,619.854C881.717,619.854 880.53,620.037 879.404,620.398C878.288,620.754 877.226,621.263 876.247,621.909C875.352,622.498 874.542,623.206 873.83,624.016L873.83,620.711L863.304,620.711L863.304,654.642L874.259,654.642L874.259,639.239C874.259,637.901 874.394,636.647 874.658,635.513C874.908,634.444 875.329,633.499 875.91,632.707C876.477,631.934 877.212,631.336 878.154,630.882C879.427,630.27 881.199,630.062 883.241,630.282C883.78,630.34 884.24,630.407 884.611,630.481L885.961,630.752L885.961,620.443L885.15,620.205C884.354,619.972 883.607,619.854 882.933,619.854Z" style="fill:white;fill-rule:nonzero;"/>
                <rect x="888.728" y="642.95" width="11.875" height="11.691" style="fill:white;"/>
            </g>
            <g>
                <path d="M341.207,337.572L340.98,337.572L341.705,329.083L302.804,329.083L303.209,324.346L303.094,324.346L306.079,289.39L236.202,289.39L233.217,324.346L233.332,324.346L232.927,329.083L176.32,329.083L180.253,324.346L180.139,324.346L209.161,289.39L196.933,289.39L227.075,253.086L223.975,289.39L293.852,289.39L295.307,272.343L266.595,272.343L266.595,261.687L296.217,261.687L297.885,242.152L310.113,242.152L310.677,235.539L313.42,203.417L342.099,203.417L343.067,192.08L314.388,192.08L315.921,174.13L300.287,174.13L301.094,164.682L316.728,164.682L317.727,152.981L254.193,152.981L244.476,164.682L228.842,164.682L220.996,174.13L236.629,174.13L221.722,192.08L250.401,192.08L240.986,203.417L212.307,203.417L185.63,235.539L180.138,242.152L167.91,242.152L128.68,289.39L140.908,289.39L124.896,308.67L149.014,308.67L149.014,312.684L121.562,312.684L111.877,324.346L111.992,324.346L109.232,327.669L108.386,337.572L108.614,337.572L107.162,354.578L118.792,354.578L117.743,366.86L105.771,366.86L103.916,388.589L103.677,391.381L227.493,391.381L226.182,406.738L208.252,406.738L207.257,418.392L225.187,418.392L224.102,431.103L234.609,431.103L233.722,441.495L223.214,441.495L222.408,450.943L221.707,459.145L291.586,459.145L292.286,450.943L293.093,441.495L303.6,441.495L304.488,431.103L293.98,431.103L295.065,418.392L277.135,418.392L278.13,406.738L296.06,406.738L297.371,391.381L336.271,391.381L336.51,388.589L338.365,366.86L350.338,366.86L351.386,354.578L339.756,354.578L341.207,337.572Z" style="fill:rgb(255,0,0);fill-rule:nonzero;"/>
                <path d="M602.256,337.572L610.465,337.572C611.2,333.29 611.864,328.875 612.464,324.345L607.573,324.345C608.381,318.238 609.073,311.922 609.632,305.377C610.1,299.897 610.447,294.567 610.676,289.389L598.449,289.389C599.226,271.808 598.619,256.008 596.647,242.151L608.874,242.151C608.553,239.898 608.205,237.686 607.812,235.538C607.574,234.239 607.324,232.959 607.06,231.699C604.875,221.275 601.969,211.831 598.381,203.417L633.122,203.417C631.409,199.4 629.541,195.618 627.519,192.08L592.778,192.08C590.798,188.617 588.674,185.38 586.402,182.389C584.164,179.444 581.803,176.695 579.334,174.129L562.425,174.129C559.047,170.62 555.457,167.466 551.662,164.681L568.571,164.681C563.24,160.769 557.512,157.573 551.41,155.129C538.135,149.817 523.514,147.125 507.953,147.125C492.722,147.125 477.854,149.799 463.759,155.077C457.231,157.524 450.97,160.739 445.003,164.681L428.094,164.681C423.88,167.465 419.816,170.618 415.912,174.129L432.821,174.129C430.122,176.556 427.495,179.144 424.954,181.911C422.083,185.035 419.322,188.429 416.675,192.079L451.416,192.079C448.85,195.617 446.389,199.397 444.041,203.416L409.3,203.416C404.544,211.556 400.244,220.668 396.432,230.697C395.831,232.276 395.252,233.897 394.682,235.538C393.934,237.693 393.209,239.892 392.515,242.151L380.288,242.151C376.033,256.007 372.807,271.816 370.64,289.389L382.868,289.389C382.273,294.21 381.754,299.156 381.32,304.24C380.727,311.191 380.324,317.888 380.095,324.345L384.986,324.345C384.826,328.879 384.757,333.288 384.776,337.572L369.429,337.572C369.456,343.481 369.646,349.16 370.015,354.578L399.131,354.578C399.42,358.829 399.82,362.92 400.319,366.86L381.66,366.86C382.222,371.293 382.911,375.535 383.739,379.563C384.375,382.663 385.079,385.665 385.835,388.59C387.514,395.087 389.498,401.13 391.757,406.739L373.827,406.739C375.495,410.879 377.328,414.755 379.306,418.394L397.236,418.394C399.364,422.309 401.649,425.964 404.13,429.279C404.593,429.898 405.066,430.502 405.54,431.105L417.003,431.105C419.989,434.903 423.189,438.369 426.592,441.497L415.129,441.497C419.048,445.1 423.237,448.252 427.68,450.945C431.273,453.122 435.027,455.009 438.945,456.577C452.221,461.889 466.704,464.584 481.99,464.584C497.503,464.584 512.51,461.907 526.595,456.629C530.805,455.051 534.909,453.149 538.904,450.944C543.78,448.254 548.488,445.099 553.012,441.496L564.475,441.496C568.402,438.369 572.189,434.902 575.827,431.104L564.364,431.104C564.77,430.68 565.179,430.261 565.582,429.829C568.804,426.366 571.873,422.527 574.811,418.394L556.881,418.394C559.468,414.755 561.953,410.882 564.312,406.739L582.242,406.739C585.434,401.133 588.419,395.087 591.175,388.59C592.28,385.985 593.353,383.315 594.385,380.57C596.014,376.24 597.522,371.658 598.923,366.86L621.038,366.86C622.189,362.919 623.264,358.826 624.259,354.578L598.826,354.578C600.095,349.152 601.241,343.484 602.256,337.572ZM544.472,366.86L525.813,366.86C525.771,366.98 525.733,367.102 525.691,367.222C522.868,375.266 519.026,382.418 514.268,388.589C513.054,390.164 511.795,391.691 510.461,393.134C504.505,399.573 496.546,402.704 486.131,402.704C476.298,402.704 469.354,399.761 464.898,393.705C463.708,392.09 462.613,390.377 461.599,388.588C458.258,382.696 455.868,375.885 454.491,368.246C454.408,367.786 454.34,367.32 454.261,366.858L472.92,366.858C472.237,362.839 471.722,358.74 471.375,354.576L442.259,354.576C441.796,349.007 441.635,343.326 441.78,337.57L457.127,337.57C457.145,336.842 457.155,336.117 457.183,335.387C457.331,331.527 457.495,327.854 457.672,324.343L452.781,324.343C453.139,317.266 453.554,310.903 454.026,305.375C454.432,300.63 454.951,295.244 455.561,289.387L443.334,289.387C443.407,288.69 443.475,288.014 443.55,287.303C444.266,280.441 445.361,273.256 446.802,265.935C448.212,258.755 450.177,251.533 452.645,244.471C452.922,243.679 453.239,242.925 453.534,242.15L465.761,242.15C466.628,239.871 467.559,237.656 468.581,235.537C470.189,232.202 471.969,229.056 473.938,226.161C477.383,221.1 481.638,216.951 486.583,213.831C491.29,210.865 496.913,209.422 503.774,209.422C510.436,209.422 515.905,210.857 520.016,213.68C524.43,216.722 527.861,220.604 530.498,225.54C532.126,228.599 533.461,231.948 534.507,235.537C535.125,237.658 535.637,239.865 536.045,242.15L523.818,242.15C523.888,242.541 523.965,242.927 524.029,243.323C525.161,250.425 525.9,257.701 526.223,264.941C526.541,272.194 526.476,279.337 526.03,286.17C525.958,287.271 525.886,288.337 525.815,289.387L538.042,289.387C537.655,295.075 537.283,300.031 536.924,304.238C536.429,310.042 535.711,316.788 534.791,324.343L539.682,324.343C539.296,327.51 538.878,330.804 538.421,334.254C538.274,335.362 538.108,336.466 537.939,337.569L529.73,337.569C528.851,343.325 527.683,349.007 526.228,354.575L548.205,354.575C547.118,358.742 545.873,362.841 544.472,366.86Z" style="fill:rgb(255,0,0);fill-rule:nonzero;"/>
                <path d="M876.187,354.578L877.639,337.572L881.267,337.572L881.991,329.083L843.088,329.083L843.493,324.346L843.686,324.346L846.67,289.39L776.794,289.39L773.809,324.346L773.616,324.346L773.211,329.083L716.606,329.083L720.54,324.346L720.732,324.346L749.754,289.39L737.527,289.39L767.668,253.086L764.567,289.39L834.443,289.39L836.425,266.174L815.169,266.174L815.169,261.397L836.833,261.397L838.476,242.152L850.703,242.152L851.268,235.539L854.011,203.417L889.831,203.417L890.799,192.08L854.979,192.08L856.511,174.13L840.953,174.13L841.76,164.682L857.318,164.682L858.317,152.981L794.785,152.981L785.067,164.682L769.509,164.682L761.663,174.13L777.221,174.13L762.314,192.08L798.135,192.08L788.72,203.417L752.899,203.417L726.223,235.539L720.731,242.152L708.503,242.152L669.274,289.39L681.501,289.39L670.239,302.951L690.031,302.951L690.031,310.115L664.289,310.115L652.471,324.346L652.278,324.346L649.518,327.669L648.673,337.572L645.045,337.572L643.593,354.578L665.118,354.578L664.069,366.86L646.365,366.86L644.51,388.589L644.271,391.381L768.087,391.381L766.776,406.738L748.846,406.738L747.85,418.392L765.78,418.392L764.695,431.103L775.203,431.103L774.315,441.495L763.807,441.495L763.001,450.943L762.3,459.145L832.177,459.145L832.878,450.943L833.685,441.495L844.192,441.495L845.08,431.103L834.572,431.103L835.657,418.392L817.727,418.392L818.723,406.738L836.653,406.738L837.964,391.381L876.867,391.381L877.105,388.589L878.96,366.86L896.664,366.86L897.712,354.578L876.187,354.578Z" style="fill:rgb(255,0,0);fill-rule:nonzero;"/>
                <rect x="96.434" y="244.356" width="56.286" height="4.693" style="fill:rgb(255,0,0);"/>
                <rect x="682.789" y="228.037" width="42.535" height="3.971" style="fill:rgb(255,0,0);"/>
                <rect x="837.843" y="411.273" width="49.595" height="5.054" style="fill:rgb(255,0,0);"/>
                <rect x="146.064" y="439.136" width="56.984" height="4.332" style="fill:rgb(255,0,0);"/>
                <path d="M318.5,272.343L318.5,261.687L298.395,261.687L297.485,272.343L318.5,272.343Z" style="fill:rgb(255,0,0);fill-rule:nonzero;"/>
                <path d="M649.516,302.951L649.516,310.115L661.028,310.115L666.978,302.951L649.516,302.951Z" style="fill:rgb(255,0,0);fill-rule:nonzero;"/>
                <path d="M106.871,308.67L106.871,312.684L121.562,312.684L124.896,308.67L106.871,308.67Z" style="fill:rgb(255,0,0);fill-rule:nonzero;"/>
                <path d="M844.906,266.174L844.906,261.397L818.807,261.397L818.4,266.174L844.906,266.174Z" style="fill:rgb(255,0,0);fill-rule:nonzero;"/>
            </g>
            <g>
                <path d="M358.119,348.489L357.892,348.489L358.617,340L319.716,340L320.121,335.262L320.006,335.262L322.991,300.306L253.114,300.306L250.129,335.262L250.244,335.262L249.839,340L193.231,340L197.165,335.262L197.05,335.262L226.073,300.306L213.845,300.306L243.987,264.002L240.887,300.306L310.763,300.306L312.219,283.26L283.507,283.26L283.507,272.604L313.129,272.604L314.797,253.069L327.024,253.069L327.589,246.455L330.332,214.334L359.011,214.334L359.979,202.997L331.3,202.997L332.833,185.046L317.199,185.046L318.006,175.599L333.639,175.599L334.639,163.897L271.105,163.897L261.387,175.599L245.754,175.599L237.908,185.046L253.541,185.046L238.634,202.997L267.313,202.997L257.897,214.334L229.218,214.334L202.542,246.455L197.05,253.069L184.822,253.069L145.592,300.306L157.819,300.306L141.807,319.587L165.925,319.587L165.925,323.6L138.474,323.6L128.789,335.262L128.904,335.262L126.143,338.586L125.298,348.489L125.525,348.489L124.073,365.494L135.704,365.494L134.655,377.776L122.683,377.776L120.827,399.506L120.589,402.298L244.405,402.298L243.094,417.654L223.61,417.654L222.615,429.309L242.099,429.309L241.013,442.02L251.521,442.02L250.634,452.412L240.126,452.412L239.319,461.859L238.619,470.062L308.497,470.062L309.198,461.859L310.004,452.412L320.512,452.412L321.4,442.02L310.892,442.02L311.977,429.309L295.866,429.309L296.861,417.654L312.972,417.654L314.283,402.298L353.183,402.298L353.422,399.506L355.277,377.776L367.249,377.776L368.298,365.494L356.667,365.494L358.119,348.489Z" style="fill:rgb(0,255,255);fill-rule:nonzero;"/>
                <path d="M619.168,348.489L627.377,348.489C628.112,344.207 628.776,339.792 629.376,335.262L624.485,335.262C625.293,329.155 625.985,322.839 626.544,316.294C627.012,310.814 627.359,305.484 627.588,300.306L615.36,300.306C616.137,282.725 615.53,266.925 613.558,253.068L625.785,253.068C625.464,250.815 625.116,248.603 624.723,246.455C624.485,245.156 624.235,243.876 623.971,242.616C621.786,232.192 618.88,222.748 615.292,214.334L650.033,214.334C648.32,210.317 646.452,206.535 644.43,202.997L609.689,202.997C607.709,199.534 605.585,196.297 603.313,193.306C601.075,190.361 598.714,187.612 596.245,185.046L579.336,185.046C575.958,181.537 572.368,178.383 568.573,175.598L585.482,175.598C580.151,171.686 574.423,168.49 568.321,166.046C555.046,160.734 540.426,158.042 524.864,158.042C509.633,158.042 494.765,160.716 480.67,165.994C474.142,168.441 467.881,171.656 461.914,175.598L445.005,175.598C440.791,178.382 436.727,181.535 432.823,185.046L449.732,185.046C447.033,187.473 444.406,190.061 441.865,192.828C438.994,195.952 436.233,199.346 433.586,202.996L468.327,202.996C465.761,206.534 463.3,210.314 460.952,214.333L426.211,214.333C421.455,222.473 417.155,231.585 413.343,241.614C412.742,243.193 412.163,244.814 411.593,246.455C410.845,248.61 410.12,250.809 409.426,253.068L397.199,253.068C392.944,266.924 389.718,282.733 387.551,300.306L399.778,300.306C399.183,305.127 398.664,310.073 398.23,315.157C397.637,322.108 397.234,328.805 397.005,335.262L401.896,335.262C401.736,339.796 401.667,344.205 401.686,348.489L386.34,348.489C386.367,354.398 386.557,360.077 386.926,365.495L416.042,365.495C416.331,369.746 416.731,373.837 417.23,377.777L398.57,377.777C399.132,382.21 399.821,386.452 400.649,390.48C401.285,393.58 401.989,396.582 402.745,399.506C404.424,406.003 406.408,412.046 408.667,417.655L390.737,417.655C392.405,421.795 394.238,425.671 396.216,429.31L414.146,429.31C416.274,433.225 418.559,436.88 421.04,440.195C421.503,440.814 421.976,441.418 422.45,442.021L433.913,442.021C436.899,445.819 440.099,449.285 443.502,452.413L432.039,452.413C435.958,456.016 440.147,459.168 444.59,461.861C448.183,464.038 451.937,465.925 455.855,467.493C469.131,472.805 483.614,475.5 498.9,475.5C514.413,475.5 529.42,472.823 543.505,467.545C547.715,465.967 551.819,464.065 555.814,461.86C560.69,459.17 565.398,456.015 569.922,452.412L581.385,452.412C585.312,449.285 589.099,445.818 592.737,442.02L581.274,442.02C581.68,441.596 582.089,441.177 582.492,440.745C585.714,437.282 588.783,433.443 591.721,429.31L573.791,429.31C576.378,425.671 578.863,421.798 581.222,417.655L599.152,417.655C602.344,412.049 605.329,406.003 608.085,399.506C609.19,396.901 610.263,394.231 611.295,391.486C612.924,387.156 614.432,382.574 615.833,377.776L634.492,377.776C635.643,373.835 636.718,369.742 637.713,365.494L615.736,365.494C617.007,360.069 618.153,354.401 619.168,348.489ZM561.384,377.776L542.725,377.776C542.683,377.896 542.645,378.018 542.603,378.138C539.78,386.182 535.938,393.334 531.18,399.505C529.966,401.08 528.707,402.607 527.373,404.05C521.417,410.489 513.458,413.62 503.043,413.62C493.21,413.62 486.266,410.677 481.81,404.621C480.62,403.006 479.525,401.293 478.511,399.504C475.17,393.612 472.78,386.801 471.403,379.162C471.32,378.702 471.252,378.236 471.173,377.774L489.832,377.774C489.149,373.755 488.634,369.656 488.287,365.492L459.17,365.492C458.707,359.923 458.546,354.242 458.691,348.486L474.038,348.486C474.056,347.758 474.066,347.033 474.094,346.303C474.242,342.443 474.406,338.77 474.583,335.259L469.692,335.259C470.05,328.182 470.465,321.819 470.937,316.291C471.343,311.546 471.862,306.16 472.472,300.303L460.245,300.303C460.318,299.606 460.386,298.93 460.461,298.219C461.177,291.357 462.272,284.172 463.713,276.851C465.123,269.671 467.088,262.449 469.556,255.387C469.833,254.595 470.15,253.841 470.445,253.066L482.672,253.066C483.539,250.787 484.47,248.572 485.492,246.453C487.1,243.118 488.88,239.972 490.849,237.077C494.294,232.016 498.549,227.867 503.494,224.747C508.201,221.781 513.824,220.338 520.685,220.338C527.347,220.338 532.816,221.773 536.927,224.596C541.341,227.638 544.772,231.52 547.409,236.456C549.037,239.515 550.372,242.864 551.418,246.453C552.036,248.574 552.548,250.781 552.956,253.066L540.73,253.066C540.8,253.457 540.877,253.843 540.941,254.239C542.073,261.341 542.812,268.617 543.135,275.857C543.453,283.11 543.388,290.253 542.942,297.086C542.87,298.187 542.798,299.253 542.727,300.303L554.954,300.303C554.567,305.991 554.195,310.947 553.836,315.154C553.341,320.958 552.623,327.704 551.703,335.259L556.594,335.259C556.208,338.426 555.79,341.72 555.333,345.17C555.186,346.278 555.02,347.382 554.851,348.485L546.642,348.485C545.763,354.241 544.595,359.923 543.14,365.491L565.117,365.491C564.029,369.658 562.785,373.758 561.384,377.776Z" style="fill:rgb(0,255,255);fill-rule:nonzero;"/>
                <path d="M893.099,365.494L894.55,348.489L898.179,348.489L898.903,340L860,340L860.405,335.262L860.598,335.262L863.582,300.306L793.706,300.306L790.721,335.262L790.528,335.262L790.123,340L733.518,340L737.451,335.262L737.644,335.262L766.666,300.306L754.439,300.306L784.58,264.002L781.479,300.306L851.355,300.306L853.337,277.09L832.081,277.09L832.081,272.314L853.745,272.314L855.388,253.069L867.615,253.069L868.18,246.455L870.922,214.334L906.743,214.334L907.711,202.997L871.89,202.997L873.423,185.046L857.865,185.046L858.672,175.599L874.23,175.599L875.229,163.897L811.697,163.897L801.979,175.599L786.421,175.599L778.575,185.046L794.133,185.046L779.226,202.997L815.047,202.997L805.631,214.334L769.811,214.334L743.135,246.455L737.642,253.069L725.415,253.069L686.185,300.306L698.413,300.306L687.151,313.867L706.943,313.867L706.943,321.032L681.201,321.032L669.383,335.262L669.19,335.262L666.43,338.586L665.585,348.489L661.956,348.489L660.504,365.494L682.03,365.494L680.981,377.776L663.277,377.776L661.422,399.506L661.183,402.298L784.999,402.298L783.687,417.654L763.646,417.654L762.65,429.309L782.692,429.309L781.607,442.02L792.115,442.02L791.227,452.412L780.719,452.412L779.912,461.859L779.212,470.062L849.089,470.062L849.79,461.859L850.596,452.412L861.104,452.412L861.992,442.02L851.484,442.02L852.569,429.309L836.217,429.309L837.212,417.654L853.565,417.654L854.876,402.298L893.779,402.298L894.017,399.506L895.872,377.776L913.576,377.776L914.624,365.494L893.099,365.494Z" style="fill:rgb(0,255,255);fill-rule:nonzero;"/>
                <rect x="113.346" y="251.034" width="56.286" height="4.693" style="fill:rgb(0,255,255);"/>
                <rect x="699.7" y="234.715" width="42.535" height="3.971" style="fill:rgb(0,255,255);"/>
                <rect x="854.755" y="416.6" width="49.595" height="5.054" style="fill:rgb(0,255,255);"/>
                <rect x="162.976" y="445.814" width="56.984" height="4.332" style="fill:rgb(0,255,255);"/>
                <path d="M333.235,283.26L333.235,272.604L313.129,272.604L312.219,283.26L333.235,283.26Z" style="fill:rgb(0,255,255);fill-rule:nonzero;"/>
                <path d="M666.428,313.867L666.428,321.032L677.94,321.032L683.89,313.867L666.428,313.867Z" style="fill:rgb(0,255,255);fill-rule:nonzero;"/>
                <path d="M123.783,319.587L123.783,323.6L138.474,323.6L141.807,319.587L123.783,319.587Z" style="fill:rgb(0,255,255);fill-rule:nonzero;"/>
                <path d="M880.05,277.09L880.05,272.314L853.951,272.314L853.543,277.09L880.05,277.09Z" style="fill:rgb(0,255,255);fill-rule:nonzero;"/>
            </g>
            <g>
                <path d="M348.668,344.217L348.44,344.217L349.165,335.729L310.265,335.729L310.669,330.991L310.555,330.991L313.539,296.035L243.663,296.035L240.677,330.991L240.792,330.991L240.388,335.729L183.78,335.729L187.713,330.991L187.599,330.991L216.621,296.035L204.394,296.035L234.535,259.731L231.435,296.035L301.312,296.035L302.767,278.988L274.055,278.988L274.055,268.332L303.677,268.332L305.345,248.797L317.573,248.797L318.138,242.184L320.88,210.062L349.559,210.062L350.527,198.725L321.848,198.725L323.381,180.775L307.748,180.775L308.554,171.327L324.188,171.327L325.187,159.626L261.654,159.626L251.936,171.327L236.302,171.327L228.456,180.775L244.09,180.775L229.182,198.725L257.861,198.725L248.446,210.062L219.767,210.062L193.09,242.184L187.598,248.797L175.371,248.797L136.14,296.035L148.368,296.035L132.356,315.315L156.474,315.315L156.474,319.329L129.023,319.329L119.337,330.991L119.452,330.991L116.692,334.314L115.846,344.217L116.074,344.217L114.622,361.223L126.252,361.223L125.204,373.505L113.231,373.505L111.376,395.234L111.137,398.026L234.953,398.026L233.642,413.383L215.712,413.383L214.717,425.038L232.647,425.038L231.562,437.748L242.07,437.748L241.182,448.14L230.675,448.14L229.868,457.588L229.168,465.79L299.046,465.79L299.746,457.588L300.553,448.14L311.061,448.14L311.948,437.748L301.44,437.748L302.525,425.038L284.595,425.038L285.59,413.383L303.52,413.383L304.831,398.026L343.732,398.026L343.97,395.234L345.825,373.505L357.798,373.505L358.846,361.223L347.216,361.223L348.668,344.217Z" style="fill:white;fill-rule:nonzero;"/>
                <path d="M609.717,344.217L617.926,344.217C618.661,339.935 619.325,335.52 619.925,330.99L615.034,330.99C615.842,324.883 616.534,318.567 617.093,312.022C617.561,306.542 617.908,301.212 618.137,296.034L605.91,296.034C606.687,278.453 606.08,262.653 604.108,248.796L616.335,248.796C616.014,246.543 615.666,244.331 615.273,242.183C615.035,240.884 614.785,239.604 614.521,238.344C612.336,227.92 609.43,218.476 605.842,210.062L640.583,210.062C638.87,206.045 637.002,202.263 634.98,198.725L600.239,198.725C598.259,195.262 596.135,192.025 593.863,189.034C591.625,186.089 589.264,183.34 586.795,180.774L569.886,180.774C566.508,177.265 562.918,174.111 559.123,171.326L576.032,171.326C570.701,167.414 564.973,164.218 558.871,161.774C545.596,156.462 530.975,153.77 515.414,153.77C500.183,153.77 485.315,156.444 471.22,161.722C464.692,164.169 458.431,167.384 452.464,171.326L435.555,171.326C431.341,174.11 427.277,177.263 423.373,180.774L440.282,180.774C437.583,183.201 434.956,185.789 432.415,188.556C429.544,191.68 426.783,195.074 424.136,198.724L458.877,198.724C456.311,202.262 453.85,206.042 451.502,210.061L416.761,210.061C412.005,218.201 407.705,227.313 403.893,237.342C403.292,238.921 402.713,240.542 402.143,242.183C401.395,244.338 400.67,246.537 399.976,248.796L387.749,248.796C383.494,262.652 380.268,278.461 378.101,296.034L390.328,296.034C389.733,300.855 389.214,305.801 388.78,310.885C388.187,317.836 387.784,324.533 387.555,330.99L392.446,330.99C392.286,335.524 392.217,339.933 392.236,344.217L376.889,344.217C376.916,350.126 377.106,355.805 377.475,361.223L406.591,361.223C406.88,365.474 407.28,369.565 407.779,373.505L389.12,373.505C389.682,377.938 390.371,382.18 391.199,386.208C391.835,389.308 392.539,392.31 393.295,395.234C394.974,401.731 396.958,407.774 399.217,413.383L381.287,413.383C382.955,417.523 384.788,421.399 386.766,425.038L404.696,425.038C406.824,428.953 409.109,432.608 411.59,435.923C412.053,436.542 412.526,437.146 413,437.749L424.463,437.749C427.449,441.547 430.649,445.013 434.052,448.141L422.589,448.141C426.508,451.744 430.697,454.896 435.14,457.589C438.733,459.766 442.487,461.653 446.405,463.221C459.681,468.533 474.164,471.228 489.45,471.228C504.963,471.228 519.97,468.551 534.055,463.273C538.265,461.695 542.369,459.793 546.364,457.588C551.24,454.898 555.948,451.743 560.472,448.14L571.935,448.14C575.862,445.013 579.649,441.546 583.287,437.748L571.824,437.748C572.23,437.324 572.639,436.905 573.042,436.473C576.264,433.01 579.333,429.171 582.271,425.038L564.341,425.038C566.928,421.399 569.413,417.526 571.772,413.383L589.702,413.383C592.894,407.777 595.879,401.731 598.635,395.234C599.74,392.629 600.813,389.959 601.845,387.214C603.474,382.884 604.982,378.302 606.383,373.504L625.042,373.504C626.193,369.563 627.268,365.47 628.263,361.222L606.286,361.222C607.555,355.797 608.701,350.129 609.717,344.217ZM551.932,373.505L533.273,373.505C533.231,373.625 533.193,373.747 533.151,373.867C530.328,381.911 526.486,389.063 521.728,395.234C520.514,396.809 519.255,398.336 517.921,399.779C511.965,406.218 504.006,409.349 493.591,409.349C483.758,409.349 476.814,406.406 472.358,400.35C471.168,398.735 470.073,397.022 469.059,395.233C465.718,389.341 463.328,382.53 461.951,374.891C461.868,374.431 461.8,373.965 461.721,373.503L480.38,373.503C479.697,369.483 479.182,365.385 478.835,361.221L449.719,361.221C449.256,355.652 449.095,349.971 449.24,344.215L464.587,344.215C464.605,343.487 464.615,342.762 464.643,342.032C464.791,338.172 464.955,334.499 465.132,330.988L460.241,330.988C460.599,323.911 461.014,317.548 461.486,312.02C461.892,307.275 462.411,301.889 463.021,296.032L450.793,296.032C450.866,295.335 450.934,294.659 451.009,293.948C451.725,287.086 452.82,279.901 454.261,272.58C455.671,265.4 457.636,258.178 460.104,251.116C460.381,250.324 460.698,249.57 460.993,248.795L473.22,248.795C474.087,246.516 475.018,244.301 476.04,242.182C477.648,238.847 479.428,235.701 481.397,232.806C484.842,227.745 489.097,223.596 494.042,220.476C498.749,217.51 504.372,216.067 511.233,216.067C517.895,216.067 523.364,217.502 527.475,220.325C531.889,223.367 535.32,227.249 537.957,232.185C539.585,235.244 540.92,238.593 541.966,242.182C542.584,244.303 543.096,246.51 543.504,248.795L531.277,248.795C531.347,249.186 531.424,249.572 531.488,249.968C532.62,257.07 533.359,264.346 533.682,271.586C534,278.839 533.935,285.982 533.489,292.815C533.417,293.916 533.345,294.982 533.274,296.032L545.501,296.032C545.114,301.72 544.742,306.676 544.383,310.883C543.888,316.687 543.17,323.433 542.25,330.988L547.141,330.988C546.755,334.155 546.337,337.449 545.88,340.899C545.733,342.007 545.567,343.111 545.398,344.214L537.189,344.214C536.31,349.97 535.142,355.652 533.687,361.22L555.664,361.22C554.578,365.387 553.333,369.487 551.932,373.505Z" style="fill:white;fill-rule:nonzero;"/>
                <path d="M883.647,361.223L885.099,344.217L888.727,344.217L889.452,335.729L850.549,335.729L850.953,330.991L851.146,330.991L854.131,296.035L784.255,296.035L781.269,330.991L781.076,330.991L780.672,335.729L724.067,335.729L728,330.991L728.193,330.991L757.215,296.035L744.987,296.035L775.128,259.731L772.027,296.035L841.903,296.035L843.885,272.819L822.63,272.819L822.63,268.043L844.293,268.043L845.936,248.797L858.164,248.797L858.728,242.184L861.471,210.062L897.292,210.062L898.26,198.725L862.439,198.725L863.971,180.775L848.413,180.775L849.22,171.327L864.778,171.327L865.777,159.626L802.245,159.626L792.527,171.327L776.969,171.327L769.123,180.775L784.682,180.775L769.774,198.725L805.595,198.725L796.18,210.062L760.359,210.062L733.683,242.184L728.191,248.797L715.963,248.797L676.734,296.035L688.961,296.035L677.699,309.596L697.492,309.596L697.492,316.76L671.749,316.76L659.932,330.991L659.739,330.991L656.979,334.314L656.133,344.217L652.505,344.217L651.053,361.223L672.578,361.223L671.529,373.505L653.825,373.505L651.97,395.234L651.732,398.026L775.547,398.026L774.236,413.383L756.306,413.383L755.31,425.038L773.241,425.038L772.155,437.748L782.663,437.748L781.776,448.14L771.268,448.14L770.461,457.588L769.76,465.79L839.638,465.79L840.338,457.588L841.145,448.14L851.653,448.14L852.54,437.748L842.032,437.748L843.118,425.038L825.188,425.038L826.183,413.383L844.113,413.383L845.424,398.026L884.327,398.026L884.566,395.234L886.42,373.505L904.124,373.505L905.173,361.223L883.647,361.223Z" style="fill:white;fill-rule:nonzero;"/>
                <rect x="103.895" y="246.763" width="56.286" height="4.693" style="fill:white;"/>
                <rect x="690.249" y="230.444" width="42.535" height="3.971" style="fill:white;"/>
                <rect x="845.303" y="413.288" width="49.595" height="5.054" style="fill:white;"/>
                <rect x="153.525" y="441.542" width="56.984" height="4.332" style="fill:white;"/>
                <path d="M323.783,278.988L323.783,268.332L303.677,268.332L302.767,278.988L323.783,278.988Z" style="fill:white;fill-rule:nonzero;"/>
                <path d="M656.976,309.596L656.976,316.76L668.489,316.76L674.439,309.596L656.976,309.596Z" style="fill:white;fill-rule:nonzero;"/>
                <path d="M114.331,315.315L114.331,319.329L129.023,319.329L132.356,315.315L114.331,315.315Z" style="fill:white;fill-rule:nonzero;"/>
                <path d="M870.258,272.819L870.258,268.043L844.158,268.043L843.751,272.819L870.258,272.819Z" style="fill:white;fill-rule:nonzero;"/>
            </g>
        </g>
    </g>
</svg>
