<?xml version="1.0" encoding="UTF-8" standalone="no"?>
<!DOCTYPE svg PUBLIC "-//W3C//DTD SVG 1.1//EN" "http://www.w3.org/Graphics/SVG/1.1/DTD/svg11.dtd">
<svg width="100%" height="100%" viewBox="0 0 850 322" version="1.1" xmlns="http://www.w3.org/2000/svg" xmlns:xlink="http://www.w3.org/1999/xlink" xml:space="preserve" xmlns:serif="http://www.serif.com/" style="fill-rule:evenodd;clip-rule:evenodd;stroke-linejoin:round;stroke-miterlimit:2;">
    <g transform="matrix(0.977768,0,0,0.977768,-69.2901,-143.391)">
        <g>
            <path d="M341.207,337.572L340.98,337.572L341.705,329.083L302.804,329.083L303.209,324.346L303.094,324.346L306.079,289.39L236.202,289.39L233.217,324.346L233.332,324.346L232.927,329.083L176.32,329.083L180.253,324.346L180.139,324.346L209.161,289.39L196.933,289.39L227.075,253.086L223.975,289.39L293.852,289.39L295.307,272.343L266.595,272.343L266.595,261.687L296.217,261.687L297.885,242.152L310.113,242.152L310.677,235.539L313.42,203.417L342.099,203.417L343.067,192.08L314.388,192.08L315.921,174.13L300.287,174.13L301.094,164.682L316.728,164.682L317.727,152.981L254.193,152.981L244.476,164.682L228.842,164.682L220.996,174.13L236.629,174.13L221.722,192.08L250.401,192.08L240.986,203.417L212.307,203.417L185.63,235.539L180.138,242.152L167.91,242.152L128.68,289.39L140.908,289.39L124.896,308.67L149.014,308.67L149.014,312.684L121.562,312.684L111.877,324.346L111.992,324.346L109.232,327.669L108.386,337.572L108.614,337.572L107.162,354.578L118.792,354.578L117.743,366.86L105.771,366.86L103.916,388.589L103.677,391.381L227.493,391.381L226.182,406.738L208.252,406.738L207.257,418.392L225.187,418.392L224.102,431.103L234.609,431.103L233.722,441.495L223.214,441.495L222.408,450.943L221.707,459.145L291.586,459.145L292.286,450.943L293.093,441.495L303.6,441.495L304.488,431.103L293.98,431.103L295.065,418.392L277.135,418.392L278.13,406.738L296.06,406.738L297.371,391.381L336.271,391.381L336.51,388.589L338.365,366.86L350.338,366.86L351.386,354.578L339.756,354.578L341.207,337.572Z" style="fill:rgb(255,0,0);fill-rule:nonzero;"/>
            <path d="M602.256,337.572L610.465,337.572C611.2,333.29 611.864,328.875 612.464,324.345L607.573,324.345C608.381,318.238 609.073,311.922 609.632,305.377C610.1,299.897 610.447,294.567 610.676,289.389L598.449,289.389C599.226,271.808 598.619,256.008 596.647,242.151L608.874,242.151C608.553,239.898 608.205,237.686 607.812,235.538C607.574,234.239 607.324,232.959 607.06,231.699C604.875,221.275 601.969,211.831 598.381,203.417L633.122,203.417C631.409,199.4 629.541,195.618 627.519,192.08L592.778,192.08C590.798,188.617 588.674,185.38 586.402,182.389C584.164,179.444 581.803,176.695 579.334,174.129L562.425,174.129C559.047,170.62 555.457,167.466 551.662,164.681L568.571,164.681C563.24,160.769 557.512,157.573 551.41,155.129C538.135,149.817 523.514,147.125 507.953,147.125C492.722,147.125 477.854,149.799 463.759,155.077C457.231,157.524 450.97,160.739 445.003,164.681L428.094,164.681C423.88,167.465 419.816,170.618 415.912,174.129L432.821,174.129C430.122,176.556 427.495,179.144 424.954,181.911C422.083,185.035 419.322,188.429 416.675,192.079L451.416,192.079C448.85,195.617 446.389,199.397 444.041,203.416L409.3,203.416C404.544,211.556 400.244,220.668 396.432,230.697C395.831,232.276 395.252,233.897 394.682,235.538C393.934,237.693 393.209,239.892 392.515,242.151L380.288,242.151C376.033,256.007 372.807,271.816 370.64,289.389L382.868,289.389C382.273,294.21 381.754,299.156 381.32,304.24C380.727,311.191 380.324,317.888 380.095,324.345L384.986,324.345C384.826,328.879 384.757,333.288 384.776,337.572L369.429,337.572C369.456,343.481 369.646,349.16 370.015,354.578L399.131,354.578C399.42,358.829 399.82,362.92 400.319,366.86L381.66,366.86C382.222,371.293 382.911,375.535 383.739,379.563C384.375,382.663 385.079,385.665 385.835,388.59C387.514,395.087 389.498,401.13 391.757,406.739L373.827,406.739C375.495,410.879 377.328,414.755 379.306,418.394L397.236,418.394C399.364,422.309 401.649,425.964 404.13,429.279C404.593,429.898 405.066,430.502 405.54,431.105L417.003,431.105C419.989,434.903 423.189,438.369 426.592,441.497L415.129,441.497C419.048,445.1 423.237,448.252 427.68,450.945C431.273,453.122 435.027,455.009 438.945,456.577C452.221,461.889 466.704,464.584 481.99,464.584C497.503,464.584 512.51,461.907 526.595,456.629C530.805,455.051 534.909,453.149 538.904,450.944C543.78,448.254 548.488,445.099 553.012,441.496L564.475,441.496C568.402,438.369 572.189,434.902 575.827,431.104L564.364,431.104C564.77,430.68 565.179,430.261 565.582,429.829C568.804,426.366 571.873,422.527 574.811,418.394L556.881,418.394C559.468,414.755 561.953,410.882 564.312,406.739L582.242,406.739C585.434,401.133 588.419,395.087 591.175,388.59C592.28,385.985 593.353,383.315 594.385,380.57C596.014,376.24 597.522,371.658 598.923,366.86L621.038,366.86C622.189,362.919 623.264,358.826 624.259,354.578L598.826,354.578C600.095,349.152 601.241,343.484 602.256,337.572ZM544.472,366.86L525.813,366.86C525.771,366.98 525.733,367.102 525.691,367.222C522.868,375.266 519.026,382.418 514.268,388.589C513.054,390.164 511.795,391.691 510.461,393.134C504.505,399.573 496.546,402.704 486.131,402.704C476.298,402.704 469.354,399.761 464.898,393.705C463.708,392.09 462.613,390.377 461.599,388.588C458.258,382.696 455.868,375.885 454.491,368.246C454.408,367.786 454.34,367.32 454.261,366.858L472.92,366.858C472.237,362.839 471.722,358.74 471.375,354.576L442.259,354.576C441.796,349.007 441.635,343.326 441.78,337.57L457.127,337.57C457.145,336.842 457.155,336.117 457.183,335.387C457.331,331.527 457.495,327.854 457.672,324.343L452.781,324.343C453.139,317.266 453.554,310.903 454.026,305.375C454.432,300.63 454.951,295.244 455.561,289.387L443.334,289.387C443.407,288.69 443.475,288.014 443.55,287.303C444.266,280.441 445.361,273.256 446.802,265.935C448.212,258.755 450.177,251.533 452.645,244.471C452.922,243.679 453.239,242.925 453.534,242.15L465.761,242.15C466.628,239.871 467.559,237.656 468.581,235.537C470.189,232.202 471.969,229.056 473.938,226.161C477.383,221.1 481.638,216.951 486.583,213.831C491.29,210.865 496.913,209.422 503.774,209.422C510.436,209.422 515.905,210.857 520.016,213.68C524.43,216.722 527.861,220.604 530.498,225.54C532.126,228.599 533.461,231.948 534.507,235.537C535.125,237.658 535.637,239.865 536.045,242.15L523.818,242.15C523.888,242.541 523.965,242.927 524.029,243.323C525.161,250.425 525.9,257.701 526.223,264.941C526.541,272.194 526.476,279.337 526.03,286.17C525.958,287.271 525.886,288.337 525.815,289.387L538.042,289.387C537.655,295.075 537.283,300.031 536.924,304.238C536.429,310.042 535.711,316.788 534.791,324.343L539.682,324.343C539.296,327.51 538.878,330.804 538.421,334.254C538.274,335.362 538.108,336.466 537.939,337.569L529.73,337.569C528.851,343.325 527.683,349.007 526.228,354.575L548.205,354.575C547.118,358.742 545.873,362.841 544.472,366.86Z" style="fill:rgb(255,0,0);fill-rule:nonzero;"/>
            <path d="M876.187,354.578L877.639,337.572L881.267,337.572L881.991,329.083L843.088,329.083L843.493,324.346L843.686,324.346L846.67,289.39L776.794,289.39L773.809,324.346L773.616,324.346L773.211,329.083L716.606,329.083L720.54,324.346L720.732,324.346L749.754,289.39L737.527,289.39L767.668,253.086L764.567,289.39L834.443,289.39L836.425,266.174L815.169,266.174L815.169,261.397L836.833,261.397L838.476,242.152L850.703,242.152L851.268,235.539L854.011,203.417L889.831,203.417L890.799,192.08L854.979,192.08L856.511,174.13L840.953,174.13L841.76,164.682L857.318,164.682L858.317,152.981L794.785,152.981L785.067,164.682L769.509,164.682L761.663,174.13L777.221,174.13L762.314,192.08L798.135,192.08L788.72,203.417L752.899,203.417L726.223,235.539L720.731,242.152L708.503,242.152L669.274,289.39L681.501,289.39L670.239,302.951L690.031,302.951L690.031,310.115L664.289,310.115L652.471,324.346L652.278,324.346L649.518,327.669L648.673,337.572L645.045,337.572L643.593,354.578L665.118,354.578L664.069,366.86L646.365,366.86L644.51,388.589L644.271,391.381L768.087,391.381L766.776,406.738L748.846,406.738L747.85,418.392L765.78,418.392L764.695,431.103L775.203,431.103L774.315,441.495L763.807,441.495L763.001,450.943L762.3,459.145L832.177,459.145L832.878,450.943L833.685,441.495L844.192,441.495L845.08,431.103L834.572,431.103L835.657,418.392L817.727,418.392L818.723,406.738L836.653,406.738L837.964,391.381L876.867,391.381L877.105,388.589L878.96,366.86L896.664,366.86L897.712,354.578L876.187,354.578Z" style="fill:rgb(255,0,0);fill-rule:nonzero;"/>
            <rect x="96.434" y="244.356" width="56.286" height="4.693" style="fill:rgb(255,0,0);"/>
            <rect x="682.789" y="228.037" width="42.535" height="3.971" style="fill:rgb(255,0,0);"/>
            <rect x="837.843" y="411.273" width="49.595" height="5.054" style="fill:rgb(255,0,0);"/>
            <rect x="146.064" y="439.136" width="56.984" height="4.332" style="fill:rgb(255,0,0);"/>
            <path d="M318.5,272.343L318.5,261.687L298.395,261.687L297.485,272.343L318.5,272.343Z" style="fill:rgb(255,0,0);fill-rule:nonzero;"/>
            <path d="M649.516,302.951L649.516,310.115L661.028,310.115L666.978,302.951L649.516,302.951Z" style="fill:rgb(255,0,0);fill-rule:nonzero;"/>
            <path d="M106.871,308.67L106.871,312.684L121.562,312.684L124.896,308.67L106.871,308.67Z" style="fill:rgb(255,0,0);fill-rule:nonzero;"/>
            <path d="M844.906,266.174L844.906,261.397L818.807,261.397L818.4,266.174L844.906,266.174Z" style="fill:rgb(255,0,0);fill-rule:nonzero;"/>
        </g>
        <g>
            <path d="M358.119,348.489L357.892,348.489L358.617,340L319.716,340L320.121,335.262L320.006,335.262L322.991,300.306L253.114,300.306L250.129,335.262L250.244,335.262L249.839,340L193.231,340L197.165,335.262L197.05,335.262L226.073,300.306L213.845,300.306L243.987,264.002L240.887,300.306L310.763,300.306L312.219,283.26L283.507,283.26L283.507,272.604L313.129,272.604L314.797,253.069L327.024,253.069L327.589,246.455L330.332,214.334L359.011,214.334L359.979,202.997L331.3,202.997L332.833,185.046L317.199,185.046L318.006,175.599L333.639,175.599L334.639,163.897L271.105,163.897L261.387,175.599L245.754,175.599L237.908,185.046L253.541,185.046L238.634,202.997L267.313,202.997L257.897,214.334L229.218,214.334L202.542,246.455L197.05,253.069L184.822,253.069L145.592,300.306L157.819,300.306L141.807,319.587L165.925,319.587L165.925,323.6L138.474,323.6L128.789,335.262L128.904,335.262L126.143,338.586L125.298,348.489L125.525,348.489L124.073,365.494L135.704,365.494L134.655,377.776L122.683,377.776L120.827,399.506L120.589,402.298L244.405,402.298L243.094,417.654L223.61,417.654L222.615,429.309L242.099,429.309L241.013,442.02L251.521,442.02L250.634,452.412L240.126,452.412L239.319,461.859L238.619,470.062L308.497,470.062L309.198,461.859L310.004,452.412L320.512,452.412L321.4,442.02L310.892,442.02L311.977,429.309L295.866,429.309L296.861,417.654L312.972,417.654L314.283,402.298L353.183,402.298L353.422,399.506L355.277,377.776L367.249,377.776L368.298,365.494L356.667,365.494L358.119,348.489Z" style="fill:rgb(0,255,255);fill-rule:nonzero;"/>
            <path d="M619.168,348.489L627.377,348.489C628.112,344.207 628.776,339.792 629.376,335.262L624.485,335.262C625.293,329.155 625.985,322.839 626.544,316.294C627.012,310.814 627.359,305.484 627.588,300.306L615.36,300.306C616.137,282.725 615.53,266.925 613.558,253.068L625.785,253.068C625.464,250.815 625.116,248.603 624.723,246.455C624.485,245.156 624.235,243.876 623.971,242.616C621.786,232.192 618.88,222.748 615.292,214.334L650.033,214.334C648.32,210.317 646.452,206.535 644.43,202.997L609.689,202.997C607.709,199.534 605.585,196.297 603.313,193.306C601.075,190.361 598.714,187.612 596.245,185.046L579.336,185.046C575.958,181.537 572.368,178.383 568.573,175.598L585.482,175.598C580.151,171.686 574.423,168.49 568.321,166.046C555.046,160.734 540.426,158.042 524.864,158.042C509.633,158.042 494.765,160.716 480.67,165.994C474.142,168.441 467.881,171.656 461.914,175.598L445.005,175.598C440.791,178.382 436.727,181.535 432.823,185.046L449.732,185.046C447.033,187.473 444.406,190.061 441.865,192.828C438.994,195.952 436.233,199.346 433.586,202.996L468.327,202.996C465.761,206.534 463.3,210.314 460.952,214.333L426.211,214.333C421.455,222.473 417.155,231.585 413.343,241.614C412.742,243.193 412.163,244.814 411.593,246.455C410.845,248.61 410.12,250.809 409.426,253.068L397.199,253.068C392.944,266.924 389.718,282.733 387.551,300.306L399.778,300.306C399.183,305.127 398.664,310.073 398.23,315.157C397.637,322.108 397.234,328.805 397.005,335.262L401.896,335.262C401.736,339.796 401.667,344.205 401.686,348.489L386.34,348.489C386.367,354.398 386.557,360.077 386.926,365.495L416.042,365.495C416.331,369.746 416.731,373.837 417.23,377.777L398.57,377.777C399.132,382.21 399.821,386.452 400.649,390.48C401.285,393.58 401.989,396.582 402.745,399.506C404.424,406.003 406.408,412.046 408.667,417.655L390.737,417.655C392.405,421.795 394.238,425.671 396.216,429.31L414.146,429.31C416.274,433.225 418.559,436.88 421.04,440.195C421.503,440.814 421.976,441.418 422.45,442.021L433.913,442.021C436.899,445.819 440.099,449.285 443.502,452.413L432.039,452.413C435.958,456.016 440.147,459.168 444.59,461.861C448.183,464.038 451.937,465.925 455.855,467.493C469.131,472.805 483.614,475.5 498.9,475.5C514.413,475.5 529.42,472.823 543.505,467.545C547.715,465.967 551.819,464.065 555.814,461.86C560.69,459.17 565.398,456.015 569.922,452.412L581.385,452.412C585.312,449.285 589.099,445.818 592.737,442.02L581.274,442.02C581.68,441.596 582.089,441.177 582.492,440.745C585.714,437.282 588.783,433.443 591.721,429.31L573.791,429.31C576.378,425.671 578.863,421.798 581.222,417.655L599.152,417.655C602.344,412.049 605.329,406.003 608.085,399.506C609.19,396.901 610.263,394.231 611.295,391.486C612.924,387.156 614.432,382.574 615.833,377.776L634.492,377.776C635.643,373.835 636.718,369.742 637.713,365.494L615.736,365.494C617.007,360.069 618.153,354.401 619.168,348.489ZM561.384,377.776L542.725,377.776C542.683,377.896 542.645,378.018 542.603,378.138C539.78,386.182 535.938,393.334 531.18,399.505C529.966,401.08 528.707,402.607 527.373,404.05C521.417,410.489 513.458,413.62 503.043,413.62C493.21,413.62 486.266,410.677 481.81,404.621C480.62,403.006 479.525,401.293 478.511,399.504C475.17,393.612 472.78,386.801 471.403,379.162C471.32,378.702 471.252,378.236 471.173,377.774L489.832,377.774C489.149,373.755 488.634,369.656 488.287,365.492L459.17,365.492C458.707,359.923 458.546,354.242 458.691,348.486L474.038,348.486C474.056,347.758 474.066,347.033 474.094,346.303C474.242,342.443 474.406,338.77 474.583,335.259L469.692,335.259C470.05,328.182 470.465,321.819 470.937,316.291C471.343,311.546 471.862,306.16 472.472,300.303L460.245,300.303C460.318,299.606 460.386,298.93 460.461,298.219C461.177,291.357 462.272,284.172 463.713,276.851C465.123,269.671 467.088,262.449 469.556,255.387C469.833,254.595 470.15,253.841 470.445,253.066L482.672,253.066C483.539,250.787 484.47,248.572 485.492,246.453C487.1,243.118 488.88,239.972 490.849,237.077C494.294,232.016 498.549,227.867 503.494,224.747C508.201,221.781 513.824,220.338 520.685,220.338C527.347,220.338 532.816,221.773 536.927,224.596C541.341,227.638 544.772,231.52 547.409,236.456C549.037,239.515 550.372,242.864 551.418,246.453C552.036,248.574 552.548,250.781 552.956,253.066L540.73,253.066C540.8,253.457 540.877,253.843 540.941,254.239C542.073,261.341 542.812,268.617 543.135,275.857C543.453,283.11 543.388,290.253 542.942,297.086C542.87,298.187 542.798,299.253 542.727,300.303L554.954,300.303C554.567,305.991 554.195,310.947 553.836,315.154C553.341,320.958 552.623,327.704 551.703,335.259L556.594,335.259C556.208,338.426 555.79,341.72 555.333,345.17C555.186,346.278 555.02,347.382 554.851,348.485L546.642,348.485C545.763,354.241 544.595,359.923 543.14,365.491L565.117,365.491C564.029,369.658 562.785,373.758 561.384,377.776Z" style="fill:rgb(0,255,255);fill-rule:nonzero;"/>
            <path d="M893.099,365.494L894.55,348.489L898.179,348.489L898.903,340L860,340L860.405,335.262L860.598,335.262L863.582,300.306L793.706,300.306L790.721,335.262L790.528,335.262L790.123,340L733.518,340L737.451,335.262L737.644,335.262L766.666,300.306L754.439,300.306L784.58,264.002L781.479,300.306L851.355,300.306L853.337,277.09L832.081,277.09L832.081,272.314L853.745,272.314L855.388,253.069L867.615,253.069L868.18,246.455L870.922,214.334L906.743,214.334L907.711,202.997L871.89,202.997L873.423,185.046L857.865,185.046L858.672,175.599L874.23,175.599L875.229,163.897L811.697,163.897L801.979,175.599L786.421,175.599L778.575,185.046L794.133,185.046L779.226,202.997L815.047,202.997L805.631,214.334L769.811,214.334L743.135,246.455L737.642,253.069L725.415,253.069L686.185,300.306L698.413,300.306L687.151,313.867L706.943,313.867L706.943,321.032L681.201,321.032L669.383,335.262L669.19,335.262L666.43,338.586L665.585,348.489L661.956,348.489L660.504,365.494L682.03,365.494L680.981,377.776L663.277,377.776L661.422,399.506L661.183,402.298L784.999,402.298L783.687,417.654L763.646,417.654L762.65,429.309L782.692,429.309L781.607,442.02L792.115,442.02L791.227,452.412L780.719,452.412L779.912,461.859L779.212,470.062L849.089,470.062L849.79,461.859L850.596,452.412L861.104,452.412L861.992,442.02L851.484,442.02L852.569,429.309L836.217,429.309L837.212,417.654L853.565,417.654L854.876,402.298L893.779,402.298L894.017,399.506L895.872,377.776L913.576,377.776L914.624,365.494L893.099,365.494Z" style="fill:rgb(0,255,255);fill-rule:nonzero;"/>
            <rect x="113.346" y="251.034" width="56.286" height="4.693" style="fill:rgb(0,255,255);"/>
            <rect x="699.7" y="234.715" width="42.535" height="3.971" style="fill:rgb(0,255,255);"/>
            <rect x="854.755" y="416.6" width="49.595" height="5.054" style="fill:rgb(0,255,255);"/>
            <rect x="162.976" y="445.814" width="56.984" height="4.332" style="fill:rgb(0,255,255);"/>
            <path d="M333.235,283.26L333.235,272.604L313.129,272.604L312.219,283.26L333.235,283.26Z" style="fill:rgb(0,255,255);fill-rule:nonzero;"/>
            <path d="M666.428,313.867L666.428,321.032L677.94,321.032L683.89,313.867L666.428,313.867Z" style="fill:rgb(0,255,255);fill-rule:nonzero;"/>
            <path d="M123.783,319.587L123.783,323.6L138.474,323.6L141.807,319.587L123.783,319.587Z" style="fill:rgb(0,255,255);fill-rule:nonzero;"/>
            <path d="M880.05,277.09L880.05,272.314L853.951,272.314L853.543,277.09L880.05,277.09Z" style="fill:rgb(0,255,255);fill-rule:nonzero;"/>
        </g>
        <g>
            <path d="M348.668,344.217L348.44,344.217L349.165,335.729L310.265,335.729L310.669,330.991L310.555,330.991L313.539,296.035L243.663,296.035L240.677,330.991L240.792,330.991L240.388,335.729L183.78,335.729L187.713,330.991L187.599,330.991L216.621,296.035L204.394,296.035L234.535,259.731L231.435,296.035L301.312,296.035L302.767,278.988L274.055,278.988L274.055,268.332L303.677,268.332L305.345,248.797L317.573,248.797L318.138,242.184L320.88,210.062L349.559,210.062L350.527,198.725L321.848,198.725L323.381,180.775L307.748,180.775L308.554,171.327L324.188,171.327L325.187,159.626L261.654,159.626L251.936,171.327L236.302,171.327L228.456,180.775L244.09,180.775L229.182,198.725L257.861,198.725L248.446,210.062L219.767,210.062L193.09,242.184L187.598,248.797L175.371,248.797L136.14,296.035L148.368,296.035L132.356,315.315L156.474,315.315L156.474,319.329L129.023,319.329L119.337,330.991L119.452,330.991L116.692,334.314L115.846,344.217L116.074,344.217L114.622,361.223L126.252,361.223L125.204,373.505L113.231,373.505L111.376,395.234L111.137,398.026L234.953,398.026L233.642,413.383L215.712,413.383L214.717,425.038L232.647,425.038L231.562,437.748L242.07,437.748L241.182,448.14L230.675,448.14L229.868,457.588L229.168,465.79L299.046,465.79L299.746,457.588L300.553,448.14L311.061,448.14L311.948,437.748L301.44,437.748L302.525,425.038L284.595,425.038L285.59,413.383L303.52,413.383L304.831,398.026L343.732,398.026L343.97,395.234L345.825,373.505L357.798,373.505L358.846,361.223L347.216,361.223L348.668,344.217Z" style="fill:white;fill-rule:nonzero;"/>
            <path d="M609.717,344.217L617.926,344.217C618.661,339.935 619.325,335.52 619.925,330.99L615.034,330.99C615.842,324.883 616.534,318.567 617.093,312.022C617.561,306.542 617.908,301.212 618.137,296.034L605.91,296.034C606.687,278.453 606.08,262.653 604.108,248.796L616.335,248.796C616.014,246.543 615.666,244.331 615.273,242.183C615.035,240.884 614.785,239.604 614.521,238.344C612.336,227.92 609.43,218.476 605.842,210.062L640.583,210.062C638.87,206.045 637.002,202.263 634.98,198.725L600.239,198.725C598.259,195.262 596.135,192.025 593.863,189.034C591.625,186.089 589.264,183.34 586.795,180.774L569.886,180.774C566.508,177.265 562.918,174.111 559.123,171.326L576.032,171.326C570.701,167.414 564.973,164.218 558.871,161.774C545.596,156.462 530.975,153.77 515.414,153.77C500.183,153.77 485.315,156.444 471.22,161.722C464.692,164.169 458.431,167.384 452.464,171.326L435.555,171.326C431.341,174.11 427.277,177.263 423.373,180.774L440.282,180.774C437.583,183.201 434.956,185.789 432.415,188.556C429.544,191.68 426.783,195.074 424.136,198.724L458.877,198.724C456.311,202.262 453.85,206.042 451.502,210.061L416.761,210.061C412.005,218.201 407.705,227.313 403.893,237.342C403.292,238.921 402.713,240.542 402.143,242.183C401.395,244.338 400.67,246.537 399.976,248.796L387.749,248.796C383.494,262.652 380.268,278.461 378.101,296.034L390.328,296.034C389.733,300.855 389.214,305.801 388.78,310.885C388.187,317.836 387.784,324.533 387.555,330.99L392.446,330.99C392.286,335.524 392.217,339.933 392.236,344.217L376.889,344.217C376.916,350.126 377.106,355.805 377.475,361.223L406.591,361.223C406.88,365.474 407.28,369.565 407.779,373.505L389.12,373.505C389.682,377.938 390.371,382.18 391.199,386.208C391.835,389.308 392.539,392.31 393.295,395.234C394.974,401.731 396.958,407.774 399.217,413.383L381.287,413.383C382.955,417.523 384.788,421.399 386.766,425.038L404.696,425.038C406.824,428.953 409.109,432.608 411.59,435.923C412.053,436.542 412.526,437.146 413,437.749L424.463,437.749C427.449,441.547 430.649,445.013 434.052,448.141L422.589,448.141C426.508,451.744 430.697,454.896 435.14,457.589C438.733,459.766 442.487,461.653 446.405,463.221C459.681,468.533 474.164,471.228 489.45,471.228C504.963,471.228 519.97,468.551 534.055,463.273C538.265,461.695 542.369,459.793 546.364,457.588C551.24,454.898 555.948,451.743 560.472,448.14L571.935,448.14C575.862,445.013 579.649,441.546 583.287,437.748L571.824,437.748C572.23,437.324 572.639,436.905 573.042,436.473C576.264,433.01 579.333,429.171 582.271,425.038L564.341,425.038C566.928,421.399 569.413,417.526 571.772,413.383L589.702,413.383C592.894,407.777 595.879,401.731 598.635,395.234C599.74,392.629 600.813,389.959 601.845,387.214C603.474,382.884 604.982,378.302 606.383,373.504L625.042,373.504C626.193,369.563 627.268,365.47 628.263,361.222L606.286,361.222C607.555,355.797 608.701,350.129 609.717,344.217ZM551.932,373.505L533.273,373.505C533.231,373.625 533.193,373.747 533.151,373.867C530.328,381.911 526.486,389.063 521.728,395.234C520.514,396.809 519.255,398.336 517.921,399.779C511.965,406.218 504.006,409.349 493.591,409.349C483.758,409.349 476.814,406.406 472.358,400.35C471.168,398.735 470.073,397.022 469.059,395.233C465.718,389.341 463.328,382.53 461.951,374.891C461.868,374.431 461.8,373.965 461.721,373.503L480.38,373.503C479.697,369.483 479.182,365.385 478.835,361.221L449.719,361.221C449.256,355.652 449.095,349.971 449.24,344.215L464.587,344.215C464.605,343.487 464.615,342.762 464.643,342.032C464.791,338.172 464.955,334.499 465.132,330.988L460.241,330.988C460.599,323.911 461.014,317.548 461.486,312.02C461.892,307.275 462.411,301.889 463.021,296.032L450.793,296.032C450.866,295.335 450.934,294.659 451.009,293.948C451.725,287.086 452.82,279.901 454.261,272.58C455.671,265.4 457.636,258.178 460.104,251.116C460.381,250.324 460.698,249.57 460.993,248.795L473.22,248.795C474.087,246.516 475.018,244.301 476.04,242.182C477.648,238.847 479.428,235.701 481.397,232.806C484.842,227.745 489.097,223.596 494.042,220.476C498.749,217.51 504.372,216.067 511.233,216.067C517.895,216.067 523.364,217.502 527.475,220.325C531.889,223.367 535.32,227.249 537.957,232.185C539.585,235.244 540.92,238.593 541.966,242.182C542.584,244.303 543.096,246.51 543.504,248.795L531.277,248.795C531.347,249.186 531.424,249.572 531.488,249.968C532.62,257.07 533.359,264.346 533.682,271.586C534,278.839 533.935,285.982 533.489,292.815C533.417,293.916 533.345,294.982 533.274,296.032L545.501,296.032C545.114,301.72 544.742,306.676 544.383,310.883C543.888,316.687 543.17,323.433 542.25,330.988L547.141,330.988C546.755,334.155 546.337,337.449 545.88,340.899C545.733,342.007 545.567,343.111 545.398,344.214L537.189,344.214C536.31,349.97 535.142,355.652 533.687,361.22L555.664,361.22C554.578,365.387 553.333,369.487 551.932,373.505Z" style="fill:white;fill-rule:nonzero;"/>
            <path d="M883.647,361.223L885.099,344.217L888.727,344.217L889.452,335.729L850.549,335.729L850.953,330.991L851.146,330.991L854.131,296.035L784.255,296.035L781.269,330.991L781.076,330.991L780.672,335.729L724.067,335.729L728,330.991L728.193,330.991L757.215,296.035L744.987,296.035L775.128,259.731L772.027,296.035L841.903,296.035L843.885,272.819L822.63,272.819L822.63,268.043L844.293,268.043L845.936,248.797L858.164,248.797L858.728,242.184L861.471,210.062L897.292,210.062L898.26,198.725L862.439,198.725L863.971,180.775L848.413,180.775L849.22,171.327L864.778,171.327L865.777,159.626L802.245,159.626L792.527,171.327L776.969,171.327L769.123,180.775L784.682,180.775L769.774,198.725L805.595,198.725L796.18,210.062L760.359,210.062L733.683,242.184L728.191,248.797L715.963,248.797L676.734,296.035L688.961,296.035L677.699,309.596L697.492,309.596L697.492,316.76L671.749,316.76L659.932,330.991L659.739,330.991L656.979,334.314L656.133,344.217L652.505,344.217L651.053,361.223L672.578,361.223L671.529,373.505L653.825,373.505L651.97,395.234L651.732,398.026L775.547,398.026L774.236,413.383L756.306,413.383L755.31,425.038L773.241,425.038L772.155,437.748L782.663,437.748L781.776,448.14L771.268,448.14L770.461,457.588L769.76,465.79L839.638,465.79L840.338,457.588L841.145,448.14L851.653,448.14L852.54,437.748L842.032,437.748L843.118,425.038L825.188,425.038L826.183,413.383L844.113,413.383L845.424,398.026L884.327,398.026L884.566,395.234L886.42,373.505L904.124,373.505L905.173,361.223L883.647,361.223Z" style="fill:white;fill-rule:nonzero;"/>
            <rect x="103.895" y="246.763" width="56.286" height="4.693" style="fill:white;"/>
            <rect x="690.249" y="230.444" width="42.535" height="3.971" style="fill:white;"/>
            <rect x="845.303" y="413.288" width="49.595" height="5.054" style="fill:white;"/>
            <rect x="153.525" y="441.542" width="56.984" height="4.332" style="fill:white;"/>
            <path d="M323.783,278.988L323.783,268.332L303.677,268.332L302.767,278.988L323.783,278.988Z" style="fill:white;fill-rule:nonzero;"/>
            <path d="M656.976,309.596L656.976,316.76L668.489,316.76L674.439,309.596L656.976,309.596Z" style="fill:white;fill-rule:nonzero;"/>
            <path d="M114.331,315.315L114.331,319.329L129.023,319.329L132.356,315.315L114.331,315.315Z" style="fill:white;fill-rule:nonzero;"/>
            <path d="M870.258,272.819L870.258,268.043L844.158,268.043L843.751,272.819L870.258,272.819Z" style="fill:white;fill-rule:nonzero;"/>
        </g>
    </g>
</svg>
